<svg width="37" height="63" viewBox="0 0 37 63" fill="none" xmlns="http://www.w3.org/2000/svg">
<rect x="25.2549" y="50.2844" width="9.97311" height="11.1021" rx="4.98656" transform="rotate(-90.7305 25.2549 50.2844)" fill="#E5E5E5"/>
<rect x="25.0225" y="32.0329" width="9.97311" height="11.1021" rx="4.98656" transform="rotate(-90.7305 25.0225 32.0329)" fill="#E5E5E5"/>
<path d="M31.5044 18.5001C32.4179 19.5892 33.0044 21.5001 32.0044 22.0001C32.0044 22.0001 31.2068 20.3962 30.5044 19.5001C29.823 18.6307 28.5044 17.5001 28.5044 17.5001C29.0044 16.5001 30.7727 17.6278 31.5044 18.5001Z" fill="#005C25"/>
<path d="M33.5847 44.2644C33.1957 45.6316 31.9429 47.1892 30.968 46.6419C30.968 46.6419 31.8481 45.0818 32.1959 43.9976C32.5332 42.9458 33.0044 41.0001 33.0044 41.0001C34.1127 40.853 33.8963 43.1693 33.5847 44.2644Z" fill="#005C25"/>
<path d="M3.16248 44.2184C2.34487 43.0555 2.00049 41.5 3.16258 40.6868C3.16258 40.6868 3.87718 42.5474 4.50077 43.5C5.10576 44.4242 6.00105 46 6.00105 46C5.00057 46 3.81733 45.1498 3.16248 44.2184Z" fill="#005C25"/>
<path d="M2.79371 20.4217C3.35076 19.1139 4.49094 18.0011 5.79467 18.5598C5.79467 18.5598 4.59038 20.148 4.10971 21.1801C3.64339 22.1815 2.77641 23.773 2.77641 23.773C2.24896 22.9229 2.34754 21.4692 2.79371 20.4217Z" fill="#005C25"/>
<path d="M13.6598 59.18C16.8764 57.1788 15.0188 53.9355 14.9988 52.3677L19.7753 52.3068C19.9292 53.1978 19.2484 55.2664 19.2692 56.8909C19.2941 58.8508 17.5342 61.0979 15.9352 61.6425C10.7531 63.4074 10.9828 60.8454 13.6598 59.18Z" fill="#005C25"/>
<path d="M13.459 3.78078C12.466 5.63457 13.4093 13.0001 13.4093 13.0001C16.0044 12.5001 19.0044 12.5001 20.5044 13.0001C20.5044 13.0001 21.4032 5.63458 20.4102 3.78078C19.4173 1.92699 18.7223 1.00009 16.9346 1.00009C15.1469 1.00009 14.4519 1.92699 13.459 3.78078Z" fill="#005C25"/>
<mask id="mask0_205_3" style="mask-type:alpha" maskUnits="userSpaceOnUse" x="13" y="1" width="8" height="12">
<path d="M13.4585 3.78078C12.4655 5.63457 13.4089 13.0001 13.4089 13.0001C16.0039 12.5001 19.0039 12.5001 20.5039 13.0001C20.5039 13.0001 21.4027 5.63458 20.4097 3.78078C19.4168 1.92699 18.7218 1.00009 16.9341 1.00009C15.1464 1.00009 14.4515 1.92699 13.4585 3.78078Z" fill="#005C25"/>
</mask>
<g mask="url(#mask0_205_3)">
<circle cx="19.8737" cy="3.12912" r="1.12903" fill="#E5E5E5"/>
<circle cx="14.1334" cy="3.12912" r="1.12903" fill="#E5E5E5"/>
</g>
<mask id="mask1_205_3" style="mask-type:alpha" maskUnits="userSpaceOnUse" x="2" y="14" width="32" height="40">
<path d="M32.6846 31.8065C32.6846 37.2593 31.3956 42.6709 29.1064 46.7017C26.8143 50.7376 23.5762 53.3065 19.6846 53.3065C15.7571 53.3065 11.6368 50.6964 8.47215 46.641C5.31721 42.598 3.18457 37.204 3.18457 31.8065C3.18457 26.3855 4.83118 22.1372 7.44841 19.2502C10.0641 16.3649 13.6775 14.8065 17.6846 14.8065C25.668 14.8065 32.6846 21.0116 32.6846 31.8065Z" fill="#C4C4C4" stroke="#005C25"/>
</mask>
<g mask="url(#mask1_205_3)">
<path d="M9.27208 43.7293L12.6945 37.623L19.6939 37.5337L23.2709 43.5508L19.8485 49.6571L12.8491 49.7463L9.27208 43.7293Z" fill="#005C25"/>
<path d="M9.45079 57.7281L12.8732 51.6218L19.8727 51.5326L23.4497 57.5496L20.0272 63.6559L13.0278 63.7452L9.45079 57.7281Z" fill="#005C25"/>
<path d="M9.09386 29.7304L12.5163 23.6241L19.5157 23.5349L23.0927 29.5519L19.6703 35.6582L12.6709 35.7475L9.09386 29.7304Z" fill="#005C25"/>
<path d="M8.91515 15.7316L12.3376 9.62525L19.337 9.536L22.914 15.5531L19.4916 21.6594L12.4922 21.7486L8.91515 15.7316Z" fill="#005C25"/>
<path d="M-2.63759 50.8817L0.784841 44.7754L7.78427 44.6861L11.3613 50.7032L7.93885 56.8095L0.939419 56.8987L-2.63759 50.8817Z" fill="#005C25"/>
<path d="M-2.8163 36.8828L0.60613 30.7765L7.60556 30.6873L11.1826 36.7043L7.76014 42.8106L0.760708 42.8999L-2.8163 36.8828Z" fill="#005C25"/>
<path d="M-2.99452 22.884L0.427908 16.7777L7.42734 16.6884L11.0043 22.7055L7.58192 28.8118L0.582485 28.9011L-2.99452 22.884Z" fill="#005C25"/>
<path d="M21.1818 36.5768L24.6042 30.4705L31.6036 30.3813L35.1806 36.3983L31.7582 42.5046L24.7588 42.5939L21.1818 36.5768Z" fill="#005C25"/>
<path d="M21.3605 50.5757L24.7829 44.4694L31.7823 44.3802L35.3593 50.3972L31.9369 56.5035L24.9375 56.5928L21.3605 50.5757Z" fill="#005C25"/>
<path d="M21.0934 22.178L24.5158 16.0717L31.5152 15.9824L35.0922 21.9995L31.6698 28.1058L24.6704 28.195L21.0934 22.178Z" fill="#005C25"/>
</g>
</svg>
