<svg width="77" height="35" viewBox="0 0 77 35" fill="none" xmlns="http://www.w3.org/2000/svg">
<rect x="23.2419" y="23.8979" width="9.97311" height="11.1021" rx="4.98656" fill="#005C25"/>
<rect x="41.4946" y="23.8979" width="9.97311" height="11.1021" rx="4.98656" fill="#005C25"/>
<path d="M11.3237 19.2007C13.4589 22.4426 17.0176 20.6265 18.7258 20.6265V25.4033C17.7531 25.5459 15.5091 24.8388 13.7392 24.8388C11.604 24.8388 9.18058 23.0503 8.60957 21.4445C6.75905 16.2403 9.54667 16.5026 11.3237 19.2007Z" fill="#005C25"/>
<path d="M62.2696 9.57261C61.0673 13.4866 54.9744 14.8728 51.4677 15.9704L53.1584 21.1452C62.0818 18.6989 68.6923 18.8683 72.8252 13.9006C77.9914 7.69088 77.0591 1.29304 69.6901 3.08067C64.9434 4.23216 63.7725 4.68014 62.2696 9.57261Z" fill="#005C25"/>
<circle cx="70.2849" cy="8.16132" r="1.12903" fill="#E5E5E5"/>
<path d="M24.3226 29.1388C19.0644 27.3556 15.25 22.3021 16.9394 17.013C18.0507 13.5339 19.7941 10.3372 22.0854 7.66089C26.2848 2.75571 31.9804 7.05044e-06 37.9192 6.52671e-06C43.8581 6.00298e-06 49.5537 2.75571 53.7531 7.66089C56.006 10.2925 57.7293 13.4271 58.8428 16.8387C60.5978 22.2156 56.6924 27.3623 51.3266 29.1509V29.1509C49.9867 29.5976 48.5836 29.8253 47.1712 29.8253L37.9192 29.8253H28.484C27.0687 29.8253 25.6629 29.5934 24.3226 29.1388V29.1388Z" fill="#E5E5E5"/>
<mask id="mask0_412_4" style="mask-type:alpha" maskUnits="userSpaceOnUse" x="16" y="0" width="44" height="30">
<path d="M24.3226 29.1388C19.0644 27.3556 15.25 22.3021 16.9394 17.013C18.0507 13.5339 19.7941 10.3372 22.0854 7.66089C26.2848 2.75571 31.9804 7.05044e-06 37.9192 6.52671e-06C43.8581 6.00298e-06 49.5537 2.75571 53.7531 7.66089C56.006 10.2925 57.7293 13.4271 58.8428 16.8387C60.5978 22.2156 56.6924 27.3623 51.3266 29.1509V29.1509C49.9867 29.5976 48.5836 29.8253 47.1712 29.8253L37.9192 29.8253H28.484C27.0687 29.8253 25.6629 29.5934 24.3226 29.1388V29.1388Z" fill="#E5E5E5"/>
</mask>
<g mask="url(#mask0_412_4)">
<path d="M30 8.00006L36.0622 11.5001V18.5001L30 22.0001L23.9378 18.5001V11.5001L30 8.00006Z" fill="#005C25"/>
<path d="M16 8.00006L22.0622 11.5001V18.5001L16 22.0001L9.93782 18.5001V11.5001L16 8.00006Z" fill="#005C25"/>
<path d="M44 8.00006L50.0622 11.5001V18.5001L44 22.0001L37.9378 18.5001V11.5001L44 8.00006Z" fill="#005C25"/>
<path d="M58 8.00006L64.0622 11.5001V18.5001L58 22.0001L51.9378 18.5001V11.5001L58 8.00006Z" fill="#005C25"/>
<path d="M23 -3.99994L29.0622 -0.499939V6.50006L23 10.0001L16.9378 6.50006V-0.499939L23 -3.99994Z" fill="#005C25"/>
<path d="M37 -3.99994L43.0622 -0.499939V6.50006L37 10.0001L30.9378 6.50006V-0.499939L37 -3.99994Z" fill="#005C25"/>
<path d="M51 -3.99994L57.0622 -0.499939V6.50006L51 10.0001L44.9378 6.50006V-0.499939L51 -3.99994Z" fill="#005C25"/>
<path d="M37 20.0001L43.0622 23.5001V30.5001L37 34.0001L30.9378 30.5001V23.5001L37 20.0001Z" fill="#005C25"/>
<path d="M23 20.0001L29.0622 23.5001V30.5001L23 34.0001L16.9378 30.5001V23.5001L23 20.0001Z" fill="#005C25"/>
<path d="M51 20.0001L57.0622 23.5001V30.5001L51 34.0001L44.9378 30.5001V23.5001L51 20.0001Z" fill="#005C25"/>
</g>
<path d="M16.0528 15.6217C15.5534 18.1893 18.6496 28.1514 23.0442 28.973C28.5375 30.0001 32.0332 30.0001 33.5313 30.0001C34.7299 30.0001 39.3575 30.0001 41.5215 30.0001C44.3514 30.0001 51.5092 28.973 51.5092 28.973C51.5092 28.973 58.0012 26.919 59 21.2703C59 18.3604 58.201 11.4109 57.0025 11.0001" stroke="#E5E5E5" stroke-width="1.5"/>
</svg>
