<svg width="69" height="35" viewBox="0 0 69 35" fill="none" xmlns="http://www.w3.org/2000/svg">
<rect x="15.2419" y="23.8979" width="9.97311" height="11.1021" rx="4.98656" fill="#005C25"/>
<rect x="33.4946" y="23.8979" width="9.97311" height="11.1021" rx="4.98656" fill="#005C25"/>
<path d="M3.32367 19.2007C5.4589 22.4426 9.01762 20.6265 10.7258 20.6265V25.4033C9.75309 25.5459 7.50911 24.8388 5.73924 24.8388C3.604 24.8388 1.18058 23.0503 0.60957 21.4445C-1.24095 16.2403 1.54667 16.5026 3.32367 19.2007Z" fill="#005C25"/>
<path d="M54.2696 9.57261C53.0673 13.4866 46.9744 14.8728 43.4677 15.9704L45.1584 21.1452C54.0818 18.6989 60.6923 18.8683 64.8252 13.9006C69.9914 7.69088 69.0591 1.29304 61.6901 3.08067C56.9434 4.23216 55.7725 4.68014 54.2696 9.57261Z" fill="#005C25"/>
<circle cx="62.2849" cy="8.16132" r="1.12903" fill="#E5E5E5"/>
<path d="M16.3226 29.1388C11.0644 27.3556 7.24995 22.3021 8.93938 17.013C10.0507 13.5339 11.7941 10.3372 14.0854 7.66089C18.2848 2.75571 23.9804 7.62939e-06 29.9193 5.72205e-06C35.8581 5.72205e-06 41.5537 2.75571 45.7531 7.66089C48.006 10.2925 49.7293 13.4271 50.8428 16.8387C52.5978 22.2156 48.6924 27.3623 43.3266 29.1509C41.9867 29.5976 40.5836 29.8253 39.1712 29.8253L29.9193 29.8253H20.484C19.0687 29.8253 17.6629 29.5934 16.3226 29.1388Z" fill="#E5E5E5"/>
<mask id="mask0_209_2" style="mask-type:alpha" maskUnits="userSpaceOnUse" x="8" y="0" width="44" height="30">
<path d="M16.3226 29.1388C11.0644 27.3556 7.24995 22.3021 8.93938 17.013C10.0507 13.5339 11.7941 10.3372 14.0854 7.66089C18.2848 2.75571 23.9804 7.62939e-06 29.9193 5.72205e-06C35.8581 5.72205e-06 41.5537 2.75571 45.7531 7.66089C48.006 10.2925 49.7293 13.4271 50.8428 16.8387C52.5978 22.2156 48.6924 27.3623 43.3266 29.1509C41.9867 29.5976 40.5836 29.8253 39.1712 29.8253L29.9193 29.8253H20.484C19.0687 29.8253 17.6629 29.5934 16.3226 29.1388Z" fill="#E5E5E5"/>
</mask>
<g mask="url(#mask0_209_2)">
<path d="M22 8.00006L28.0622 11.5001V18.5001L22 22.0001L15.9378 18.5001V11.5001L22 8.00006Z" fill="#005C25"/>
<path d="M8 8.00006L14.0622 11.5001V18.5001L8 22.0001L1.93782 18.5001V11.5001L8 8.00006Z" fill="#005C25"/>
<path d="M36 8.00006L42.0622 11.5001V18.5001L36 22.0001L29.9378 18.5001V11.5001L36 8.00006Z" fill="#005C25"/>
<path d="M50 8.00006L56.0622 11.5001V18.5001L50 22.0001L43.9378 18.5001V11.5001L50 8.00006Z" fill="#005C25"/>
<path d="M15 -3.99994L21.0622 -0.499939V6.50006L15 10.0001L8.93782 6.50006V-0.499939L15 -3.99994Z" fill="#005C25"/>
<path d="M29 -3.99994L35.0622 -0.499939V6.50006L29 10.0001L22.9378 6.50006V-0.499939L29 -3.99994Z" fill="#005C25"/>
<path d="M43 -3.99994L49.0622 -0.499939V6.50006L43 10.0001L36.9378 6.50006V-0.499939L43 -3.99994Z" fill="#005C25"/>
<path d="M29 20.0001L35.0622 23.5001V30.5001L29 34.0001L22.9378 30.5001V23.5001L29 20.0001Z" fill="#005C25"/>
<path d="M15 20.0001L21.0622 23.5001V30.5001L15 34.0001L8.93782 30.5001V23.5001L15 20.0001Z" fill="#005C25"/>
<path d="M43 20.0001L49.0622 23.5001V30.5001L43 34.0001L36.9378 30.5001V23.5001L43 20.0001Z" fill="#005C25"/>
</g>
<path d="M8.05282 15.6217C7.55343 18.1893 10.6496 28.1514 15.0442 28.973C20.5375 30.0001 24.0332 30.0001 25.5313 30.0001C26.7299 30.0001 31.3575 30.0001 33.5215 30.0001C36.3514 30.0001 43.5092 28.973 43.5092 28.973C43.5092 28.973 50.0012 26.919 51 21.2703C51 18.3604 50.201 11.4109 49.0025 11.0001" stroke="#E5E5E5" stroke-width="1.5"/>
</svg>
