<svg width="398" height="273" viewBox="0 0 398 273" fill="none" xmlns="http://www.w3.org/2000/svg">
<g filter="url(#filter0_d_92_1236)">
<path d="M199 36C107.321 36 33 110.321 33 202V222.5H142.5C142.5 222.5 153.5 267.5 199 267.5C244.5 267.5 254.5 222.5 254.5 222.5H365V202C365 110.321 290.679 36 199 36Z" fill="#E5E5E5"/>
<path d="M142.5 218.5H37V202C37 112.53 109.53 40 199 40C288.47 40 361 112.53 361 202V218.5H254.5H251.291L250.597 221.626L250.596 221.627L250.596 221.629L250.595 221.632L250.595 221.635C250.592 221.647 250.587 221.669 250.579 221.701C250.564 221.766 250.538 221.871 250.501 222.014C250.428 222.3 250.311 222.737 250.144 223.304C249.81 224.438 249.278 226.086 248.501 228.075C246.942 232.065 244.42 237.367 240.578 242.646C232.955 253.121 220.181 263.5 199 263.5C177.807 263.5 164.768 253.108 156.887 242.6C152.92 237.31 150.277 231.999 148.627 228.004C147.804 226.012 147.235 224.362 146.875 223.226C146.695 222.658 146.568 222.22 146.488 221.933C146.448 221.79 146.42 221.685 146.404 221.62C146.4 221.607 146.397 221.596 146.395 221.586C146.391 221.572 146.388 221.561 146.386 221.553L146.386 221.55L146.385 221.547L146.384 221.545L146.384 221.544L145.64 218.5H142.5Z" stroke="#005C25" stroke-width="8"/>
</g>
<path d="M198.598 0L186.96 28.7284L198.588 22.038L209.551 27.9988L198.598 0Z" fill="black"/>
<path d="M0 198.528L17.2914 205.531L13.2643 198.533L16.8518 191.934L0 198.528Z" fill="black"/>
<path d="M343.139 60L325.96 67.2745L333.756 69.3757L335.885 76.5781L343.139 60Z" fill="black"/>
<path d="M51.6104 61.1989L58.8848 78.3781L60.986 70.5817L68.1884 68.4528L51.6104 61.1989Z" fill="black"/>
<path d="M397.92 196.004L380.629 189L384.656 195.999L381.069 202.597L397.92 196.004Z" fill="black"/>
<path d="M198.32 54.7C199.173 54.7 199.927 54.8867 200.58 55.26C201.247 55.62 201.807 56.1067 202.26 56.72C202.713 57.3333 203.053 58.0467 203.28 58.86C203.52 59.66 203.64 60.5067 203.64 61.4C203.64 62.2933 203.52 63.1533 203.28 63.98C203.04 64.7933 202.687 65.52 202.22 66.16C201.767 66.7867 201.2 67.2933 200.52 67.68C199.84 68.0533 199.06 68.24 198.18 68.24C197.313 68.24 196.553 68.06 195.9 67.7C195.26 67.34 194.727 66.8533 194.3 66.24C193.873 65.6267 193.547 64.92 193.32 64.12C193.107 63.3067 193 62.4533 193 61.56C193 60.6133 193.12 59.7267 193.36 58.9C193.6 58.06 193.947 57.3333 194.4 56.72C194.853 56.0933 195.407 55.6 196.06 55.24C196.727 54.88 197.48 54.7 198.32 54.7ZM198.26 66.32C198.767 66.32 199.2 66.2 199.56 65.96C199.933 65.7067 200.24 65.36 200.48 64.92C200.72 64.48 200.9 63.96 201.02 63.36C201.14 62.76 201.2 62.1133 201.2 61.42C201.2 60.7133 201.14 60.0667 201.02 59.48C200.9 58.8933 200.713 58.3867 200.46 57.96C200.22 57.5333 199.913 57.2067 199.54 56.98C199.167 56.74 198.733 56.62 198.24 56.62C197.747 56.62 197.32 56.74 196.96 56.98C196.613 57.2067 196.327 57.5333 196.1 57.96C195.887 58.3733 195.727 58.88 195.62 59.48C195.513 60.0667 195.46 60.7133 195.46 61.42C195.46 63.0333 195.7 64.2533 196.18 65.08C196.673 65.9067 197.367 66.32 198.26 66.32ZM208.335 54.84C208.789 54.84 209.189 54.9133 209.535 55.06C209.882 55.1933 210.169 55.38 210.395 55.62C210.635 55.86 210.809 56.1467 210.915 56.48C211.035 56.8 211.095 57.14 211.095 57.5C211.095 57.8467 211.042 58.1733 210.935 58.48C210.829 58.7867 210.662 59.0533 210.435 59.28C210.209 59.5067 209.922 59.6867 209.575 59.82C209.229 59.9533 208.815 60.02 208.335 60.02C207.855 60.02 207.442 59.9533 207.095 59.82C206.749 59.6733 206.462 59.4867 206.235 59.26C206.022 59.02 205.862 58.7467 205.755 58.44C205.662 58.1333 205.615 57.8067 205.615 57.46C205.615 57.1 205.675 56.76 205.795 56.44C205.915 56.12 206.089 55.8467 206.315 55.62C206.542 55.38 206.822 55.1933 207.155 55.06C207.502 54.9133 207.895 54.84 208.335 54.84ZM208.335 58.8C208.802 58.8 209.129 58.6667 209.315 58.4C209.515 58.1333 209.615 57.82 209.615 57.46C209.615 57.1133 209.515 56.8067 209.315 56.54C209.129 56.26 208.802 56.12 208.335 56.12C207.869 56.12 207.529 56.2533 207.315 56.52C207.115 56.7733 207.015 57.0667 207.015 57.4C207.015 57.76 207.122 58.0867 207.335 58.38C207.562 58.66 207.895 58.8 208.335 58.8Z" fill="black"/>
<path d="M325.42 196.58C325.193 197.06 324.84 197.413 324.36 197.64C323.893 197.867 323.34 197.98 322.7 197.98C321.94 197.98 321.313 197.84 320.82 197.56C320.327 197.28 319.933 196.933 319.64 196.52C319.347 196.107 319.14 195.667 319.02 195.2C318.913 194.72 318.86 194.28 318.86 193.88C318.86 193.4 318.933 192.913 319.08 192.42C319.24 191.927 319.487 191.48 319.82 191.08C320.167 190.68 320.607 190.353 321.14 190.1C321.687 189.847 322.353 189.72 323.14 189.72C323.967 189.72 324.66 189.873 325.22 190.18C325.793 190.473 326.253 190.893 326.6 191.44C326.96 191.987 327.22 192.647 327.38 193.42C327.54 194.18 327.62 195.027 327.62 195.96C327.62 196.867 327.54 197.76 327.38 198.64C327.233 199.507 326.967 200.28 326.58 200.96C326.207 201.64 325.7 202.193 325.06 202.62C324.433 203.033 323.647 203.24 322.7 203.24C322.46 203.24 322.193 203.22 321.9 203.18C321.607 203.153 321.307 203.1 321 203.02C320.707 202.94 320.42 202.833 320.14 202.7C319.86 202.567 319.62 202.4 319.42 202.2L319.92 200.44C320.36 200.773 320.827 201.007 321.32 201.14C321.813 201.273 322.247 201.34 322.62 201.34C323.18 201.34 323.64 201.22 324 200.98C324.373 200.727 324.667 200.4 324.88 200C325.107 199.6 325.267 199.153 325.36 198.66C325.453 198.167 325.5 197.673 325.5 197.18C325.5 197.073 325.5 196.98 325.5 196.9C325.5 196.807 325.493 196.707 325.48 196.6L325.42 196.58ZM321.22 193.96C321.22 194.24 321.247 194.513 321.3 194.78C321.353 195.047 321.447 195.287 321.58 195.5C321.727 195.7 321.913 195.86 322.14 195.98C322.38 196.1 322.673 196.16 323.02 196.16C323.7 196.16 324.207 195.94 324.54 195.5C324.887 195.06 325.06 194.5 325.06 193.82C325.06 193.127 324.887 192.573 324.54 192.16C324.193 191.747 323.72 191.54 323.12 191.54C322.52 191.54 322.053 191.753 321.72 192.18C321.387 192.607 321.22 193.2 321.22 193.96ZM335.101 189.7C335.955 189.7 336.708 189.887 337.361 190.26C338.028 190.62 338.588 191.107 339.041 191.72C339.495 192.333 339.835 193.047 340.061 193.86C340.301 194.66 340.421 195.507 340.421 196.4C340.421 197.293 340.301 198.153 340.061 198.98C339.821 199.793 339.468 200.52 339.001 201.16C338.548 201.787 337.981 202.293 337.301 202.68C336.621 203.053 335.841 203.24 334.961 203.24C334.095 203.24 333.335 203.06 332.681 202.7C332.041 202.34 331.508 201.853 331.081 201.24C330.655 200.627 330.328 199.92 330.101 199.12C329.888 198.307 329.781 197.453 329.781 196.56C329.781 195.613 329.901 194.727 330.141 193.9C330.381 193.06 330.728 192.333 331.181 191.72C331.635 191.093 332.188 190.6 332.841 190.24C333.508 189.88 334.261 189.7 335.101 189.7ZM335.041 201.32C335.548 201.32 335.981 201.2 336.341 200.96C336.715 200.707 337.021 200.36 337.261 199.92C337.501 199.48 337.681 198.96 337.801 198.36C337.921 197.76 337.981 197.113 337.981 196.42C337.981 195.713 337.921 195.067 337.801 194.48C337.681 193.893 337.495 193.387 337.241 192.96C337.001 192.533 336.695 192.207 336.321 191.98C335.948 191.74 335.515 191.62 335.021 191.62C334.528 191.62 334.101 191.74 333.741 191.98C333.395 192.207 333.108 192.533 332.881 192.96C332.668 193.373 332.508 193.88 332.401 194.48C332.295 195.067 332.241 195.713 332.241 196.42C332.241 198.033 332.481 199.253 332.961 200.08C333.455 200.907 334.148 201.32 335.041 201.32ZM345.117 189.84C345.57 189.84 345.97 189.913 346.317 190.06C346.663 190.193 346.95 190.38 347.177 190.62C347.417 190.86 347.59 191.147 347.697 191.48C347.817 191.8 347.877 192.14 347.877 192.5C347.877 192.847 347.823 193.173 347.717 193.48C347.61 193.787 347.443 194.053 347.217 194.28C346.99 194.507 346.703 194.687 346.357 194.82C346.01 194.953 345.597 195.02 345.117 195.02C344.637 195.02 344.223 194.953 343.877 194.82C343.53 194.673 343.243 194.487 343.017 194.26C342.803 194.02 342.643 193.747 342.537 193.44C342.443 193.133 342.397 192.807 342.397 192.46C342.397 192.1 342.457 191.76 342.577 191.44C342.697 191.12 342.87 190.847 343.097 190.62C343.323 190.38 343.603 190.193 343.937 190.06C344.283 189.913 344.677 189.84 345.117 189.84ZM345.117 193.8C345.583 193.8 345.91 193.667 346.097 193.4C346.297 193.133 346.397 192.82 346.397 192.46C346.397 192.113 346.297 191.807 346.097 191.54C345.91 191.26 345.583 191.12 345.117 191.12C344.65 191.12 344.31 191.253 344.097 191.52C343.897 191.773 343.797 192.067 343.797 192.4C343.797 192.76 343.903 193.087 344.117 193.38C344.343 193.66 344.677 193.8 345.117 193.8Z" fill="black"/>
<path d="M66.51 206H62.76L61.71 200.24H54.24L51 206H47.4L59.28 186.2H62.25L66.51 206ZM55.77 197.54H61.23L59.91 190.25L55.77 197.54Z" fill="black"/>
<path d="M292.59 116.36C291.49 116.36 290.43 116.32 289.41 116.24C288.41 116.18 287.56 116.1 286.86 116L291.06 96.2C291.3 96.18 291.62 96.17 292.02 96.17C292.42 96.15 292.85 96.13 293.31 96.11C293.77 96.09 294.23 96.08 294.69 96.08C295.15 96.06 295.56 96.05 295.92 96.05C297.76 96.05 299.16 96.4 300.12 97.1C301.08 97.8 301.56 98.82 301.56 100.16C301.56 101.18 301.31 102.11 300.81 102.95C300.31 103.79 299.55 104.49 298.53 105.05C299.45 105.39 300.16 105.91 300.66 106.61C301.18 107.29 301.44 108.14 301.44 109.16C301.44 110.08 301.24 110.98 300.84 111.86C300.46 112.72 299.89 113.49 299.13 114.17C298.39 114.83 297.47 115.36 296.37 115.76C295.27 116.16 294.01 116.36 292.59 116.36ZM294.51 106.67C294.13 106.67 293.75 106.68 293.37 106.7C292.99 106.7 292.62 106.71 292.26 106.73L290.85 113.42C291.19 113.46 291.55 113.48 291.93 113.48C292.33 113.48 292.73 113.48 293.13 113.48C294.57 113.48 295.71 113.11 296.55 112.37C297.41 111.61 297.84 110.57 297.84 109.25C297.84 108.47 297.58 107.85 297.06 107.39C296.54 106.91 295.69 106.67 294.51 106.67ZM295.89 98.87C295.49 98.87 295.13 98.89 294.81 98.93C294.49 98.95 294.19 98.98 293.91 99.02L292.8 104.15C293.04 104.17 293.29 104.18 293.55 104.18C293.81 104.18 294.07 104.18 294.33 104.18C294.85 104.18 295.33 104.08 295.77 103.88C296.21 103.68 296.58 103.42 296.88 103.1C297.2 102.76 297.44 102.37 297.6 101.93C297.78 101.49 297.87 101.04 297.87 100.58C297.87 100.08 297.7 99.67 297.36 99.35C297.02 99.03 296.53 98.87 295.89 98.87Z" fill="black"/>
<path d="M114.17 100.46C113.63 100.02 112.94 99.67 112.1 99.41C111.26 99.13 110.27 98.99 109.13 98.99C107.69 98.99 106.47 99.25 105.47 99.77C104.47 100.29 103.66 100.98 103.04 101.84C102.42 102.7 101.97 103.69 101.69 104.81C101.41 105.91 101.27 107.04 101.27 108.2C101.27 109.9 101.67 111.2 102.47 112.1C103.27 112.98 104.45 113.42 106.01 113.42C107.21 113.42 108.34 113.24 109.4 112.88C110.46 112.52 111.37 112.08 112.13 111.56L112.4 114.53C111.5 115.01 110.44 115.44 109.22 115.82C108.02 116.18 106.71 116.36 105.29 116.36C103.93 116.36 102.76 116.16 101.78 115.76C100.82 115.34 100.02 114.78 99.38 114.08C98.76 113.36 98.3 112.53 98 111.59C97.7 110.63 97.55 109.62 97.55 108.56C97.55 106.94 97.83 105.38 98.39 103.88C98.95 102.36 99.76 101.03 100.82 99.89C101.9 98.73 103.2 97.8 104.72 97.1C106.26 96.4 108 96.05 109.94 96.05C111.02 96.05 112.07 96.17 113.09 96.41C114.13 96.63 115 96.94 115.7 97.34L114.17 100.46Z" fill="black"/>
<defs>
<filter id="filter0_d_92_1236" x="30" y="33" width="340" height="239.5" filterUnits="userSpaceOnUse" color-interpolation-filters="sRGB">
<feFlood flood-opacity="0" result="BackgroundImageFix"/>
<feColorMatrix in="SourceAlpha" type="matrix" values="0 0 0 0 0 0 0 0 0 0 0 0 0 0 0 0 0 0 127 0" result="hardAlpha"/>
<feOffset dx="1" dy="1"/>
<feGaussianBlur stdDeviation="2"/>
<feComposite in2="hardAlpha" operator="out"/>
<feColorMatrix type="matrix" values="0 0 0 0 0 0 0 0 0 0 0 0 0 0 0 0 0 0 0.25 0"/>
<feBlend mode="normal" in2="BackgroundImageFix" result="effect1_dropShadow_92_1236"/>
<feBlend mode="normal" in="SourceGraphic" in2="effect1_dropShadow_92_1236" result="shape"/>
</filter>
</defs>
</svg>
