<svg width="114" height="117" viewBox="0 0 114 117" fill="none" xmlns="http://www.w3.org/2000/svg">
<path d="M21.5803 18.4233C21.3875 15.9122 24.1878 14.2955 26.266 15.718L57.455 37.066C59.2773 38.3133 59.1729 41.0355 57.2605 42.1397L28.965 58.4761C27.0525 59.5803 24.6429 58.3095 24.4738 56.1077L21.5803 18.4233Z" fill="#C59B26"/>
<path d="M90.0663 16.0552C92.1446 14.6327 94.9448 16.2494 94.752 18.7605L91.8586 56.4449C91.6895 58.6468 89.2798 59.9175 87.3674 58.8133L59.0719 42.4769C57.1594 41.3728 57.0551 38.6506 58.8774 37.4032L90.0663 16.0552Z" fill="#C59B26"/>
<path d="M91 67C91 57.9826 87.5232 49.3346 81.3345 42.9584C75.1458 36.5821 66.7521 33 58 33C49.2479 33 40.8542 36.5821 34.6655 42.9584C28.4768 49.3346 25 57.9826 25 67L58 67H91Z" fill="#F7BB1D"/>
<path d="M25 67H91V86C91 97.0457 82.0457 106 71 106H45C33.9543 106 25 97.0457 25 86V67Z" fill="#F7BB1D"/>
<path d="M60.504 99.205C59.3183 101.002 56.6817 101.002 55.496 99.205L47.2133 86.6522C45.8972 84.6577 47.3277 82 49.7173 82H66.2827C68.6723 82 70.1028 84.6577 68.7867 86.6522L60.504 99.205Z" fill="#C59B26"/>
<path d="M68.5128 95L98 102.814M68 97.4419L96.2051 116" stroke="black"/>
<path d="M47.4872 95L18 102.814M48 97.4419L19.7949 116" stroke="black"/>
</svg>
