<svg width="102" height="130" viewBox="0 0 102 130" fill="none" xmlns="http://www.w3.org/2000/svg">
<ellipse cx="28.0394" cy="46.8126" rx="16.5" ry="27.5" transform="rotate(30 28.0394 46.8126)" fill="#996F3F"/>
<ellipse cx="73.5394" cy="47.0657" rx="16.5" ry="27.5" transform="rotate(-30 73.5394 47.0657)" fill="#996F3F"/>
<path d="M34.0494 37.0413C40.3819 22.7826 60.6181 22.7826 66.9506 37.0413L82.5625 72.194C87.8486 84.0967 79.1356 97.5 66.1119 97.5H34.8881C21.8644 97.5 13.1513 84.0967 18.4375 72.194L34.0494 37.0413Z" fill="#C09766"/>
<path d="M55.9981 79.416C53.9022 84.213 47.0978 84.213 45.0019 79.416L42.0467 72.6522C40.3148 68.6884 43.2192 64.25 47.5448 64.25L53.4552 64.25C57.7808 64.25 60.6852 68.6884 58.9533 72.6522L55.9981 79.416Z" fill="black"/>
</svg>
