<svg width="502" height="279" viewBox="0 0 502 279" fill="none" xmlns="http://www.w3.org/2000/svg">
<rect x="47.4677" y="244.425" width="31.0591" height="34.5753" rx="15" fill="#66A923"/>
<rect x="104.312" y="244.425" width="31.0591" height="34.5753" rx="15" fill="#66A923"/>
<path d="M10.3509 229.796C17.0006 239.892 28.0835 234.237 33.4032 234.237V249.113C30.3739 249.557 23.3855 247.355 17.8737 247.355C11.2239 247.355 3.67668 241.785 1.89838 236.784C-3.86467 220.577 4.81677 221.394 10.3509 229.796Z" fill="#66A923"/>
<path d="M169.011 206.04C165.267 218.23 146.292 222.547 135.371 225.965L140.636 242.081C168.426 234.462 189.013 234.99 201.884 219.519C217.973 200.18 215.07 180.255 192.121 185.823C177.338 189.409 173.692 190.804 169.011 206.04Z" fill="#66A923"/>
<mask id="mask0_92_921" style="mask-type:alpha" maskUnits="userSpaceOnUse" x="135" y="184" width="78" height="59">
<path d="M169.011 206.04C165.267 218.23 146.292 222.547 135.371 225.965L140.636 242.081C168.426 234.462 189.013 234.99 201.884 219.519C217.973 200.18 215.07 180.255 192.121 185.823C177.338 189.409 173.692 190.804 169.011 206.04Z" fill="#66A923"/>
</mask>
<g mask="url(#mask0_92_921)">
<path d="M211.808 206.227C212.086 207.598 211.809 209.023 211.037 210.19C210.265 211.356 209.062 212.168 207.691 212.447C206.32 212.726 204.895 212.449 203.728 211.677C202.562 210.905 201.75 209.701 201.471 208.331L206.639 207.279L211.808 206.227Z" fill="black"/>
</g>
<circle cx="193.973" cy="201.645" r="3.51613" fill="black"/>
<circle cx="194.559" cy="200.473" r="1.17204" fill="#005C25"/>
<path d="M37.0176 256.061C28.9013 253.309 23.2291 245.647 24.5209 237.175C27.006 220.876 33.707 205.725 43.8662 193.858C56.9444 178.582 74.6821 170 93.1774 170C111.673 170 129.41 178.582 142.489 193.858C152.632 205.706 159.327 220.827 161.822 237.097C163.127 245.606 157.405 253.293 149.239 256.015L131.711 261.858C129.671 262.538 127.536 262.884 125.386 262.884H93.1774H60.4361C58.2515 262.884 56.0817 262.526 54.0128 261.825L37.0176 256.061Z" fill="#423C27"/>
<mask id="mask1_92_921" style="mask-type:alpha" maskUnits="userSpaceOnUse" x="24" y="170" width="139" height="93">
<path d="M37.0176 256.061C28.9013 253.309 23.2291 245.647 24.5209 237.175C27.006 220.876 33.707 205.725 43.8662 193.858C56.9444 178.582 74.6821 170 93.1774 170C111.673 170 129.41 178.582 142.489 193.858C152.632 205.706 159.327 220.827 161.822 237.097C163.127 245.606 157.405 253.293 149.239 256.015L131.711 261.858C129.671 262.538 127.536 262.884 125.386 262.884H93.1774H60.4361C58.2515 262.884 56.0817 262.526 54.0128 261.825L37.0176 256.061Z" fill="#423C27"/>
</mask>
<g mask="url(#mask1_92_921)">
<path opacity="0.6" d="M22.2688 191.097L42.0617 202.524V225.379L22.2688 236.806L2.47594 225.379V202.524L22.2688 191.097Z" fill="#996F3F"/>
<path opacity="0.6" d="M66.8065 191.097L86.5993 202.524V225.379L66.8065 236.806L47.0136 225.379V202.524L66.8065 191.097Z" fill="#996F3F"/>
<path opacity="0.6" d="M110.172 191.097L129.965 202.524V225.379L110.172 236.806L90.3792 225.379V202.524L110.172 191.097Z" fill="#996F3F"/>
<path opacity="0.6" d="M154.71 191.097L174.503 202.524V225.379L154.71 236.806L134.917 225.379V202.524L154.71 191.097Z" fill="#996F3F"/>
<path opacity="0.6" d="M44.5376 153.005L64.3305 164.433V187.288L44.5376 198.715L24.7448 187.288V164.433L44.5376 153.005Z" fill="#996F3F"/>
<path opacity="0.6" d="M89.0753 153.005L108.868 164.433V187.288L89.0753 198.715L69.2824 187.288V164.433L89.0753 153.005Z" fill="#996F3F"/>
<path opacity="0.6" d="M132.441 153.005L152.234 164.433V187.288L132.441 198.715L112.648 187.288V164.433L132.441 153.005Z" fill="#996F3F"/>
<path opacity="0.6" d="M176.978 153.005L196.771 164.433V187.288L176.978 198.715L157.186 187.288V164.433L176.978 153.005Z" fill="#996F3F"/>
<path opacity="0.6" d="M44.5376 229.188L64.3305 240.616V263.47L44.5376 274.898L24.7448 263.47V240.616L44.5376 229.188Z" fill="#996F3F"/>
<path opacity="0.6" d="M89.0753 229.188L108.868 240.616V263.47L89.0753 274.898L69.2824 263.47V240.616L89.0753 229.188Z" fill="#996F3F"/>
<path opacity="0.6" d="M132.441 229.188L152.234 240.616V263.47L132.441 274.898L112.648 263.47V240.616L132.441 229.188Z" fill="#996F3F"/>
<path opacity="0.6" d="M176.978 229.188L196.771 240.616V263.47L176.978 274.898L157.186 263.47V240.616L176.978 229.188Z" fill="#996F3F"/>
</g>
<path d="M19.0086 244.241C20.4445 240.459 24.6746 238.556 28.4569 239.992L62.6986 252.992L57.4986 266.689L23.2569 253.689C19.4747 252.253 17.5726 248.023 19.0086 244.241Z" fill="#423C27"/>
<path d="M166.871 244.862C168.255 248.664 166.294 252.867 162.493 254.251L128.075 266.778L123.065 253.011L157.482 240.484C161.284 239.1 165.487 241.06 166.871 244.862Z" fill="#423C27"/>
<rect x="57.5926" y="252.288" width="70.7925" height="14.6505" fill="#423C27"/>
<path d="M240.669 199C249.542 182.772 252.629 169.946 242.65 162.001C213.942 144.447 210 111.737 210 99.859C210 45.1087 275.366 0.724854 356 0.724854C436.633 0.724854 502 45.1087 502 99.859C502 154.609 436.633 198.993 356 198.993C333.989 198.993 297.413 194.166 275.545 182.301C264.071 199 250.328 199 240.669 199Z" fill="#E5E5E5"/>
<path d="M254.778 67.56H259.164L262.734 77.726L270.418 67.56H274.736L263.924 80.786L261.986 90H258.076L259.98 80.922L254.778 67.56ZM280.212 73.85C281.346 73.85 282.309 74.0313 283.102 74.394C283.918 74.734 284.587 75.21 285.108 75.822C285.63 76.4113 286.004 77.1027 286.23 77.896C286.48 78.6667 286.604 79.494 286.604 80.378C286.604 81.6473 286.389 82.8827 285.958 84.084C285.55 85.2853 284.938 86.362 284.122 87.314C283.306 88.2433 282.286 88.9913 281.062 89.558C279.838 90.1247 278.41 90.408 276.778 90.408C275.645 90.408 274.67 90.238 273.854 89.898C273.038 89.558 272.37 89.0933 271.848 88.504C271.327 87.9147 270.942 87.2347 270.692 86.464C270.443 85.6707 270.318 84.832 270.318 83.948C270.318 82.7013 270.534 81.4773 270.964 80.276C271.395 79.052 272.018 77.964 272.834 77.012C273.673 76.06 274.704 75.3007 275.928 74.734C277.175 74.1447 278.603 73.85 280.212 73.85ZM277.356 87.586C278.195 87.586 278.932 87.382 279.566 86.974C280.224 86.566 280.768 86.0447 281.198 85.41C281.629 84.7527 281.958 84.0273 282.184 83.234C282.411 82.418 282.524 81.602 282.524 80.786C282.524 80.242 282.468 79.732 282.354 79.256C282.241 78.7573 282.06 78.3267 281.81 77.964C281.561 77.6013 281.244 77.318 280.858 77.114C280.496 76.8873 280.042 76.774 279.498 76.774C278.66 76.774 277.923 76.978 277.288 77.386C276.654 77.794 276.121 78.3267 275.69 78.984C275.26 79.6187 274.931 80.344 274.704 81.16C274.5 81.976 274.398 82.792 274.398 83.608C274.398 84.1293 274.455 84.6393 274.568 85.138C274.682 85.614 274.852 86.0333 275.078 86.396C275.328 86.7587 275.634 87.0533 275.996 87.28C276.382 87.484 276.835 87.586 277.356 87.586ZM295.436 74.36L293.26 84.526C293.192 84.8433 293.158 85.1153 293.158 85.342C293.158 85.9993 293.339 86.5093 293.702 86.872C294.087 87.212 294.609 87.382 295.266 87.382C296.059 87.382 296.841 87.1213 297.612 86.6C298.383 86.056 299.029 85.2853 299.55 84.288L301.658 74.36H305.432L302.1 90H299.176L299.448 87.824H299.312C298.949 88.3453 298.541 88.776 298.088 89.116C297.635 89.4333 297.159 89.694 296.66 89.898C296.161 90.0793 295.651 90.204 295.13 90.272C294.609 90.3627 294.11 90.408 293.634 90.408C292.999 90.408 292.41 90.34 291.866 90.204C291.345 90.0907 290.88 89.898 290.472 89.626C290.087 89.3313 289.781 88.946 289.554 88.47C289.327 87.994 289.214 87.416 289.214 86.736C289.214 86.2373 289.282 85.6593 289.418 85.002L291.696 74.36H295.436ZM318.322 77.76C318.141 77.5787 317.812 77.4313 317.336 77.318C316.883 77.2047 316.486 77.148 316.146 77.148C315.693 77.148 315.296 77.2613 314.956 77.488C314.616 77.692 314.299 77.9753 314.004 78.338C313.709 78.678 313.437 79.0747 313.188 79.528C312.939 79.9813 312.689 80.446 312.44 80.922L310.502 90H306.762L310.094 74.36H313.018L312.474 77.624H312.61C312.95 77.148 313.29 76.6833 313.63 76.23C313.993 75.7767 314.367 75.38 314.752 75.04C315.137 74.6773 315.557 74.394 316.01 74.19C316.486 73.9633 317.007 73.85 317.574 73.85C318.481 73.85 319.263 74.1447 319.92 74.734L318.322 77.76ZM334.732 76.638C333.871 76.638 333.191 76.808 332.692 77.148C332.216 77.488 331.978 77.9527 331.978 78.542C331.978 78.814 332.08 79.0747 332.284 79.324C332.511 79.5507 332.942 79.7433 333.576 79.902L335.854 80.446C336.557 80.6273 337.135 80.8653 337.588 81.16C338.064 81.4547 338.438 81.7833 338.71 82.146C338.982 82.5087 339.164 82.894 339.254 83.302C339.368 83.6873 339.424 84.0613 339.424 84.424C339.424 85.2627 339.232 86.0447 338.846 86.77C338.484 87.4953 337.974 88.13 337.316 88.674C336.659 89.218 335.866 89.6487 334.936 89.966C334.03 90.2607 333.032 90.408 331.944 90.408C330.743 90.408 329.666 90.238 328.714 89.898C327.785 89.5353 327.06 89.1387 326.538 88.708L328.102 85.478C328.714 86.226 329.462 86.7813 330.346 87.144C331.23 87.5067 332.08 87.688 332.896 87.688C333.916 87.688 334.698 87.4613 335.242 87.008C335.786 86.5547 336.058 85.9653 336.058 85.24C336.058 84.9453 335.956 84.696 335.752 84.492C335.548 84.2653 335.174 84.084 334.63 83.948L331.57 83.132C331.004 82.9733 330.528 82.7693 330.142 82.52C329.78 82.248 329.485 81.9533 329.258 81.636C329.032 81.296 328.873 80.9447 328.782 80.582C328.692 80.2193 328.646 79.868 328.646 79.528C328.646 78.644 328.816 77.8507 329.156 77.148C329.519 76.4453 330.006 75.856 330.618 75.38C331.23 74.8813 331.956 74.5073 332.794 74.258C333.633 73.986 334.54 73.85 335.514 73.85C335.945 73.85 336.398 73.884 336.874 73.952C337.373 73.9973 337.849 74.088 338.302 74.224C338.756 74.3373 339.186 74.4847 339.594 74.666C340.002 74.8247 340.354 75.0173 340.648 75.244L339.016 78.304C338.654 77.9413 338.098 77.5787 337.35 77.216C336.602 76.8307 335.73 76.638 334.732 76.638ZM351.548 79.902L356.07 90H351.99L348.556 82.316L346.958 83.642L345.598 90H341.858L347.196 64.84H350.936L347.842 79.392L354.132 74.36H358.314L351.548 79.902ZM362.266 90H358.526L361.858 74.36H365.598L362.266 90ZM362.334 69.736C362.334 69.3733 362.413 69.022 362.572 68.682C362.753 68.342 362.98 68.036 363.252 67.764C363.546 67.492 363.864 67.2767 364.204 67.118C364.566 66.9367 364.94 66.846 365.326 66.846C365.892 66.846 366.368 67.0613 366.754 67.492C367.139 67.9227 367.332 68.4213 367.332 68.988C367.332 69.3507 367.23 69.702 367.026 70.042C366.844 70.3593 366.606 70.654 366.312 70.926C366.017 71.1753 365.688 71.3793 365.326 71.538C364.963 71.674 364.612 71.742 364.272 71.742C363.682 71.742 363.206 71.5493 362.844 71.164C362.504 70.7787 362.334 70.3027 362.334 69.736ZM370.904 90H367.164L372.502 64.84H376.242L370.904 90ZM379.703 90H375.963L381.301 64.84H385.041L379.703 90ZM392.174 76.638C391.312 76.638 390.632 76.808 390.134 77.148C389.658 77.488 389.42 77.9527 389.42 78.542C389.42 78.814 389.522 79.0747 389.726 79.324C389.952 79.5507 390.383 79.7433 391.018 79.902L393.296 80.446C393.998 80.6273 394.576 80.8653 395.03 81.16C395.506 81.4547 395.88 81.7833 396.152 82.146C396.424 82.5087 396.605 82.894 396.696 83.302C396.809 83.6873 396.866 84.0613 396.866 84.424C396.866 85.2627 396.673 86.0447 396.288 86.77C395.925 87.4953 395.415 88.13 394.758 88.674C394.1 89.218 393.307 89.6487 392.378 89.966C391.471 90.2607 390.474 90.408 389.386 90.408C388.184 90.408 387.108 90.238 386.156 89.898C385.226 89.5353 384.501 89.1387 383.98 88.708L385.544 85.478C386.156 86.226 386.904 86.7813 387.788 87.144C388.672 87.5067 389.522 87.688 390.338 87.688C391.358 87.688 392.14 87.4613 392.684 87.008C393.228 86.5547 393.5 85.9653 393.5 85.24C393.5 84.9453 393.398 84.696 393.194 84.492C392.99 84.2653 392.616 84.084 392.072 83.948L389.012 83.132C388.445 82.9733 387.969 82.7693 387.584 82.52C387.221 82.248 386.926 81.9533 386.7 81.636C386.473 81.296 386.314 80.9447 386.224 80.582C386.133 80.2193 386.088 79.868 386.088 79.528C386.088 78.644 386.258 77.8507 386.598 77.148C386.96 76.4453 387.448 75.856 388.06 75.38C388.672 74.8813 389.397 74.5073 390.236 74.258C391.074 73.986 391.981 73.85 392.956 73.85C393.386 73.85 393.84 73.884 394.316 73.952C394.814 73.9973 395.29 74.088 395.744 74.224C396.197 74.3373 396.628 74.4847 397.036 74.666C397.444 74.8247 397.795 75.0173 398.09 75.244L396.458 78.304C396.095 77.9413 395.54 77.5787 394.792 77.216C394.044 76.8307 393.171 76.638 392.174 76.638ZM425.858 74.36L422.526 90H419.534L419.704 87.858H419.568C418.774 88.5607 417.924 89.1613 417.018 89.66C416.111 90.1587 415.046 90.408 413.822 90.408C412.938 90.408 412.144 90.2493 411.442 89.932C410.739 89.592 410.15 89.1387 409.674 88.572C409.198 87.9827 408.835 87.2913 408.586 86.498C408.336 85.7047 408.212 84.8433 408.212 83.914C408.212 82.69 408.416 81.4773 408.824 80.276C409.232 79.0747 409.821 77.998 410.592 77.046C411.362 76.094 412.303 75.3233 413.414 74.734C414.547 74.1447 415.828 73.85 417.256 73.85C418.344 73.85 419.318 74.0313 420.18 74.394C421.064 74.7567 421.698 75.2667 422.084 75.924H422.22L422.934 74.36H425.858ZM414.91 87.586C415.272 87.586 415.669 87.5407 416.1 87.45C416.53 87.3367 416.961 87.1893 417.392 87.008C417.845 86.8267 418.276 86.6113 418.684 86.362C419.092 86.09 419.454 85.784 419.772 85.444L421.166 78.916C420.644 78.0773 420.066 77.5107 419.432 77.216C418.797 76.8987 418.151 76.74 417.494 76.74C416.61 76.74 415.828 76.944 415.148 77.352C414.468 77.7373 413.89 78.2587 413.414 78.916C412.938 79.5507 412.575 80.276 412.326 81.092C412.076 81.8853 411.952 82.7013 411.952 83.54C411.952 84.0613 412.008 84.5713 412.122 85.07C412.235 85.546 412.405 85.9767 412.632 86.362C412.881 86.7247 413.187 87.0193 413.55 87.246C413.935 87.4727 414.388 87.586 414.91 87.586ZM438.75 77.76C438.568 77.5787 438.24 77.4313 437.764 77.318C437.31 77.2047 436.914 77.148 436.574 77.148C436.12 77.148 435.724 77.2613 435.384 77.488C435.044 77.692 434.726 77.9753 434.432 78.338C434.137 78.678 433.865 79.0747 433.616 79.528C433.366 79.9813 433.117 80.446 432.868 80.922L430.93 90H427.19L430.522 74.36H433.446L432.902 77.624H433.038C433.378 77.148 433.718 76.6833 434.058 76.23C434.42 75.7767 434.794 75.38 435.18 75.04C435.565 74.6773 435.984 74.394 436.438 74.19C436.914 73.9633 437.435 73.85 438.002 73.85C438.908 73.85 439.69 74.1447 440.348 74.734L438.75 77.76ZM450.282 73.85C451.982 73.85 453.274 74.2467 454.158 75.04C455.042 75.8107 455.484 76.91 455.484 78.338C455.484 78.7687 455.439 79.1993 455.348 79.63C455.257 80.0607 455.133 80.4687 454.974 80.854C454.838 81.2167 454.679 81.5453 454.498 81.84C454.339 82.1347 454.192 82.3613 454.056 82.52H444.094C444.071 82.656 444.06 82.792 444.06 82.928C444.06 83.064 444.06 83.2 444.06 83.336C444.06 83.9027 444.128 84.4353 444.264 84.934C444.423 85.4327 444.649 85.8747 444.944 86.26C445.239 86.6227 445.613 86.9173 446.066 87.144C446.542 87.348 447.097 87.45 447.732 87.45C448.571 87.45 449.489 87.2913 450.486 86.974C451.483 86.6567 452.379 86.26 453.172 85.784V88.572C452.832 88.7533 452.413 88.9573 451.914 89.184C451.438 89.388 450.905 89.5807 450.316 89.762C449.749 89.9433 449.137 90.0907 448.48 90.204C447.845 90.34 447.188 90.408 446.508 90.408C445.443 90.408 444.513 90.238 443.72 89.898C442.949 89.5353 442.303 89.0593 441.782 88.47C441.261 87.8807 440.864 87.1893 440.592 86.396C440.343 85.6027 440.218 84.764 440.218 83.88C440.218 82.6107 440.456 81.3753 440.932 80.174C441.408 78.9727 442.088 77.9073 442.972 76.978C443.856 76.026 444.91 75.2667 446.134 74.7C447.381 74.1333 448.763 73.85 450.282 73.85ZM449.534 76.774C448.537 76.774 447.63 77.0573 446.814 77.624C445.998 78.168 445.352 78.916 444.876 79.868H451.506C451.574 79.7093 451.631 79.5507 451.676 79.392C451.744 79.2107 451.778 79.0293 451.778 78.848C451.778 78.236 451.574 77.7373 451.166 77.352C450.758 76.9667 450.214 76.774 449.534 76.774ZM287.268 128L289.478 117.664C289.546 117.324 289.58 117.018 289.58 116.746C289.58 115.499 288.945 114.876 287.676 114.876C287.291 114.876 286.86 114.944 286.384 115.08C285.931 115.216 285.466 115.42 284.99 115.692C284.537 115.941 284.095 116.259 283.664 116.644C283.256 117.029 282.927 117.471 282.678 117.97L280.536 128H276.796L280.128 112.36H283.052L282.712 114.672H282.848C283.528 113.72 284.423 113.017 285.534 112.564C286.645 112.088 287.778 111.85 288.934 111.85C289.569 111.85 290.158 111.918 290.702 112.054C291.269 112.19 291.756 112.417 292.164 112.734C292.572 113.029 292.889 113.425 293.116 113.924C293.365 114.4 293.49 114.989 293.49 115.692C293.49 116.191 293.422 116.746 293.286 117.358L291.008 128H287.268ZM302.425 112.36L300.249 122.526C300.181 122.843 300.147 123.115 300.147 123.342C300.147 123.999 300.329 124.509 300.691 124.872C301.077 125.212 301.598 125.382 302.255 125.382C303.049 125.382 303.831 125.121 304.601 124.6C305.372 124.056 306.018 123.285 306.539 122.288L308.647 112.36H312.421L309.089 128H306.165L306.437 125.824H306.301C305.939 126.345 305.531 126.776 305.077 127.116C304.624 127.433 304.148 127.694 303.649 127.898C303.151 128.079 302.641 128.204 302.119 128.272C301.598 128.363 301.099 128.408 300.623 128.408C299.989 128.408 299.399 128.34 298.855 128.204C298.334 128.091 297.869 127.898 297.461 127.626C297.076 127.331 296.77 126.946 296.543 126.47C296.317 125.994 296.203 125.416 296.203 124.736C296.203 124.237 296.271 123.659 296.407 123.002L298.685 112.36H302.425ZM323.883 128L326.093 117.664C326.161 117.301 326.195 116.973 326.195 116.678C326.195 115.477 325.617 114.876 324.461 114.876C324.098 114.876 323.69 114.944 323.237 115.08C322.784 115.216 322.33 115.42 321.877 115.692C321.424 115.941 320.993 116.259 320.585 116.644C320.2 117.029 319.882 117.471 319.633 117.97L317.491 128H313.751L317.083 112.36H320.007L319.667 114.672H319.803C320.46 113.72 321.333 113.017 322.421 112.564C323.509 112.088 324.608 111.85 325.719 111.85C326.784 111.85 327.702 112.054 328.473 112.462C329.266 112.87 329.776 113.584 330.003 114.604C330.66 113.675 331.522 112.983 332.587 112.53C333.675 112.077 334.763 111.85 335.851 111.85C336.463 111.85 337.03 111.918 337.551 112.054C338.095 112.19 338.56 112.405 338.945 112.7C339.353 112.995 339.67 113.391 339.897 113.89C340.124 114.366 340.237 114.955 340.237 115.658C340.237 116.179 340.169 116.746 340.033 117.358L337.755 128H334.015L336.225 117.664C336.293 117.301 336.327 116.973 336.327 116.678C336.327 115.477 335.749 114.876 334.593 114.876C334.23 114.876 333.822 114.944 333.369 115.08C332.916 115.216 332.462 115.42 332.009 115.692C331.556 115.941 331.125 116.259 330.717 116.644C330.332 117.029 330.026 117.471 329.799 117.97V117.834L327.623 128H323.883ZM352.847 111.85C354.547 111.85 355.839 112.247 356.723 113.04C357.607 113.811 358.049 114.91 358.049 116.338C358.049 116.769 358.004 117.199 357.913 117.63C357.823 118.061 357.698 118.469 357.539 118.854C357.403 119.217 357.245 119.545 357.063 119.84C356.905 120.135 356.757 120.361 356.621 120.52H346.659C346.637 120.656 346.625 120.792 346.625 120.928C346.625 121.064 346.625 121.2 346.625 121.336C346.625 121.903 346.693 122.435 346.829 122.934C346.988 123.433 347.215 123.875 347.509 124.26C347.804 124.623 348.178 124.917 348.631 125.144C349.107 125.348 349.663 125.45 350.297 125.45C351.136 125.45 352.054 125.291 353.051 124.974C354.049 124.657 354.944 124.26 355.737 123.784V126.572C355.397 126.753 354.978 126.957 354.479 127.184C354.003 127.388 353.471 127.581 352.881 127.762C352.315 127.943 351.703 128.091 351.045 128.204C350.411 128.34 349.753 128.408 349.073 128.408C348.008 128.408 347.079 128.238 346.285 127.898C345.515 127.535 344.869 127.059 344.347 126.47C343.826 125.881 343.429 125.189 343.157 124.396C342.908 123.603 342.783 122.764 342.783 121.88C342.783 120.611 343.021 119.375 343.497 118.174C343.973 116.973 344.653 115.907 345.537 114.978C346.421 114.026 347.475 113.267 348.699 112.7C349.946 112.133 351.329 111.85 352.847 111.85ZM352.099 114.774C351.102 114.774 350.195 115.057 349.379 115.624C348.563 116.168 347.917 116.916 347.441 117.868H354.071C354.139 117.709 354.196 117.551 354.241 117.392C354.309 117.211 354.343 117.029 354.343 116.848C354.343 116.236 354.139 115.737 353.731 115.352C353.323 114.967 352.779 114.774 352.099 114.774ZM370.965 115.76C370.784 115.579 370.455 115.431 369.979 115.318C369.526 115.205 369.129 115.148 368.789 115.148C368.336 115.148 367.939 115.261 367.599 115.488C367.259 115.692 366.942 115.975 366.647 116.338C366.353 116.678 366.081 117.075 365.831 117.528C365.582 117.981 365.333 118.446 365.083 118.922L363.145 128H359.405L362.737 112.36H365.661L365.117 115.624H365.253C365.593 115.148 365.933 114.683 366.273 114.23C366.636 113.777 367.01 113.38 367.395 113.04C367.781 112.677 368.2 112.394 368.653 112.19C369.129 111.963 369.651 111.85 370.217 111.85C371.124 111.85 371.906 112.145 372.563 112.734L370.965 115.76ZM382.362 111.85C383.495 111.85 384.458 112.031 385.252 112.394C386.068 112.734 386.736 113.21 387.258 113.822C387.779 114.411 388.153 115.103 388.38 115.896C388.629 116.667 388.754 117.494 388.754 118.378C388.754 119.647 388.538 120.883 388.108 122.084C387.7 123.285 387.088 124.362 386.272 125.314C385.456 126.243 384.436 126.991 383.212 127.558C381.988 128.125 380.56 128.408 378.928 128.408C377.794 128.408 376.82 128.238 376.004 127.898C375.188 127.558 374.519 127.093 373.998 126.504C373.476 125.915 373.091 125.235 372.842 124.464C372.592 123.671 372.468 122.832 372.468 121.948C372.468 120.701 372.683 119.477 373.114 118.276C373.544 117.052 374.168 115.964 374.984 115.012C375.822 114.06 376.854 113.301 378.078 112.734C379.324 112.145 380.752 111.85 382.362 111.85ZM379.506 125.586C380.344 125.586 381.081 125.382 381.716 124.974C382.373 124.566 382.917 124.045 383.348 123.41C383.778 122.753 384.107 122.027 384.334 121.234C384.56 120.418 384.674 119.602 384.674 118.786C384.674 118.242 384.617 117.732 384.504 117.256C384.39 116.757 384.209 116.327 383.96 115.964C383.71 115.601 383.393 115.318 383.008 115.114C382.645 114.887 382.192 114.774 381.648 114.774C380.809 114.774 380.072 114.978 379.438 115.386C378.803 115.794 378.27 116.327 377.84 116.984C377.409 117.619 377.08 118.344 376.854 119.16C376.65 119.976 376.548 120.792 376.548 121.608C376.548 122.129 376.604 122.639 376.718 123.138C376.831 123.614 377.001 124.033 377.228 124.396C377.477 124.759 377.783 125.053 378.146 125.28C378.531 125.484 378.984 125.586 379.506 125.586ZM397.586 112.36L395.41 122.526C395.342 122.843 395.308 123.115 395.308 123.342C395.308 123.999 395.489 124.509 395.852 124.872C396.237 125.212 396.758 125.382 397.416 125.382C398.209 125.382 398.991 125.121 399.762 124.6C400.532 124.056 401.178 123.285 401.7 122.288L403.808 112.36H407.582L404.25 128H401.326L401.598 125.824H401.462C401.099 126.345 400.691 126.776 400.238 127.116C399.784 127.433 399.308 127.694 398.81 127.898C398.311 128.079 397.801 128.204 397.28 128.272C396.758 128.363 396.26 128.408 395.784 128.408C395.149 128.408 394.56 128.34 394.016 128.204C393.494 128.091 393.03 127.898 392.622 127.626C392.236 127.331 391.93 126.946 391.704 126.47C391.477 125.994 391.364 125.416 391.364 124.736C391.364 124.237 391.432 123.659 391.568 123.002L393.846 112.36H397.586ZM416.561 114.638C415.7 114.638 415.02 114.808 414.521 115.148C414.045 115.488 413.807 115.953 413.807 116.542C413.807 116.814 413.909 117.075 414.113 117.324C414.34 117.551 414.771 117.743 415.405 117.902L417.683 118.446C418.386 118.627 418.964 118.865 419.417 119.16C419.893 119.455 420.267 119.783 420.539 120.146C420.811 120.509 420.993 120.894 421.083 121.302C421.197 121.687 421.253 122.061 421.253 122.424C421.253 123.263 421.061 124.045 420.675 124.77C420.313 125.495 419.803 126.13 419.145 126.674C418.488 127.218 417.695 127.649 416.765 127.966C415.859 128.261 414.861 128.408 413.773 128.408C412.572 128.408 411.495 128.238 410.543 127.898C409.614 127.535 408.889 127.139 408.367 126.708L409.931 123.478C410.543 124.226 411.291 124.781 412.175 125.144C413.059 125.507 413.909 125.688 414.725 125.688C415.745 125.688 416.527 125.461 417.071 125.008C417.615 124.555 417.887 123.965 417.887 123.24C417.887 122.945 417.785 122.696 417.581 122.492C417.377 122.265 417.003 122.084 416.459 121.948L413.399 121.132C412.833 120.973 412.357 120.769 411.971 120.52C411.609 120.248 411.314 119.953 411.087 119.636C410.861 119.296 410.702 118.945 410.611 118.582C410.521 118.219 410.475 117.868 410.475 117.528C410.475 116.644 410.645 115.851 410.985 115.148C411.348 114.445 411.835 113.856 412.447 113.38C413.059 112.881 413.785 112.507 414.623 112.258C415.462 111.986 416.369 111.85 417.343 111.85C417.774 111.85 418.227 111.884 418.703 111.952C419.202 111.997 419.678 112.088 420.131 112.224C420.585 112.337 421.015 112.485 421.423 112.666C421.831 112.825 422.183 113.017 422.477 113.244L420.845 116.304C420.483 115.941 419.927 115.579 419.179 115.216C418.431 114.831 417.559 114.638 416.561 114.638ZM425.761 121.88L428.583 104.812H433.241L428.719 121.88H425.761ZM423.857 126.402C423.857 126.039 423.937 125.699 424.095 125.382C424.277 125.042 424.503 124.747 424.775 124.498C425.047 124.226 425.353 124.022 425.693 123.886C426.056 123.727 426.43 123.648 426.815 123.648C427.405 123.648 427.892 123.852 428.277 124.26C428.663 124.645 428.855 125.11 428.855 125.654C428.855 126.017 428.753 126.368 428.549 126.708C428.368 127.025 428.13 127.32 427.835 127.592C427.541 127.841 427.212 128.034 426.849 128.17C426.487 128.329 426.124 128.408 425.761 128.408C425.195 128.408 424.73 128.215 424.367 127.83C424.027 127.422 423.857 126.946 423.857 126.402Z" fill="black"/>
</svg>
