<svg width="502" height="279" viewBox="0 0 502 279" fill="none" xmlns="http://www.w3.org/2000/svg">
<rect x="47.4678" y="244.425" width="31.0591" height="34.5753" rx="15" fill="#66A923"/>
<rect x="104.312" y="244.425" width="31.0591" height="34.5753" rx="15" fill="#66A923"/>
<path d="M10.3509 229.796C17.0006 239.892 28.0835 234.237 33.4032 234.237V249.113C30.3739 249.557 23.3855 247.355 17.8737 247.355C11.2239 247.355 3.67668 241.785 1.89838 236.784C-3.86467 220.577 4.81677 221.394 10.3509 229.796Z" fill="#66A923"/>
<path d="M169.011 206.04C165.267 218.23 146.292 222.547 135.371 225.965L140.637 242.081C168.426 234.462 189.013 234.99 201.885 219.519C217.973 200.18 215.07 180.255 192.121 185.823C177.338 189.409 173.692 190.804 169.011 206.04Z" fill="#66A923"/>
<mask id="mask0_90_311" style="mask-type:alpha" maskUnits="userSpaceOnUse" x="135" y="184" width="78" height="59">
<path d="M169.011 206.04C165.267 218.23 146.292 222.547 135.371 225.965L140.637 242.081C168.426 234.462 189.013 234.99 201.885 219.519C217.973 200.18 215.07 180.255 192.121 185.823C177.338 189.409 173.692 190.804 169.011 206.04Z" fill="#66A923"/>
</mask>
<g mask="url(#mask0_90_311)">
<path d="M211.808 206.227C212.087 207.598 211.81 209.024 211.037 210.19C210.265 211.356 209.062 212.168 207.691 212.447C206.32 212.726 204.895 212.449 203.728 211.677C202.562 210.905 201.75 209.701 201.471 208.331L206.639 207.279L211.808 206.227Z" fill="black"/>
</g>
<circle cx="193.973" cy="201.645" r="3.51613" fill="black"/>
<circle cx="194.559" cy="200.473" r="1.17204" fill="#005C25"/>
<path d="M37.0177 256.061C28.9014 253.309 23.2292 245.647 24.521 237.175C27.0061 220.876 33.7071 205.725 43.8663 193.858C56.9445 178.582 74.6822 170 93.1775 170C111.673 170 129.411 178.582 142.489 193.858C152.632 205.706 159.327 220.827 161.822 237.097C163.127 245.606 157.405 253.293 149.239 256.015L131.711 261.858C129.671 262.538 127.536 262.884 125.386 262.884H93.1775H60.4362C58.2516 262.884 56.0818 262.526 54.0129 261.825L37.0177 256.061Z" fill="#423C27"/>
<mask id="mask1_90_311" style="mask-type:alpha" maskUnits="userSpaceOnUse" x="24" y="170" width="139" height="93">
<path d="M37.0177 256.061C28.9014 253.309 23.2292 245.647 24.521 237.175C27.0061 220.876 33.7071 205.725 43.8663 193.858C56.9445 178.582 74.6822 170 93.1775 170C111.673 170 129.411 178.582 142.489 193.858C152.632 205.706 159.327 220.827 161.822 237.097C163.127 245.606 157.405 253.293 149.239 256.015L131.711 261.858C129.671 262.538 127.536 262.884 125.386 262.884H93.1775H60.4362C58.2516 262.884 56.0818 262.526 54.0129 261.825L37.0177 256.061Z" fill="#423C27"/>
</mask>
<g mask="url(#mask1_90_311)">
<path opacity="0.6" d="M22.2689 191.097L42.0618 202.524V225.379L22.2689 236.806L2.47603 225.379V202.524L22.2689 191.097Z" fill="#996F3F"/>
<path opacity="0.6" d="M66.8065 191.097L86.5994 202.524V225.379L66.8065 236.806L47.0136 225.379V202.524L66.8065 191.097Z" fill="#996F3F"/>
<path opacity="0.6" d="M110.172 191.097L129.965 202.524V225.379L110.172 236.806L90.3794 225.379V202.524L110.172 191.097Z" fill="#996F3F"/>
<path opacity="0.6" d="M154.71 191.097L174.503 202.524V225.379L154.71 236.806L134.917 225.379V202.524L154.71 191.097Z" fill="#996F3F"/>
<path opacity="0.6" d="M44.5377 153.005L64.3306 164.433V187.288L44.5377 198.715L24.7448 187.288V164.433L44.5377 153.005Z" fill="#996F3F"/>
<path opacity="0.6" d="M89.0753 153.005L108.868 164.433V187.288L89.0753 198.715L69.2824 187.288V164.433L89.0753 153.005Z" fill="#996F3F"/>
<path opacity="0.6" d="M132.441 153.005L152.234 164.433V187.288L132.441 198.715L112.648 187.288V164.433L132.441 153.005Z" fill="#996F3F"/>
<path opacity="0.6" d="M176.979 153.005L196.771 164.433V187.288L176.979 198.715L157.186 187.288V164.433L176.979 153.005Z" fill="#996F3F"/>
<path opacity="0.6" d="M44.5377 229.188L64.3306 240.616V263.47L44.5377 274.898L24.7448 263.47V240.616L44.5377 229.188Z" fill="#996F3F"/>
<path opacity="0.6" d="M89.0753 229.188L108.868 240.616V263.47L89.0753 274.898L69.2824 263.47V240.616L89.0753 229.188Z" fill="#996F3F"/>
<path opacity="0.6" d="M132.441 229.188L152.234 240.616V263.47L132.441 274.898L112.648 263.47V240.616L132.441 229.188Z" fill="#996F3F"/>
<path opacity="0.6" d="M176.979 229.188L196.771 240.616V263.47L176.979 274.898L157.186 263.47V240.616L176.979 229.188Z" fill="#996F3F"/>
</g>
<path d="M19.0087 244.241C20.4446 240.459 24.6748 238.556 28.457 239.992L62.6987 252.992L57.4988 266.689L23.2571 253.689C19.4748 252.253 17.5728 248.023 19.0087 244.241Z" fill="#423C27"/>
<path d="M166.871 244.862C168.255 248.664 166.295 252.867 162.493 254.251L128.075 266.778L123.065 253.011L157.482 240.484C161.284 239.1 165.487 241.06 166.871 244.862Z" fill="#423C27"/>
<rect x="57.5928" y="252.288" width="70.7925" height="14.6505" fill="#423C27"/>
<path d="M240.669 199C249.542 182.772 252.629 169.946 242.65 162.001C213.942 144.447 210 111.737 210 99.859C210 45.1087 275.366 0.724854 356 0.724854C436.633 0.724854 502 45.1087 502 99.859C502 154.609 436.633 198.993 356 198.993C333.989 198.993 297.413 194.166 275.545 182.301C264.071 199 250.328 199 240.669 199Z" fill="#E5E5E5"/>
<path d="M288.579 103.05L292.081 86.56H295.991L291.231 109H286.437L280.079 92.544L276.577 109H272.667L277.427 86.56H282.221L288.579 103.05ZM300.065 109H296.325L299.657 93.36H303.397L300.065 109ZM300.133 88.736C300.133 88.3733 300.213 88.022 300.371 87.682C300.553 87.342 300.779 87.036 301.051 86.764C301.346 86.492 301.663 86.2767 302.003 86.118C302.366 85.9367 302.74 85.846 303.125 85.846C303.692 85.846 304.168 86.0613 304.553 86.492C304.939 86.9227 305.131 87.4213 305.131 87.988C305.131 88.3507 305.029 88.702 304.825 89.042C304.644 89.3593 304.406 89.654 304.111 89.926C303.817 90.1753 303.488 90.3793 303.125 90.538C302.763 90.674 302.411 90.742 302.071 90.742C301.482 90.742 301.006 90.5493 300.643 90.164C300.303 89.7787 300.133 89.3027 300.133 88.736ZM319.38 97.236C318.949 96.8507 318.303 96.5107 317.442 96.216C316.58 95.9213 315.73 95.774 314.892 95.774C313.894 95.774 313.044 95.978 312.342 96.386C311.662 96.794 311.106 97.3153 310.676 97.95C310.245 98.5847 309.928 99.2873 309.724 100.058C309.542 100.829 309.452 101.565 309.452 102.268C309.452 103.424 309.724 104.399 310.268 105.192C310.812 105.985 311.673 106.382 312.852 106.382C313.668 106.382 314.563 106.223 315.538 105.906C316.535 105.566 317.408 105.101 318.156 104.512V107.708C317.43 108.116 316.478 108.501 315.3 108.864C314.121 109.227 312.908 109.408 311.662 109.408C310.574 109.408 309.633 109.238 308.84 108.898C308.046 108.558 307.389 108.093 306.868 107.504C306.346 106.892 305.961 106.189 305.712 105.396C305.462 104.603 305.338 103.764 305.338 102.88C305.338 101.656 305.542 100.443 305.95 99.242C306.358 98.0407 306.981 96.9753 307.82 96.046C308.658 95.094 309.712 94.3233 310.982 93.734C312.251 93.1447 313.736 92.85 315.436 92.85C316.524 92.85 317.555 92.9747 318.53 93.224C319.527 93.4733 320.298 93.802 320.842 94.21L319.38 97.236ZM331.736 92.85C333.436 92.85 334.728 93.2467 335.612 94.04C336.496 94.8107 336.938 95.91 336.938 97.338C336.938 97.7687 336.893 98.1993 336.802 98.63C336.711 99.0607 336.587 99.4687 336.428 99.854C336.292 100.217 336.133 100.545 335.952 100.84C335.793 101.135 335.646 101.361 335.51 101.52H325.548C325.525 101.656 325.514 101.792 325.514 101.928C325.514 102.064 325.514 102.2 325.514 102.336C325.514 102.903 325.582 103.435 325.718 103.934C325.877 104.433 326.103 104.875 326.398 105.26C326.693 105.623 327.067 105.917 327.52 106.144C327.996 106.348 328.551 106.45 329.186 106.45C330.025 106.45 330.943 106.291 331.94 105.974C332.937 105.657 333.833 105.26 334.626 104.784V107.572C334.286 107.753 333.867 107.957 333.368 108.184C332.892 108.388 332.359 108.581 331.77 108.762C331.203 108.943 330.591 109.091 329.934 109.204C329.299 109.34 328.642 109.408 327.962 109.408C326.897 109.408 325.967 109.238 325.174 108.898C324.403 108.535 323.757 108.059 323.236 107.47C322.715 106.881 322.318 106.189 322.046 105.396C321.797 104.603 321.672 103.764 321.672 102.88C321.672 101.611 321.91 100.375 322.386 99.174C322.862 97.9727 323.542 96.9073 324.426 95.978C325.31 95.026 326.364 94.2667 327.588 93.7C328.835 93.1333 330.217 92.85 331.736 92.85ZM330.988 95.774C329.991 95.774 329.084 96.0573 328.268 96.624C327.452 97.168 326.806 97.916 326.33 98.868H332.96C333.028 98.7093 333.085 98.5507 333.13 98.392C333.198 98.2107 333.232 98.0293 333.232 97.848C333.232 97.236 333.028 96.7373 332.62 96.352C332.212 95.9667 331.668 95.774 330.988 95.774ZM364.716 93.326L361.282 109.646C360.987 111.074 360.602 112.287 360.126 113.284C359.673 114.281 359.095 115.097 358.392 115.732C357.689 116.367 356.862 116.831 355.91 117.126C354.958 117.421 353.859 117.568 352.612 117.568C352.023 117.568 351.467 117.534 350.946 117.466C350.425 117.398 349.903 117.296 349.382 117.16C348.883 117.024 348.362 116.843 347.818 116.616C347.274 116.389 346.696 116.117 346.084 115.8L346.662 112.944C347.637 113.533 348.691 113.998 349.824 114.338C350.98 114.678 352.079 114.848 353.122 114.848C353.847 114.848 354.471 114.746 354.992 114.542C355.536 114.338 356.001 113.998 356.386 113.522C356.771 113.046 357.1 112.4 357.372 111.584C357.667 110.791 357.939 109.793 358.188 108.592L358.528 106.858C357.78 107.561 356.941 108.161 356.012 108.66C355.083 109.159 354.017 109.408 352.816 109.408C351.909 109.408 351.105 109.249 350.402 108.932C349.699 108.592 349.11 108.139 348.634 107.572C348.158 106.983 347.795 106.291 347.546 105.498C347.297 104.705 347.172 103.843 347.172 102.914C347.172 101.69 347.376 100.477 347.784 99.276C348.192 98.0747 348.781 96.998 349.552 96.046C350.323 95.094 351.263 94.3233 352.374 93.734C353.507 93.1447 354.777 92.85 356.182 92.85C357.27 92.85 358.256 93.0313 359.14 93.394C360.024 93.7567 360.659 94.2667 361.044 94.924H361.18L361.894 93.36L364.716 93.326ZM353.904 106.586C354.244 106.586 354.618 106.541 355.026 106.45C355.457 106.359 355.887 106.223 356.318 106.042C356.771 105.838 357.202 105.611 357.61 105.362C358.018 105.09 358.392 104.784 358.732 104.444L360.126 97.916C359.605 97.0773 359.015 96.5107 358.358 96.216C357.723 95.8987 357.077 95.74 356.42 95.74C355.559 95.74 354.788 95.944 354.108 96.352C353.428 96.7373 352.85 97.2473 352.374 97.882C351.898 98.5167 351.535 99.242 351.286 100.058C351.037 100.851 350.912 101.667 350.912 102.506C350.912 103.05 350.969 103.571 351.082 104.07C351.195 104.546 351.365 104.977 351.592 105.362C351.841 105.725 352.147 106.019 352.51 106.246C352.895 106.473 353.36 106.586 353.904 106.586ZM376.59 92.85C377.724 92.85 378.687 93.0313 379.48 93.394C380.296 93.734 380.965 94.21 381.486 94.822C382.008 95.4113 382.382 96.1027 382.608 96.896C382.858 97.6667 382.982 98.494 382.982 99.378C382.982 100.647 382.767 101.883 382.336 103.084C381.928 104.285 381.316 105.362 380.5 106.314C379.684 107.243 378.664 107.991 377.44 108.558C376.216 109.125 374.788 109.408 373.156 109.408C372.023 109.408 371.048 109.238 370.232 108.898C369.416 108.558 368.748 108.093 368.226 107.504C367.705 106.915 367.32 106.235 367.07 105.464C366.821 104.671 366.696 103.832 366.696 102.948C366.696 101.701 366.912 100.477 367.342 99.276C367.773 98.052 368.396 96.964 369.212 96.012C370.051 95.06 371.082 94.3007 372.306 93.734C373.553 93.1447 374.981 92.85 376.59 92.85ZM373.734 106.586C374.573 106.586 375.31 106.382 375.944 105.974C376.602 105.566 377.146 105.045 377.576 104.41C378.007 103.753 378.336 103.027 378.562 102.234C378.789 101.418 378.902 100.602 378.902 99.786C378.902 99.242 378.846 98.732 378.732 98.256C378.619 97.7573 378.438 97.3267 378.188 96.964C377.939 96.6013 377.622 96.318 377.236 96.114C376.874 95.8873 376.42 95.774 375.876 95.774C375.038 95.774 374.301 95.978 373.666 96.386C373.032 96.794 372.499 97.3267 372.068 97.984C371.638 98.6187 371.309 99.344 371.082 100.16C370.878 100.976 370.776 101.792 370.776 102.608C370.776 103.129 370.833 103.639 370.946 104.138C371.06 104.614 371.23 105.033 371.456 105.396C371.706 105.759 372.012 106.053 372.374 106.28C372.76 106.484 373.213 106.586 373.734 106.586ZM388.618 109H384.878L388.21 93.36H391.95L388.618 109ZM388.686 88.736C388.686 88.3733 388.765 88.022 388.924 87.682C389.105 87.342 389.332 87.036 389.604 86.764C389.899 86.492 390.216 86.2767 390.556 86.118C390.919 85.9367 391.293 85.846 391.678 85.846C392.245 85.846 392.721 86.0613 393.106 86.492C393.491 86.9227 393.684 87.4213 393.684 87.988C393.684 88.3507 393.582 88.702 393.378 89.042C393.197 89.3593 392.959 89.654 392.664 89.926C392.369 90.1753 392.041 90.3793 391.678 90.538C391.315 90.674 390.964 90.742 390.624 90.742C390.035 90.742 389.559 90.5493 389.196 90.164C388.856 89.7787 388.686 89.3027 388.686 88.736ZM403.75 109L405.96 98.664C406.028 98.324 406.062 98.018 406.062 97.746C406.062 96.4993 405.428 95.876 404.158 95.876C403.773 95.876 403.342 95.944 402.866 96.08C402.413 96.216 401.948 96.42 401.472 96.692C401.019 96.9413 400.577 97.2587 400.146 97.644C399.738 98.0293 399.41 98.4713 399.16 98.97L397.018 109H393.278L396.61 93.36H399.534L399.194 95.672H399.33C400.01 94.72 400.906 94.0173 402.016 93.564C403.127 93.088 404.26 92.85 405.416 92.85C406.051 92.85 406.64 92.918 407.184 93.054C407.751 93.19 408.238 93.4167 408.646 93.734C409.054 94.0287 409.372 94.4253 409.598 94.924C409.848 95.4 409.972 95.9893 409.972 96.692C409.972 97.1907 409.904 97.746 409.768 98.358L407.49 109H403.75ZM430.06 93.326L426.626 109.646C426.331 111.074 425.946 112.287 425.47 113.284C425.017 114.281 424.439 115.097 423.736 115.732C423.033 116.367 422.206 116.831 421.254 117.126C420.302 117.421 419.203 117.568 417.956 117.568C417.367 117.568 416.811 117.534 416.29 117.466C415.769 117.398 415.247 117.296 414.726 117.16C414.227 117.024 413.706 116.843 413.162 116.616C412.618 116.389 412.04 116.117 411.428 115.8L412.006 112.944C412.981 113.533 414.035 113.998 415.168 114.338C416.324 114.678 417.423 114.848 418.466 114.848C419.191 114.848 419.815 114.746 420.336 114.542C420.88 114.338 421.345 113.998 421.73 113.522C422.115 113.046 422.444 112.4 422.716 111.584C423.011 110.791 423.283 109.793 423.532 108.592L423.872 106.858C423.124 107.561 422.285 108.161 421.356 108.66C420.427 109.159 419.361 109.408 418.16 109.408C417.253 109.408 416.449 109.249 415.746 108.932C415.043 108.592 414.454 108.139 413.978 107.572C413.502 106.983 413.139 106.291 412.89 105.498C412.641 104.705 412.516 103.843 412.516 102.914C412.516 101.69 412.72 100.477 413.128 99.276C413.536 98.0747 414.125 96.998 414.896 96.046C415.667 95.094 416.607 94.3233 417.718 93.734C418.851 93.1447 420.121 92.85 421.526 92.85C422.614 92.85 423.6 93.0313 424.484 93.394C425.368 93.7567 426.003 94.2667 426.388 94.924H426.524L427.238 93.36L430.06 93.326ZM419.248 106.586C419.588 106.586 419.962 106.541 420.37 106.45C420.801 106.359 421.231 106.223 421.662 106.042C422.115 105.838 422.546 105.611 422.954 105.362C423.362 105.09 423.736 104.784 424.076 104.444L425.47 97.916C424.949 97.0773 424.359 96.5107 423.702 96.216C423.067 95.8987 422.421 95.74 421.764 95.74C420.903 95.74 420.132 95.944 419.452 96.352C418.772 96.7373 418.194 97.2473 417.718 97.882C417.242 98.5167 416.879 99.242 416.63 100.058C416.381 100.851 416.256 101.667 416.256 102.506C416.256 103.05 416.313 103.571 416.426 104.07C416.539 104.546 416.709 104.977 416.936 105.362C417.185 105.725 417.491 106.019 417.854 106.246C418.239 106.473 418.704 106.586 419.248 106.586ZM433.57 102.88L436.392 85.812H441.05L436.528 102.88H433.57ZM431.666 107.402C431.666 107.039 431.745 106.699 431.904 106.382C432.085 106.042 432.312 105.747 432.584 105.498C432.856 105.226 433.162 105.022 433.502 104.886C433.865 104.727 434.239 104.648 434.624 104.648C435.213 104.648 435.701 104.852 436.086 105.26C436.471 105.645 436.664 106.11 436.664 106.654C436.664 107.017 436.562 107.368 436.358 107.708C436.177 108.025 435.939 108.32 435.644 108.592C435.349 108.841 435.021 109.034 434.658 109.17C434.295 109.329 433.933 109.408 433.57 109.408C433.003 109.408 432.539 109.215 432.176 108.83C431.836 108.422 431.666 107.946 431.666 107.402Z" fill="black"/>
</svg>
