<svg width="502" height="279" viewBox="0 0 502 279" fill="none" xmlns="http://www.w3.org/2000/svg">
<rect x="47.4677" y="244.425" width="31.0591" height="34.5753" rx="15" fill="#66A923"/>
<rect x="104.312" y="244.425" width="31.0591" height="34.5753" rx="15" fill="#66A923"/>
<path d="M10.3509 229.796C17.0006 239.892 28.0835 234.237 33.4032 234.237V249.113C30.3739 249.557 23.3855 247.355 17.8737 247.355C11.2239 247.355 3.67668 241.785 1.89838 236.784C-3.86467 220.577 4.81677 221.394 10.3509 229.796Z" fill="#66A923"/>
<path d="M169.011 206.04C165.267 218.23 146.292 222.547 135.371 225.965L140.636 242.081C168.426 234.462 189.013 234.99 201.884 219.519C217.973 200.18 215.07 180.255 192.121 185.823C177.338 189.409 173.692 190.804 169.011 206.04Z" fill="#66A923"/>
<mask id="mask0_92_495" style="mask-type:alpha" maskUnits="userSpaceOnUse" x="135" y="184" width="78" height="59">
<path d="M169.011 206.04C165.267 218.23 146.292 222.547 135.371 225.965L140.636 242.081C168.426 234.462 189.013 234.99 201.884 219.519C217.973 200.18 215.07 180.255 192.121 185.823C177.338 189.409 173.692 190.804 169.011 206.04Z" fill="#66A923"/>
</mask>
<g mask="url(#mask0_92_495)">
<path d="M211.808 206.227C212.086 207.598 211.809 209.024 211.037 210.19C210.265 211.356 209.062 212.168 207.691 212.447C206.32 212.726 204.895 212.449 203.728 211.677C202.562 210.905 201.75 209.701 201.471 208.331L206.639 207.279L211.808 206.227Z" fill="black"/>
</g>
<circle cx="193.973" cy="201.645" r="3.51613" fill="black"/>
<circle cx="194.559" cy="200.473" r="1.17204" fill="#005C25"/>
<path d="M37.0176 256.061C28.9013 253.309 23.2291 245.647 24.5209 237.175C27.006 220.876 33.707 205.725 43.8662 193.858C56.9444 178.582 74.6821 170 93.1774 170C111.673 170 129.41 178.582 142.489 193.858C152.632 205.706 159.327 220.827 161.822 237.097C163.127 245.606 157.405 253.293 149.239 256.015L131.711 261.858C129.671 262.538 127.536 262.884 125.386 262.884H93.1774H60.4361C58.2515 262.884 56.0817 262.526 54.0128 261.825L37.0176 256.061Z" fill="#423C27"/>
<mask id="mask1_92_495" style="mask-type:alpha" maskUnits="userSpaceOnUse" x="24" y="170" width="139" height="93">
<path d="M37.0176 256.061C28.9013 253.309 23.2291 245.647 24.5209 237.175C27.006 220.876 33.707 205.725 43.8662 193.858C56.9444 178.582 74.6821 170 93.1774 170C111.673 170 129.41 178.582 142.489 193.858C152.632 205.706 159.327 220.827 161.822 237.097C163.127 245.606 157.405 253.293 149.239 256.015L131.711 261.858C129.671 262.538 127.536 262.884 125.386 262.884H93.1774H60.4361C58.2515 262.884 56.0817 262.526 54.0128 261.825L37.0176 256.061Z" fill="#423C27"/>
</mask>
<g mask="url(#mask1_92_495)">
<path opacity="0.6" d="M22.2688 191.097L42.0617 202.524V225.379L22.2688 236.806L2.47594 225.379V202.524L22.2688 191.097Z" fill="#996F3F"/>
<path opacity="0.6" d="M66.8065 191.097L86.5993 202.524V225.379L66.8065 236.806L47.0136 225.379V202.524L66.8065 191.097Z" fill="#996F3F"/>
<path opacity="0.6" d="M110.172 191.097L129.965 202.524V225.379L110.172 236.806L90.3792 225.379V202.524L110.172 191.097Z" fill="#996F3F"/>
<path opacity="0.6" d="M154.71 191.097L174.503 202.524V225.379L154.71 236.806L134.917 225.379V202.524L154.71 191.097Z" fill="#996F3F"/>
<path opacity="0.6" d="M44.5376 153.005L64.3305 164.433V187.288L44.5376 198.715L24.7448 187.288V164.433L44.5376 153.005Z" fill="#996F3F"/>
<path opacity="0.6" d="M89.0753 153.005L108.868 164.433V187.288L89.0753 198.715L69.2824 187.288V164.433L89.0753 153.005Z" fill="#996F3F"/>
<path opacity="0.6" d="M132.441 153.005L152.234 164.433V187.288L132.441 198.715L112.648 187.288V164.433L132.441 153.005Z" fill="#996F3F"/>
<path opacity="0.6" d="M176.978 153.005L196.771 164.433V187.288L176.978 198.715L157.186 187.288V164.433L176.978 153.005Z" fill="#996F3F"/>
<path opacity="0.6" d="M44.5376 229.188L64.3305 240.616V263.47L44.5376 274.898L24.7448 263.47V240.616L44.5376 229.188Z" fill="#996F3F"/>
<path opacity="0.6" d="M89.0753 229.188L108.868 240.616V263.47L89.0753 274.898L69.2824 263.47V240.616L89.0753 229.188Z" fill="#996F3F"/>
<path opacity="0.6" d="M132.441 229.188L152.234 240.616V263.47L132.441 274.898L112.648 263.47V240.616L132.441 229.188Z" fill="#996F3F"/>
<path opacity="0.6" d="M176.978 229.188L196.771 240.616V263.47L176.978 274.898L157.186 263.47V240.616L176.978 229.188Z" fill="#996F3F"/>
</g>
<path d="M19.0086 244.241C20.4445 240.459 24.6746 238.556 28.4569 239.992L62.6986 252.992L57.4986 266.689L23.2569 253.689C19.4747 252.253 17.5726 248.023 19.0086 244.241Z" fill="#423C27"/>
<path d="M166.871 244.862C168.255 248.664 166.294 252.867 162.493 254.251L128.075 266.778L123.065 253.011L157.482 240.484C161.284 239.1 165.487 241.06 166.871 244.862Z" fill="#423C27"/>
<rect x="57.5926" y="252.288" width="70.7925" height="14.6505" fill="#423C27"/>
<path d="M240.669 199C249.542 182.772 252.629 169.946 242.65 162.001C213.942 144.447 210 111.737 210 99.859C210 45.1087 275.366 0.724854 356 0.724854C436.633 0.724854 502 45.1087 502 99.859C502 154.609 436.633 198.993 356 198.993C333.989 198.993 297.413 194.166 275.545 182.301C264.071 199 250.328 199 240.669 199Z" fill="#E5E5E5"/>
<path d="M256.405 86.56H260.791L264.361 96.726L272.045 86.56H276.363L265.551 99.786L263.613 109H259.703L261.607 99.922L256.405 86.56ZM281.839 92.85C282.973 92.85 283.936 93.0313 284.729 93.394C285.545 93.734 286.214 94.21 286.735 94.822C287.257 95.4113 287.631 96.1027 287.857 96.896C288.107 97.6667 288.231 98.494 288.231 99.378C288.231 100.647 288.016 101.883 287.585 103.084C287.177 104.285 286.565 105.362 285.749 106.314C284.933 107.243 283.913 107.991 282.689 108.558C281.465 109.125 280.037 109.408 278.405 109.408C277.272 109.408 276.297 109.238 275.481 108.898C274.665 108.558 273.997 108.093 273.475 107.504C272.954 106.915 272.569 106.235 272.319 105.464C272.07 104.671 271.945 103.832 271.945 102.948C271.945 101.701 272.161 100.477 272.591 99.276C273.022 98.052 273.645 96.964 274.461 96.012C275.3 95.06 276.331 94.3007 277.555 93.734C278.802 93.1447 280.23 92.85 281.839 92.85ZM278.983 106.586C279.822 106.586 280.559 106.382 281.193 105.974C281.851 105.566 282.395 105.045 282.825 104.41C283.256 103.753 283.585 103.027 283.811 102.234C284.038 101.418 284.151 100.602 284.151 99.786C284.151 99.242 284.095 98.732 283.981 98.256C283.868 97.7573 283.687 97.3267 283.437 96.964C283.188 96.6013 282.871 96.318 282.485 96.114C282.123 95.8873 281.669 95.774 281.125 95.774C280.287 95.774 279.55 95.978 278.915 96.386C278.281 96.794 277.748 97.3267 277.317 97.984C276.887 98.6187 276.558 99.344 276.331 100.16C276.127 100.976 276.025 101.792 276.025 102.608C276.025 103.129 276.082 103.639 276.195 104.138C276.309 104.614 276.479 105.033 276.705 105.396C276.955 105.759 277.261 106.053 277.623 106.28C278.009 106.484 278.462 106.586 278.983 106.586ZM297.063 93.36L294.887 103.526C294.819 103.843 294.785 104.115 294.785 104.342C294.785 104.999 294.966 105.509 295.329 105.872C295.714 106.212 296.236 106.382 296.893 106.382C297.686 106.382 298.468 106.121 299.239 105.6C300.01 105.056 300.656 104.285 301.177 103.288L303.285 93.36H307.059L303.727 109H300.803L301.075 106.824H300.939C300.576 107.345 300.168 107.776 299.715 108.116C299.262 108.433 298.786 108.694 298.287 108.898C297.788 109.079 297.278 109.204 296.757 109.272C296.236 109.363 295.737 109.408 295.261 109.408C294.626 109.408 294.037 109.34 293.493 109.204C292.972 109.091 292.507 108.898 292.099 108.626C291.714 108.331 291.408 107.946 291.181 107.47C290.954 106.994 290.841 106.416 290.841 105.736C290.841 105.237 290.909 104.659 291.045 104.002L293.323 93.36H297.063ZM331.377 97.236C330.946 96.8507 330.3 96.5107 329.439 96.216C328.577 95.9213 327.727 95.774 326.889 95.774C325.891 95.774 325.041 95.978 324.339 96.386C323.659 96.794 323.103 97.3153 322.673 97.95C322.242 98.5847 321.925 99.2873 321.721 100.058C321.539 100.829 321.449 101.565 321.449 102.268C321.449 103.424 321.721 104.399 322.265 105.192C322.809 105.985 323.67 106.382 324.849 106.382C325.665 106.382 326.56 106.223 327.535 105.906C328.532 105.566 329.405 105.101 330.153 104.512V107.708C329.427 108.116 328.475 108.501 327.297 108.864C326.118 109.227 324.905 109.408 323.659 109.408C322.571 109.408 321.63 109.238 320.837 108.898C320.043 108.558 319.386 108.093 318.865 107.504C318.343 106.892 317.958 106.189 317.709 105.396C317.459 104.603 317.335 103.764 317.335 102.88C317.335 101.656 317.539 100.443 317.947 99.242C318.355 98.0407 318.978 96.9753 319.817 96.046C320.655 95.094 321.709 94.3233 322.979 93.734C324.248 93.1447 325.733 92.85 327.433 92.85C328.521 92.85 329.552 92.9747 330.527 93.224C331.524 93.4733 332.295 93.802 332.839 94.21L331.377 97.236ZM351.383 93.36L348.051 109H345.059L345.229 106.858H345.093C344.3 107.561 343.45 108.161 342.543 108.66C341.636 109.159 340.571 109.408 339.347 109.408C338.463 109.408 337.67 109.249 336.967 108.932C336.264 108.592 335.675 108.139 335.199 107.572C334.723 106.983 334.36 106.291 334.111 105.498C333.862 104.705 333.737 103.843 333.737 102.914C333.737 101.69 333.941 100.477 334.349 99.276C334.757 98.0747 335.346 96.998 336.117 96.046C336.888 95.094 337.828 94.3233 338.939 93.734C340.072 93.1447 341.353 92.85 342.781 92.85C343.869 92.85 344.844 93.0313 345.705 93.394C346.589 93.7567 347.224 94.2667 347.609 94.924H347.745L348.459 93.36H351.383ZM340.435 106.586C340.798 106.586 341.194 106.541 341.625 106.45C342.056 106.337 342.486 106.189 342.917 106.008C343.37 105.827 343.801 105.611 344.209 105.362C344.617 105.09 344.98 104.784 345.297 104.444L346.691 97.916C346.17 97.0773 345.592 96.5107 344.957 96.216C344.322 95.8987 343.676 95.74 343.019 95.74C342.135 95.74 341.353 95.944 340.673 96.352C339.993 96.7373 339.415 97.2587 338.939 97.916C338.463 98.5507 338.1 99.276 337.851 100.092C337.602 100.885 337.477 101.701 337.477 102.54C337.477 103.061 337.534 103.571 337.647 104.07C337.76 104.546 337.93 104.977 338.157 105.362C338.406 105.725 338.712 106.019 339.075 106.246C339.46 106.473 339.914 106.586 340.435 106.586ZM363.187 109L365.397 98.664C365.465 98.324 365.499 98.018 365.499 97.746C365.499 96.4993 364.864 95.876 363.595 95.876C363.21 95.876 362.779 95.944 362.303 96.08C361.85 96.216 361.385 96.42 360.909 96.692C360.456 96.9413 360.014 97.2587 359.583 97.644C359.175 98.0293 358.846 98.4713 358.597 98.97L356.455 109H352.715L356.047 93.36H358.971L358.631 95.672H358.767C359.447 94.72 360.342 94.0173 361.453 93.564C362.564 93.088 363.697 92.85 364.853 92.85C365.488 92.85 366.077 92.918 366.621 93.054C367.188 93.19 367.675 93.4167 368.083 93.734C368.491 94.0287 368.808 94.4253 369.035 94.924C369.284 95.4 369.409 95.9893 369.409 96.692C369.409 97.1907 369.341 97.746 369.205 98.358L366.927 109H363.187ZM385.964 109.408C385.08 109.408 384.287 109.249 383.584 108.932C382.882 108.592 382.292 108.139 381.816 107.572C381.34 106.983 380.978 106.291 380.728 105.498C380.479 104.705 380.354 103.843 380.354 102.914C380.354 101.69 380.558 100.477 380.966 99.276C381.374 98.0747 381.964 96.998 382.734 96.046C383.505 95.094 384.446 94.3233 385.556 93.734C386.69 93.1447 387.97 92.85 389.398 92.85C390.486 92.85 391.416 93.0313 392.186 93.394C392.98 93.7567 393.569 94.2667 393.954 94.924L396.3 83.84H400.006L394.668 109H391.676L391.846 106.858H391.71C390.917 107.561 390.067 108.161 389.16 108.66C388.254 109.159 387.188 109.408 385.964 109.408ZM387.052 106.586C387.415 106.586 387.812 106.541 388.242 106.45C388.673 106.337 389.104 106.189 389.534 106.008C389.988 105.827 390.418 105.611 390.826 105.362C391.234 105.09 391.597 104.784 391.914 104.444L393.308 97.916C392.787 97.0773 392.209 96.5107 391.574 96.216C390.94 95.8987 390.294 95.74 389.636 95.74C388.752 95.74 387.97 95.944 387.29 96.352C386.61 96.7373 386.032 97.2587 385.556 97.916C385.08 98.5507 384.718 99.276 384.468 100.092C384.219 100.885 384.094 101.701 384.094 102.54C384.094 103.061 384.151 103.571 384.264 104.07C384.378 104.546 384.548 104.977 384.774 105.362C385.024 105.725 385.33 106.019 385.692 106.246C386.078 106.473 386.531 106.586 387.052 106.586ZM409.771 92.85C410.904 92.85 411.868 93.0313 412.661 93.394C413.477 93.734 414.146 94.21 414.667 94.822C415.188 95.4113 415.562 96.1027 415.789 96.896C416.038 97.6667 416.163 98.494 416.163 99.378C416.163 100.647 415.948 101.883 415.517 103.084C415.109 104.285 414.497 105.362 413.681 106.314C412.865 107.243 411.845 107.991 410.621 108.558C409.397 109.125 407.969 109.408 406.337 109.408C405.204 109.408 404.229 109.238 403.413 108.898C402.597 108.558 401.928 108.093 401.407 107.504C400.886 106.915 400.5 106.235 400.251 105.464C400.002 104.671 399.877 103.832 399.877 102.948C399.877 101.701 400.092 100.477 400.523 99.276C400.954 98.052 401.577 96.964 402.393 96.012C403.232 95.06 404.263 94.3007 405.487 93.734C406.734 93.1447 408.162 92.85 409.771 92.85ZM406.915 106.586C407.754 106.586 408.49 106.382 409.125 105.974C409.782 105.566 410.326 105.045 410.757 104.41C411.188 103.753 411.516 103.027 411.743 102.234C411.97 101.418 412.083 100.602 412.083 99.786C412.083 99.242 412.026 98.732 411.913 98.256C411.8 97.7573 411.618 97.3267 411.369 96.964C411.12 96.6013 410.802 96.318 410.417 96.114C410.054 95.8873 409.601 95.774 409.057 95.774C408.218 95.774 407.482 95.978 406.847 96.386C406.212 96.794 405.68 97.3267 405.249 97.984C404.818 98.6187 404.49 99.344 404.263 100.16C404.059 100.976 403.957 101.792 403.957 102.608C403.957 103.129 404.014 103.639 404.127 104.138C404.24 104.614 404.41 105.033 404.637 105.396C404.886 105.759 405.192 106.053 405.555 106.28C405.94 106.484 406.394 106.586 406.915 106.586ZM430.133 109H426.393L429.725 93.36H433.465L430.133 109ZM430.201 88.736C430.201 88.3733 430.28 88.022 430.439 87.682C430.62 87.342 430.847 87.036 431.119 86.764C431.413 86.492 431.731 86.2767 432.071 86.118C432.433 85.9367 432.807 85.846 433.193 85.846C433.759 85.846 434.235 86.0613 434.621 86.492C435.006 86.9227 435.199 87.4213 435.199 87.988C435.199 88.3507 435.097 88.702 434.893 89.042C434.711 89.3593 434.473 89.654 434.179 89.926C433.884 90.1753 433.555 90.3793 433.193 90.538C432.83 90.674 432.479 90.742 432.139 90.742C431.549 90.742 431.073 90.5493 430.711 90.164C430.371 89.7787 430.201 89.3027 430.201 88.736ZM438.363 95.638H436.425L436.833 93.598L439.111 93.258L440.709 88.634H443.565L442.579 93.36H445.571L445.095 95.638H442.069L440.165 104.614C440.074 104.977 440.029 105.305 440.029 105.6C440.029 105.895 440.086 106.099 440.199 106.212C440.335 106.303 440.539 106.348 440.811 106.348C441.106 106.348 441.412 106.291 441.729 106.178C442.046 106.065 442.534 105.849 443.191 105.532V108.218C442.67 108.581 441.99 108.864 441.151 109.068C440.335 109.295 439.542 109.408 438.771 109.408C437.751 109.408 437.037 109.215 436.629 108.83C436.244 108.445 436.051 107.889 436.051 107.164C436.051 106.915 436.074 106.643 436.119 106.348C436.164 106.031 436.221 105.713 436.289 105.396L438.363 95.638ZM448.091 102.88L450.913 85.812H455.571L451.049 102.88H448.091ZM446.187 107.402C446.187 107.039 446.266 106.699 446.425 106.382C446.606 106.042 446.833 105.747 447.105 105.498C447.377 105.226 447.683 105.022 448.023 104.886C448.385 104.727 448.759 104.648 449.145 104.648C449.734 104.648 450.221 104.852 450.607 105.26C450.992 105.645 451.185 106.11 451.185 106.654C451.185 107.017 451.083 107.368 450.879 107.708C450.697 108.025 450.459 108.32 450.165 108.592C449.87 108.841 449.541 109.034 449.179 109.17C448.816 109.329 448.453 109.408 448.091 109.408C447.524 109.408 447.059 109.215 446.697 108.83C446.357 108.422 446.187 107.946 446.187 107.402Z" fill="black"/>
</svg>
