<svg width="213" height="109" viewBox="0 0 213 109" fill="none" xmlns="http://www.w3.org/2000/svg">
<rect x="47.4678" y="74.4247" width="31.0591" height="34.5753" rx="15" fill="#66A923"/>
<rect x="104.312" y="74.4247" width="31.0591" height="34.5753" rx="15" fill="#66A923"/>
<path d="M10.3509 59.7962C17.0006 69.8924 28.0835 64.2366 33.4032 64.2366V79.1129C30.3739 79.557 23.3855 77.3549 17.8737 77.3549C11.2239 77.3549 3.67668 71.7852 1.89838 66.7841C-3.86467 50.5768 4.81677 51.3937 10.3509 59.7962Z" fill="#66A923"/>
<path d="M169.011 36.0403C165.267 48.2296 146.292 52.5466 135.371 55.965L140.637 72.0806C168.426 64.4624 189.013 64.9898 201.885 49.5188C217.973 30.1801 215.07 10.2554 192.121 15.8226C177.338 19.4086 173.692 20.8038 169.011 36.0403Z" fill="#66A923"/>
<mask id="mask0_159_26" style="mask-type:alpha" maskUnits="userSpaceOnUse" x="135" y="14" width="78" height="59">
<path d="M169.011 36.0403C165.267 48.2296 146.292 52.5466 135.371 55.965L140.637 72.0806C168.426 64.4624 189.013 64.9898 201.885 49.5188C217.973 30.1801 215.07 10.2554 192.121 15.8226C177.338 19.4086 173.692 20.8038 169.011 36.0403Z" fill="#66A923"/>
</mask>
<g mask="url(#mask0_159_26)">
<path d="M211.808 36.2274C212.087 37.5981 211.81 39.0235 211.037 40.19C210.265 41.3564 209.062 42.1684 207.691 42.4473C206.32 42.7262 204.895 42.4492 203.728 41.6772C202.562 40.9052 201.75 39.7014 201.471 38.3307L206.639 37.2791L211.808 36.2274Z" fill="black"/>
</g>
<circle cx="193.973" cy="31.6452" r="3.51613" fill="black"/>
<circle cx="194.559" cy="30.4731" r="1.17204" fill="#005C25"/>
<path d="M37.0177 86.0613C28.9014 83.3088 23.2292 75.647 24.521 67.1747C27.0061 50.8759 33.7071 35.7249 43.8663 23.8582C56.9445 8.58205 74.6822 -7.62939e-06 93.1775 -7.62939e-06C111.673 -7.62939e-06 129.411 8.58204 142.489 23.8582C152.632 35.7059 159.327 50.8274 161.822 67.0965C163.127 75.6057 157.405 83.2932 149.239 86.0155L131.711 91.8581C129.671 92.5378 127.536 92.8844 125.386 92.8844L93.1775 92.8844H60.4362C58.2516 92.8844 56.0818 92.5265 54.0129 91.8249L37.0177 86.0613Z" fill="#423C27"/>
<mask id="mask1_159_26" style="mask-type:alpha" maskUnits="userSpaceOnUse" x="24" y="0" width="139" height="93">
<path d="M37.0177 86.0613C28.9014 83.3088 23.2292 75.647 24.521 67.1747C27.0061 50.8759 33.7071 35.7249 43.8663 23.8582C56.9445 8.58205 74.6822 -7.62939e-06 93.1775 -7.62939e-06C111.673 -7.62939e-06 129.411 8.58204 142.489 23.8582C152.632 35.7059 159.327 50.8274 161.822 67.0965C163.127 75.6057 157.405 83.2932 149.239 86.0155L131.711 91.8581C129.671 92.5378 127.536 92.8844 125.386 92.8844L93.1775 92.8844H60.4362C58.2516 92.8844 56.0818 92.5265 54.0129 91.8249L37.0177 86.0613Z" fill="#423C27"/>
</mask>
<g mask="url(#mask1_159_26)">
<path opacity="0.6" d="M22.2689 21.0968L42.0618 32.5242V55.379L22.2689 66.8064L2.47603 55.379V32.5242L22.2689 21.0968Z" fill="#996F3F"/>
<path opacity="0.6" d="M66.8065 21.0968L86.5994 32.5242V55.379L66.8065 66.8064L47.0136 55.379V32.5242L66.8065 21.0968Z" fill="#996F3F"/>
<path opacity="0.6" d="M110.172 21.0968L129.965 32.5242V55.379L110.172 66.8064L90.3794 55.379V32.5242L110.172 21.0968Z" fill="#996F3F"/>
<path opacity="0.6" d="M154.71 21.0968L174.503 32.5242V55.379L154.71 66.8064L134.917 55.379V32.5242L154.71 21.0968Z" fill="#996F3F"/>
<path opacity="0.6" d="M44.5375 -16.9946L64.3303 -5.56721V17.2876L44.5375 28.715L24.7446 17.2876V-5.56721L44.5375 -16.9946Z" fill="#996F3F"/>
<path opacity="0.6" d="M89.0755 -16.9946L108.868 -5.56721V17.2876L89.0755 28.715L69.2827 17.2876V-5.56721L89.0755 -16.9946Z" fill="#996F3F"/>
<path opacity="0.6" d="M132.441 -16.9946L152.234 -5.56721V17.2876L132.441 28.715L112.648 17.2876V-5.56721L132.441 -16.9946Z" fill="#996F3F"/>
<path opacity="0.6" d="M176.978 -16.9946L196.771 -5.56721V17.2876L176.978 28.715L157.186 17.2876V-5.56721L176.978 -16.9946Z" fill="#996F3F"/>
<path opacity="0.6" d="M44.5375 59.1882L64.3303 70.6156V93.4704L44.5375 104.898L24.7446 93.4704V70.6156L44.5375 59.1882Z" fill="#996F3F"/>
<path opacity="0.6" d="M89.0755 59.1882L108.868 70.6156V93.4704L89.0755 104.898L69.2827 93.4704V70.6156L89.0755 59.1882Z" fill="#996F3F"/>
<path opacity="0.6" d="M132.441 59.1882L152.234 70.6156V93.4704L132.441 104.898L112.648 93.4704V70.6156L132.441 59.1882Z" fill="#996F3F"/>
<path opacity="0.6" d="M176.978 59.1882L196.771 70.6156V93.4704L176.978 104.898L157.186 93.4704V70.6156L176.978 59.1882Z" fill="#996F3F"/>
</g>
<path d="M19.0084 74.2408C20.4444 70.4586 24.6745 68.5565 28.4567 69.9924L62.6985 82.9922L57.4985 96.6889L23.2568 83.6891C19.4746 82.2532 17.5725 78.023 19.0084 74.2408Z" fill="#423C27"/>
<path d="M166.871 74.862C168.255 78.6636 166.295 82.8672 162.493 84.2509L128.075 96.7778L123.065 83.0108L157.482 70.4839C161.284 69.1002 165.487 71.0603 166.871 74.862Z" fill="#423C27"/>
<rect x="57.5928" y="82.2876" width="70.7925" height="14.6505" fill="#423C27"/>
</svg>
