<svg width="446" height="52" viewBox="0 0 446 52" fill="none" xmlns="http://www.w3.org/2000/svg">
<path d="M90.88 15.736C92.224 15.48 93.696 15.288 95.296 15.16C96.928 15 98.544 14.92 100.144 14.92C101.808 14.92 103.472 15.064 105.136 15.352C106.832 15.608 108.352 16.152 109.696 16.984C111.04 17.784 112.128 18.92 112.96 20.392C113.824 21.832 114.256 23.72 114.256 26.056C114.256 28.168 113.888 29.96 113.152 31.432C112.416 32.872 111.44 34.056 110.224 34.984C109.008 35.912 107.616 36.584 106.048 37C104.512 37.416 102.912 37.624 101.248 37.624C101.088 37.624 100.832 37.624 100.48 37.624C100.128 37.624 99.76 37.624 99.376 37.624C98.992 37.592 98.608 37.56 98.224 37.528C97.872 37.496 97.616 37.464 97.456 37.432V49H90.88V15.736ZM100.672 20.584C100.032 20.584 99.424 20.616 98.848 20.68C98.272 20.712 97.808 20.76 97.456 20.824V31.72C97.584 31.752 97.776 31.784 98.032 31.816C98.288 31.848 98.56 31.88 98.848 31.912C99.136 31.912 99.408 31.912 99.664 31.912C99.952 31.912 100.16 31.912 100.288 31.912C101.152 31.912 102 31.832 102.832 31.672C103.696 31.512 104.464 31.224 105.136 30.808C105.808 30.36 106.336 29.752 106.72 28.984C107.136 28.216 107.344 27.208 107.344 25.96C107.344 24.904 107.152 24.04 106.768 23.368C106.384 22.664 105.872 22.104 105.232 21.688C104.624 21.272 103.92 20.984 103.12 20.824C102.32 20.664 101.504 20.584 100.672 20.584ZM135.67 46.936C134.71 47.704 133.398 48.36 131.734 48.904C130.102 49.416 128.358 49.672 126.502 49.672C122.63 49.672 119.798 48.552 118.006 46.312C116.214 44.04 115.318 40.936 115.318 37C115.318 32.776 116.326 29.608 118.342 27.496C120.358 25.384 123.19 24.328 126.838 24.328C128.054 24.328 129.238 24.488 130.39 24.808C131.542 25.128 132.566 25.656 133.462 26.392C134.358 27.128 135.078 28.12 135.622 29.368C136.166 30.616 136.438 32.168 136.438 34.024C136.438 34.696 136.39 35.416 136.294 36.184C136.23 36.952 136.118 37.752 135.958 38.584H121.558C121.654 40.6 122.166 42.12 123.094 43.144C124.054 44.168 125.59 44.68 127.702 44.68C129.014 44.68 130.182 44.488 131.206 44.104C132.262 43.688 133.062 43.272 133.606 42.856L135.67 46.936ZM126.742 29.32C125.11 29.32 123.894 29.816 123.094 30.808C122.326 31.768 121.862 33.064 121.702 34.696H130.63C130.758 32.968 130.486 31.64 129.814 30.712C129.174 29.784 128.15 29.32 126.742 29.32ZM155.533 49V35.368C155.533 33.416 155.245 32.008 154.669 31.144C154.125 30.28 153.181 29.848 151.837 29.848C150.653 29.848 149.645 30.2 148.813 30.904C148.013 31.576 147.437 32.424 147.085 33.448V49H140.845V25H145.789L146.509 28.168H146.701C147.437 27.144 148.413 26.248 149.629 25.48C150.845 24.712 152.413 24.328 154.333 24.328C155.517 24.328 156.573 24.488 157.501 24.808C158.429 25.128 159.213 25.656 159.853 26.392C160.493 27.128 160.973 28.136 161.293 29.416C161.613 30.664 161.773 32.216 161.773 34.072V49H155.533ZM179.286 15.736C180.63 15.48 182.102 15.288 183.702 15.16C185.334 15 186.95 14.92 188.55 14.92C190.214 14.92 191.878 15.064 193.542 15.352C195.238 15.608 196.758 16.152 198.102 16.984C199.446 17.784 200.534 18.92 201.366 20.392C202.23 21.832 202.662 23.72 202.662 26.056C202.662 28.168 202.294 29.96 201.558 31.432C200.822 32.872 199.846 34.056 198.63 34.984C197.414 35.912 196.022 36.584 194.454 37C192.918 37.416 191.318 37.624 189.654 37.624C189.494 37.624 189.238 37.624 188.886 37.624C188.534 37.624 188.166 37.624 187.782 37.624C187.398 37.592 187.014 37.56 186.63 37.528C186.278 37.496 186.022 37.464 185.862 37.432V49H179.286V15.736ZM189.078 20.584C188.438 20.584 187.83 20.616 187.254 20.68C186.678 20.712 186.214 20.76 185.862 20.824V31.72C185.99 31.752 186.182 31.784 186.438 31.816C186.694 31.848 186.966 31.88 187.254 31.912C187.542 31.912 187.814 31.912 188.07 31.912C188.358 31.912 188.566 31.912 188.694 31.912C189.558 31.912 190.406 31.832 191.238 31.672C192.102 31.512 192.87 31.224 193.542 30.808C194.214 30.36 194.742 29.752 195.126 28.984C195.542 28.216 195.75 27.208 195.75 25.96C195.75 24.904 195.558 24.04 195.174 23.368C194.79 22.664 194.278 22.104 193.638 21.688C193.03 21.272 192.326 20.984 191.526 20.824C190.726 20.664 189.91 20.584 189.078 20.584ZM205.061 26.392C206.341 25.816 207.861 25.368 209.621 25.048C211.381 24.696 213.221 24.52 215.141 24.52C216.805 24.52 218.197 24.728 219.317 25.144C220.437 25.528 221.317 26.088 221.957 26.824C222.629 27.56 223.093 28.44 223.349 29.464C223.637 30.488 223.781 31.64 223.781 32.92C223.781 34.328 223.733 35.752 223.637 37.192C223.541 38.6 223.477 39.992 223.445 41.368C223.445 42.744 223.493 44.088 223.589 45.4C223.685 46.68 223.925 47.896 224.309 49.048H219.221L218.213 45.736H217.973C217.333 46.728 216.437 47.592 215.285 48.328C214.165 49.032 212.709 49.384 210.917 49.384C209.797 49.384 208.789 49.224 207.893 48.904C206.997 48.552 206.229 48.072 205.589 47.464C204.949 46.824 204.453 46.088 204.101 45.256C203.749 44.392 203.573 43.432 203.573 42.376C203.573 40.904 203.893 39.672 204.533 38.68C205.205 37.656 206.149 36.84 207.365 36.232C208.613 35.592 210.085 35.16 211.781 34.936C213.509 34.68 215.429 34.6 217.541 34.696C217.765 32.904 217.637 31.624 217.157 30.856C216.677 30.056 215.605 29.656 213.941 29.656C212.693 29.656 211.365 29.784 209.957 30.04C208.581 30.296 207.445 30.632 206.549 31.048L205.061 26.392ZM212.981 44.248C214.229 44.248 215.221 43.976 215.957 43.432C216.693 42.856 217.237 42.248 217.589 41.608V38.488C216.597 38.392 215.637 38.376 214.709 38.44C213.813 38.504 213.013 38.648 212.309 38.872C211.605 39.096 211.045 39.416 210.629 39.832C210.213 40.248 210.005 40.776 210.005 41.416C210.005 42.312 210.261 43.016 210.773 43.528C211.317 44.008 212.053 44.248 212.981 44.248ZM235.449 40.936C235.449 42.056 235.593 42.872 235.881 43.384C236.169 43.896 236.633 44.152 237.273 44.152C237.657 44.152 238.025 44.12 238.377 44.056C238.761 43.992 239.225 43.848 239.769 43.624L240.441 48.52C239.929 48.776 239.145 49.032 238.089 49.288C237.033 49.544 235.945 49.672 234.825 49.672C233.001 49.672 231.609 49.256 230.649 48.424C229.689 47.56 229.209 46.152 229.209 44.2V15.4H235.449V40.936ZM253.063 42.376C253.063 41.736 252.791 41.224 252.247 40.84C251.703 40.456 251.031 40.104 250.231 39.784C249.431 39.464 248.551 39.144 247.591 38.824C246.631 38.472 245.751 38.008 244.951 37.432C244.151 36.824 243.479 36.072 242.935 35.176C242.391 34.248 242.119 33.064 242.119 31.624C242.119 29.256 242.823 27.448 244.231 26.2C245.639 24.952 247.671 24.328 250.327 24.328C252.151 24.328 253.799 24.52 255.271 24.904C256.743 25.288 257.895 25.72 258.727 26.2L257.335 30.712C256.599 30.424 255.671 30.12 254.551 29.8C253.431 29.48 252.295 29.32 251.143 29.32C249.287 29.32 248.359 30.04 248.359 31.48C248.359 32.056 248.631 32.52 249.175 32.872C249.719 33.224 250.391 33.56 251.191 33.88C251.991 34.168 252.871 34.488 253.831 34.84C254.791 35.192 255.671 35.656 256.471 36.232C257.271 36.776 257.943 37.496 258.487 38.392C259.031 39.288 259.303 40.44 259.303 41.848C259.303 44.28 258.519 46.2 256.951 47.608C255.415 48.984 253.095 49.672 249.991 49.672C248.295 49.672 246.695 49.448 245.191 49C243.719 48.584 242.519 48.088 241.591 47.512L243.319 42.856C244.055 43.272 245.031 43.688 246.247 44.104C247.463 44.488 248.711 44.68 249.991 44.68C250.919 44.68 251.655 44.504 252.199 44.152C252.775 43.8 253.063 43.208 253.063 42.376Z" fill="#E5E5E5"/>
<rect x="15.2417" y="40.8979" width="9.97311" height="11.1021" rx="4.98656" fill="#E5E5E5"/>
<rect x="33.4946" y="40.8979" width="9.97311" height="11.1021" rx="4.98656" fill="#E5E5E5"/>
<path d="M3.32367 36.2007C5.4589 39.4426 9.01762 37.6265 10.7258 37.6265V42.4033C9.75309 42.5459 7.50911 41.8388 5.73924 41.8388C3.604 41.8388 1.18058 40.0503 0.60957 38.4445C-1.24095 33.2403 1.54667 33.5026 3.32367 36.2007Z" fill="#E5E5E5"/>
<path d="M54.2697 26.5726C53.0674 30.4866 46.9745 31.8728 43.4678 32.9704L45.1585 38.1452C54.0818 35.6989 60.6924 35.8683 64.8253 30.9006C69.9914 24.6909 69.0592 18.293 61.6901 20.0807C56.9435 21.2322 55.7726 21.6801 54.2697 26.5726Z" fill="#E5E5E5"/>
<circle cx="62.2848" cy="25.1613" r="1.12903" fill="#005C25"/>
<path d="M16.3224 46.1388C11.0642 44.3556 7.24977 39.3021 8.9392 34.013C10.0505 30.5339 11.794 27.3372 14.0852 24.6609C18.2846 19.7557 23.9802 17 29.9191 17C35.8579 17 41.5535 19.7557 45.7529 24.6609C48.0059 27.2925 49.7291 30.4271 50.8426 33.8387C52.5976 39.2156 48.6922 44.3623 43.3264 46.1509C41.9866 46.5976 40.5834 46.8253 39.1711 46.8253H29.9191L20.4838 46.8253C19.0685 46.8253 17.6627 46.5934 16.3224 46.1388Z" fill="#005C25"/>
<mask id="mask0_159_2" style="mask-type:alpha" maskUnits="userSpaceOnUse" x="8" y="17" width="44" height="30">
<path d="M16.3224 46.1388C11.0642 44.3556 7.24977 39.3021 8.9392 34.013C10.0505 30.5339 11.794 27.3372 14.0852 24.6609C18.2846 19.7557 23.9802 17 29.9191 17C35.8579 17 41.5535 19.7557 45.7529 24.6609C48.0059 27.2925 49.7291 30.4271 50.8426 33.8387C52.5976 39.2156 48.6922 44.3623 43.3264 46.1509C41.9866 46.5976 40.5834 46.8253 39.1711 46.8253H29.9191L20.4838 46.8253C19.0685 46.8253 17.6627 46.5934 16.3224 46.1388Z" fill="#E5E5E5"/>
</mask>
<g mask="url(#mask0_159_2)">
<path d="M22 25.0001L28.0622 28.5001V35.5001L22 39.0001L15.9378 35.5001V28.5001L22 25.0001Z" fill="#E5E5E5"/>
<path d="M8 25.0001L14.0622 28.5001V35.5001L8 39.0001L1.93782 35.5001V28.5001L8 25.0001Z" fill="#E5E5E5"/>
<path d="M36 25.0001L42.0622 28.5001V35.5001L36 39.0001L29.9378 35.5001V28.5001L36 25.0001Z" fill="#E5E5E5"/>
<path d="M50 25.0001L56.0622 28.5001V35.5001L50 39.0001L43.9378 35.5001V28.5001L50 25.0001Z" fill="#E5E5E5"/>
<path d="M15 13.0001L21.0622 16.5001V23.5001L15 27.0001L8.93782 23.5001V16.5001L15 13.0001Z" fill="#E5E5E5"/>
<path d="M29 13.0001L35.0622 16.5001V23.5001L29 27.0001L22.9378 23.5001V16.5001L29 13.0001Z" fill="#E5E5E5"/>
<path d="M43 13.0001L49.0622 16.5001V23.5001L43 27.0001L36.9378 23.5001V16.5001L43 13.0001Z" fill="#E5E5E5"/>
<path d="M29 37.0001L35.0622 40.5001V47.5001L29 51.0001L22.9378 47.5001V40.5001L29 37.0001Z" fill="#E5E5E5"/>
<path d="M15 37.0001L21.0622 40.5001V47.5001L15 51.0001L8.93782 47.5001V40.5001L15 37.0001Z" fill="#E5E5E5"/>
<path d="M43 37.0001L49.0622 40.5001V47.5001L43 51.0001L36.9378 47.5001V40.5001L43 37.0001Z" fill="#E5E5E5"/>
</g>
<path d="M8.05282 32.6217C7.55343 35.1893 10.6496 45.1514 15.0442 45.973C20.5375 47.0001 24.0332 47.0001 25.5313 47.0001C26.7299 47.0001 31.3575 47.0001 33.5215 47.0001C36.3514 47.0001 43.5092 45.973 43.5092 45.973C43.5092 45.973 50.0012 43.919 51 38.2703C51 35.3604 50.201 28.4109 49.0025 28.0001" stroke="#005C25" stroke-width="1.5"/>
</svg>
