<svg width="502" height="279" viewBox="0 0 502 279" fill="none" xmlns="http://www.w3.org/2000/svg">
<rect x="47.4678" y="244.425" width="31.0591" height="34.5753" rx="15" fill="#66A923"/>
<rect x="104.312" y="244.425" width="31.0591" height="34.5753" rx="15" fill="#66A923"/>
<path d="M10.3509 229.796C17.0006 239.892 28.0835 234.237 33.4032 234.237V249.113C30.3739 249.557 23.3855 247.355 17.8737 247.355C11.2239 247.355 3.67668 241.785 1.89838 236.784C-3.86467 220.577 4.81677 221.394 10.3509 229.796Z" fill="#66A923"/>
<path d="M169.011 206.04C165.267 218.23 146.292 222.547 135.371 225.965L140.637 242.081C168.426 234.462 189.013 234.99 201.885 219.519C217.973 200.18 215.07 180.255 192.121 185.823C177.338 189.409 173.692 190.804 169.011 206.04Z" fill="#66A923"/>
<mask id="mask0_92_1237" style="mask-type:alpha" maskUnits="userSpaceOnUse" x="135" y="184" width="78" height="59">
<path d="M169.011 206.04C165.267 218.23 146.292 222.547 135.371 225.965L140.637 242.081C168.426 234.462 189.013 234.99 201.885 219.519C217.973 200.18 215.07 180.255 192.121 185.823C177.338 189.409 173.692 190.804 169.011 206.04Z" fill="#66A923"/>
</mask>
<g mask="url(#mask0_92_1237)">
<path d="M211.808 206.227C212.087 207.598 211.81 209.024 211.037 210.19C210.265 211.356 209.062 212.168 207.691 212.447C206.32 212.726 204.895 212.449 203.728 211.677C202.562 210.905 201.75 209.701 201.471 208.331L206.639 207.279L211.808 206.227Z" fill="black"/>
</g>
<circle cx="193.973" cy="201.645" r="3.51613" fill="black"/>
<circle cx="194.559" cy="200.473" r="1.17204" fill="#005C25"/>
<path d="M37.0177 256.061C28.9014 253.309 23.2292 245.647 24.521 237.175C27.0061 220.876 33.7071 205.725 43.8663 193.858C56.9445 178.582 74.6822 170 93.1775 170C111.673 170 129.411 178.582 142.489 193.858C152.632 205.706 159.327 220.827 161.822 237.097C163.127 245.606 157.405 253.293 149.239 256.015L131.711 261.858C129.671 262.538 127.536 262.884 125.386 262.884H93.1775H60.4362C58.2516 262.884 56.0818 262.526 54.0129 261.825L37.0177 256.061Z" fill="#423C27"/>
<mask id="mask1_92_1237" style="mask-type:alpha" maskUnits="userSpaceOnUse" x="24" y="170" width="139" height="93">
<path d="M37.0177 256.061C28.9014 253.309 23.2292 245.647 24.521 237.175C27.0061 220.876 33.7071 205.725 43.8663 193.858C56.9445 178.582 74.6822 170 93.1775 170C111.673 170 129.411 178.582 142.489 193.858C152.632 205.706 159.327 220.827 161.822 237.097C163.127 245.606 157.405 253.293 149.239 256.015L131.711 261.858C129.671 262.538 127.536 262.884 125.386 262.884H93.1775H60.4362C58.2516 262.884 56.0818 262.526 54.0129 261.825L37.0177 256.061Z" fill="#423C27"/>
</mask>
<g mask="url(#mask1_92_1237)">
<path opacity="0.6" d="M22.2689 191.097L42.0618 202.524V225.379L22.2689 236.806L2.47603 225.379V202.524L22.2689 191.097Z" fill="#996F3F"/>
<path opacity="0.6" d="M66.8065 191.097L86.5994 202.524V225.379L66.8065 236.806L47.0136 225.379V202.524L66.8065 191.097Z" fill="#996F3F"/>
<path opacity="0.6" d="M110.172 191.097L129.965 202.524V225.379L110.172 236.806L90.3794 225.379V202.524L110.172 191.097Z" fill="#996F3F"/>
<path opacity="0.6" d="M154.71 191.097L174.503 202.524V225.379L154.71 236.806L134.917 225.379V202.524L154.71 191.097Z" fill="#996F3F"/>
<path opacity="0.6" d="M44.5375 153.005L64.3303 164.433V187.288L44.5375 198.715L24.7446 187.288V164.433L44.5375 153.005Z" fill="#996F3F"/>
<path opacity="0.6" d="M89.0755 153.005L108.868 164.433V187.288L89.0755 198.715L69.2827 187.288V164.433L89.0755 153.005Z" fill="#996F3F"/>
<path opacity="0.6" d="M132.441 153.005L152.234 164.433V187.288L132.441 198.715L112.648 187.288V164.433L132.441 153.005Z" fill="#996F3F"/>
<path opacity="0.6" d="M176.978 153.005L196.771 164.433V187.288L176.978 198.715L157.186 187.288V164.433L176.978 153.005Z" fill="#996F3F"/>
<path opacity="0.6" d="M44.5375 229.188L64.3303 240.616V263.47L44.5375 274.898L24.7446 263.47V240.616L44.5375 229.188Z" fill="#996F3F"/>
<path opacity="0.6" d="M89.0755 229.188L108.868 240.616V263.47L89.0755 274.898L69.2827 263.47V240.616L89.0755 229.188Z" fill="#996F3F"/>
<path opacity="0.6" d="M132.441 229.188L152.234 240.616V263.47L132.441 274.898L112.648 263.47V240.616L132.441 229.188Z" fill="#996F3F"/>
<path opacity="0.6" d="M176.978 229.188L196.771 240.616V263.47L176.978 274.898L157.186 263.47V240.616L176.978 229.188Z" fill="#996F3F"/>
</g>
<path d="M19.0084 244.241C20.4444 240.459 24.6745 238.556 28.4567 239.992L62.6985 252.992L57.4985 266.689L23.2568 253.689C19.4746 252.253 17.5725 248.023 19.0084 244.241Z" fill="#423C27"/>
<path d="M166.871 244.862C168.255 248.664 166.295 252.867 162.493 254.251L128.075 266.778L123.065 253.011L157.482 240.484C161.284 239.1 165.487 241.06 166.871 244.862Z" fill="#423C27"/>
<rect x="57.5928" y="252.288" width="70.7925" height="14.6505" fill="#423C27"/>
<path d="M240.669 199C249.542 182.772 252.629 169.946 242.65 162.001C213.942 144.447 210 111.737 210 99.859C210 45.1087 275.366 0.724854 356 0.724854C436.633 0.724854 502 45.1087 502 99.859C502 154.609 436.633 198.993 356 198.993C333.989 198.993 297.413 194.166 275.545 182.301C264.071 199 250.328 199 240.669 199Z" fill="#E5E5E5"/>
<path d="M266.683 91H262.433L261.243 84.472H252.777L249.105 91H245.025L258.489 68.56H261.855L266.683 91ZM254.511 81.412H260.699L259.203 73.15L254.511 81.412ZM279.599 91H275.859L281.197 65.84H284.937L279.599 91ZM302.678 75.36L299.346 91H296.354L296.524 88.858H296.388C295.595 89.5607 294.745 90.1613 293.838 90.66C292.931 91.1587 291.866 91.408 290.642 91.408C289.758 91.408 288.965 91.2493 288.262 90.932C287.559 90.592 286.97 90.1387 286.494 89.572C286.018 88.9827 285.655 88.2913 285.406 87.498C285.157 86.7047 285.032 85.8433 285.032 84.914C285.032 83.69 285.236 82.4773 285.644 81.276C286.052 80.0747 286.641 78.998 287.412 78.046C288.183 77.094 289.123 76.3233 290.234 75.734C291.367 75.1447 292.648 74.85 294.076 74.85C295.164 74.85 296.139 75.0313 297 75.394C297.884 75.7567 298.519 76.2667 298.904 76.924H299.04L299.754 75.36H302.678ZM291.73 88.586C292.093 88.586 292.489 88.5407 292.92 88.45C293.351 88.3367 293.781 88.1893 294.212 88.008C294.665 87.8267 295.096 87.6113 295.504 87.362C295.912 87.09 296.275 86.784 296.592 86.444L297.986 79.916C297.465 79.0773 296.887 78.5107 296.252 78.216C295.617 77.8987 294.971 77.74 294.314 77.74C293.43 77.74 292.648 77.944 291.968 78.352C291.288 78.7373 290.71 79.2587 290.234 79.916C289.758 80.5507 289.395 81.276 289.146 82.092C288.897 82.8853 288.772 83.7013 288.772 84.54C288.772 85.0613 288.829 85.5713 288.942 86.07C289.055 86.546 289.225 86.9767 289.452 87.362C289.701 87.7247 290.007 88.0193 290.37 88.246C290.755 88.4727 291.209 88.586 291.73 88.586ZM315.57 78.76C315.389 78.5787 315.06 78.4313 314.584 78.318C314.131 78.2047 313.734 78.148 313.394 78.148C312.941 78.148 312.544 78.2613 312.204 78.488C311.864 78.692 311.547 78.9753 311.252 79.338C310.957 79.678 310.685 80.0747 310.436 80.528C310.187 80.9813 309.937 81.446 309.688 81.922L307.75 91H304.01L307.342 75.36H310.266L309.722 78.624H309.858C310.198 78.148 310.538 77.6833 310.878 77.23C311.241 76.7767 311.615 76.38 312 76.04C312.385 75.6773 312.805 75.394 313.258 75.19C313.734 74.9633 314.255 74.85 314.822 74.85C315.729 74.85 316.511 75.1447 317.168 75.734L315.57 78.76ZM334.616 75.326L331.182 91.646C330.887 93.074 330.502 94.2867 330.026 95.284C329.572 96.2813 328.994 97.0973 328.292 97.732C327.589 98.3667 326.762 98.8313 325.81 99.126C324.858 99.4207 323.758 99.568 322.512 99.568C321.922 99.568 321.367 99.534 320.846 99.466C320.324 99.398 319.803 99.296 319.282 99.16C318.783 99.024 318.262 98.8427 317.718 98.616C317.174 98.3893 316.596 98.1173 315.983 97.8L316.562 94.944C317.536 95.5333 318.59 95.998 319.724 96.338C320.88 96.678 321.979 96.848 323.022 96.848C323.747 96.848 324.37 96.746 324.892 96.542C325.436 96.338 325.9 95.998 326.286 95.522C326.671 95.046 327 94.4 327.272 93.584C327.566 92.7907 327.838 91.7933 328.088 90.592L328.428 88.858C327.68 89.5607 326.841 90.1613 325.912 90.66C324.982 91.1587 323.917 91.408 322.716 91.408C321.809 91.408 321.004 91.2493 320.302 90.932C319.599 90.592 319.01 90.1387 318.534 89.572C318.058 88.9827 317.695 88.2913 317.446 87.498C317.196 86.7047 317.072 85.8433 317.072 84.914C317.072 83.69 317.276 82.4773 317.684 81.276C318.092 80.0747 318.681 78.998 319.452 78.046C320.222 77.094 321.163 76.3233 322.274 75.734C323.407 75.1447 324.676 74.85 326.082 74.85C327.17 74.85 328.156 75.0313 329.04 75.394C329.924 75.7567 330.558 76.2667 330.944 76.924H331.08L331.794 75.36L334.616 75.326ZM323.804 88.586C324.144 88.586 324.518 88.5407 324.925 88.45C325.356 88.3593 325.787 88.2233 326.218 88.042C326.671 87.838 327.102 87.6113 327.51 87.362C327.918 87.09 328.292 86.784 328.632 86.444L330.026 79.916C329.504 79.0773 328.915 78.5107 328.258 78.216C327.623 77.8987 326.977 77.74 326.32 77.74C325.458 77.74 324.688 77.944 324.008 78.352C323.328 78.7373 322.75 79.2473 322.274 79.882C321.798 80.5167 321.435 81.242 321.185 82.058C320.936 82.8513 320.812 83.6673 320.812 84.506C320.812 85.05 320.868 85.5713 320.982 86.07C321.095 86.546 321.265 86.9767 321.492 87.362C321.741 87.7247 322.047 88.0193 322.41 88.246C322.795 88.4727 323.26 88.586 323.804 88.586ZM346.626 74.85C348.326 74.85 349.618 75.2467 350.502 76.04C351.386 76.8107 351.828 77.91 351.828 79.338C351.828 79.7687 351.782 80.1993 351.692 80.63C351.601 81.0607 351.476 81.4687 351.318 81.854C351.182 82.2167 351.023 82.5453 350.842 82.84C350.683 83.1347 350.536 83.3613 350.4 83.52H340.438C340.415 83.656 340.404 83.792 340.404 83.928C340.404 84.064 340.404 84.2 340.404 84.336C340.404 84.9027 340.472 85.4353 340.608 85.934C340.766 86.4327 340.993 86.8747 341.288 87.26C341.582 87.6227 341.956 87.9173 342.41 88.144C342.886 88.348 343.441 88.45 344.076 88.45C344.914 88.45 345.832 88.2913 346.83 87.974C347.827 87.6567 348.722 87.26 349.516 86.784V89.572C349.176 89.7533 348.756 89.9573 348.258 90.184C347.782 90.388 347.249 90.5807 346.66 90.762C346.093 90.9433 345.481 91.0907 344.824 91.204C344.189 91.34 343.532 91.408 342.852 91.408C341.786 91.408 340.857 91.238 340.064 90.898C339.293 90.5353 338.647 90.0593 338.126 89.47C337.604 88.8807 337.208 88.1893 336.936 87.396C336.686 86.6027 336.562 85.764 336.562 84.88C336.562 83.6107 336.8 82.3753 337.276 81.174C337.752 79.9727 338.432 78.9073 339.316 77.978C340.2 77.026 341.254 76.2667 342.478 75.7C343.724 75.1333 345.107 74.85 346.626 74.85ZM345.878 77.774C344.88 77.774 343.974 78.0573 343.158 78.624C342.342 79.168 341.696 79.916 341.22 80.868H347.85C347.918 80.7093 347.974 80.5507 348.02 80.392C348.088 80.2107 348.122 80.0293 348.122 79.848C348.122 79.236 347.918 78.7373 347.51 78.352C347.102 77.9667 346.558 77.774 345.878 77.774ZM367.74 91.408C366.856 91.408 366.062 91.2493 365.36 90.932C364.657 90.592 364.068 90.1387 363.592 89.572C363.116 88.9827 362.753 88.2913 362.504 87.498C362.254 86.7047 362.13 85.8433 362.13 84.914C362.13 83.69 362.334 82.4773 362.742 81.276C363.15 80.0747 363.739 78.998 364.51 78.046C365.28 77.094 366.221 76.3233 367.332 75.734C368.465 75.1447 369.746 74.85 371.174 74.85C372.262 74.85 373.191 75.0313 373.962 75.394C374.755 75.7567 375.344 76.2667 375.73 76.924L378.076 65.84H381.782L376.444 91H373.452L373.622 88.858H373.486C372.692 89.5607 371.842 90.1613 370.936 90.66C370.029 91.1587 368.964 91.408 367.74 91.408ZM368.828 88.586C369.19 88.586 369.587 88.5407 370.018 88.45C370.448 88.3367 370.879 88.1893 371.31 88.008C371.763 87.8267 372.194 87.6113 372.602 87.362C373.01 87.09 373.372 86.784 373.69 86.444L375.084 79.916C374.562 79.0773 373.984 78.5107 373.35 78.216C372.715 77.8987 372.069 77.74 371.412 77.74C370.528 77.74 369.746 77.944 369.066 78.352C368.386 78.7373 367.808 79.2587 367.332 79.916C366.856 80.5507 366.493 81.276 366.244 82.092C365.994 82.8853 365.87 83.7013 365.87 84.54C365.87 85.0613 365.926 85.5713 366.04 86.07C366.153 86.546 366.323 86.9767 366.55 87.362C366.799 87.7247 367.105 88.0193 367.468 88.246C367.853 88.4727 368.306 88.586 368.828 88.586ZM391.682 74.85C393.382 74.85 394.674 75.2467 395.558 76.04C396.442 76.8107 396.884 77.91 396.884 79.338C396.884 79.7687 396.839 80.1993 396.748 80.63C396.658 81.0607 396.533 81.4687 396.374 81.854C396.238 82.2167 396.08 82.5453 395.898 82.84C395.74 83.1347 395.592 83.3613 395.456 83.52H385.494C385.472 83.656 385.46 83.792 385.46 83.928C385.46 84.064 385.46 84.2 385.46 84.336C385.46 84.9027 385.528 85.4353 385.664 85.934C385.823 86.4327 386.05 86.8747 386.344 87.26C386.639 87.6227 387.013 87.9173 387.466 88.144C387.942 88.348 388.498 88.45 389.132 88.45C389.971 88.45 390.889 88.2913 391.886 87.974C392.884 87.6567 393.779 87.26 394.572 86.784V89.572C394.232 89.7533 393.813 89.9573 393.314 90.184C392.838 90.388 392.306 90.5807 391.716 90.762C391.15 90.9433 390.538 91.0907 389.88 91.204C389.246 91.34 388.588 91.408 387.908 91.408C386.843 91.408 385.914 91.238 385.12 90.898C384.35 90.5353 383.704 90.0593 383.182 89.47C382.661 88.8807 382.264 88.1893 381.992 87.396C381.743 86.6027 381.618 85.764 381.618 84.88C381.618 83.6107 381.856 82.3753 382.332 81.174C382.808 79.9727 383.488 78.9073 384.372 77.978C385.256 77.026 386.31 76.2667 387.534 75.7C388.781 75.1333 390.164 74.85 391.682 74.85ZM390.934 77.774C389.937 77.774 389.03 78.0573 388.214 78.624C387.398 79.168 386.752 79.916 386.276 80.868H392.906C392.974 80.7093 393.031 80.5507 393.076 80.392C393.144 80.2107 393.178 80.0293 393.178 79.848C393.178 79.236 392.974 78.7373 392.566 78.352C392.158 77.9667 391.614 77.774 390.934 77.774ZM416.328 75.326L412.894 91.646C412.6 93.074 412.214 94.2867 411.738 95.284C411.285 96.2813 410.707 97.0973 410.004 97.732C409.302 98.3667 408.474 98.8313 407.522 99.126C406.57 99.4207 405.471 99.568 404.224 99.568C403.635 99.568 403.08 99.534 402.558 99.466C402.037 99.398 401.516 99.296 400.994 99.16C400.496 99.024 399.974 98.8427 399.43 98.616C398.886 98.3893 398.308 98.1173 397.696 97.8L398.274 94.944C399.249 95.5333 400.303 95.998 401.436 96.338C402.592 96.678 403.692 96.848 404.734 96.848C405.46 96.848 406.083 96.746 406.604 96.542C407.148 96.338 407.613 95.998 407.998 95.522C408.384 95.046 408.712 94.4 408.984 93.584C409.279 92.7907 409.551 91.7933 409.8 90.592L410.14 88.858C409.392 89.5607 408.554 90.1613 407.624 90.66C406.695 91.1587 405.63 91.408 404.428 91.408C403.522 91.408 402.717 91.2493 402.014 90.932C401.312 90.592 400.722 90.1387 400.246 89.572C399.77 88.9827 399.408 88.2913 399.158 87.498C398.909 86.7047 398.784 85.8433 398.784 84.914C398.784 83.69 398.988 82.4773 399.396 81.276C399.804 80.0747 400.394 78.998 401.164 78.046C401.935 77.094 402.876 76.3233 403.986 75.734C405.12 75.1447 406.389 74.85 407.794 74.85C408.882 74.85 409.868 75.0313 410.752 75.394C411.636 75.7567 412.271 76.2667 412.656 76.924H412.792L413.506 75.36L416.328 75.326ZM405.516 88.586C405.856 88.586 406.23 88.5407 406.638 88.45C407.069 88.3593 407.5 88.2233 407.93 88.042C408.384 87.838 408.814 87.6113 409.222 87.362C409.63 87.09 410.004 86.784 410.344 86.444L411.738 79.916C411.217 79.0773 410.628 78.5107 409.97 78.216C409.336 77.8987 408.69 77.74 408.032 77.74C407.171 77.74 406.4 77.944 405.72 78.352C405.04 78.7373 404.462 79.2473 403.986 79.882C403.51 80.5167 403.148 81.242 402.898 82.058C402.649 82.8513 402.524 83.6673 402.524 84.506C402.524 85.05 402.581 85.5713 402.694 86.07C402.808 86.546 402.978 86.9767 403.204 87.362C403.454 87.7247 403.76 88.0193 404.122 88.246C404.508 88.4727 404.972 88.586 405.516 88.586ZM429.291 78.76C429.109 78.5787 428.781 78.4313 428.305 78.318C427.851 78.2047 427.455 78.148 427.115 78.148C426.661 78.148 426.265 78.2613 425.925 78.488C425.585 78.692 425.267 78.9753 424.973 79.338C424.678 79.678 424.406 80.0747 424.157 80.528C423.907 80.9813 423.658 81.446 423.409 81.922L421.471 91H417.731L421.063 75.36H423.987L423.443 78.624H423.579C423.919 78.148 424.259 77.6833 424.599 77.23C424.961 76.7767 425.335 76.38 425.721 76.04C426.106 75.6773 426.525 75.394 426.979 75.19C427.455 74.9633 427.976 74.85 428.543 74.85C429.449 74.85 430.231 75.1447 430.889 75.734L429.291 78.76ZM440.823 74.85C442.523 74.85 443.815 75.2467 444.699 76.04C445.583 76.8107 446.025 77.91 446.025 79.338C446.025 79.7687 445.98 80.1993 445.889 80.63C445.798 81.0607 445.674 81.4687 445.515 81.854C445.379 82.2167 445.22 82.5453 445.039 82.84C444.88 83.1347 444.733 83.3613 444.597 83.52H434.635C434.612 83.656 434.601 83.792 434.601 83.928C434.601 84.064 434.601 84.2 434.601 84.336C434.601 84.9027 434.669 85.4353 434.805 85.934C434.964 86.4327 435.19 86.8747 435.485 87.26C435.78 87.6227 436.154 87.9173 436.607 88.144C437.083 88.348 437.638 88.45 438.273 88.45C439.112 88.45 440.03 88.2913 441.027 87.974C442.024 87.6567 442.92 87.26 443.713 86.784V89.572C443.373 89.7533 442.954 89.9573 442.455 90.184C441.979 90.388 441.446 90.5807 440.857 90.762C440.29 90.9433 439.678 91.0907 439.021 91.204C438.386 91.34 437.729 91.408 437.049 91.408C435.984 91.408 435.054 91.238 434.261 90.898C433.49 90.5353 432.844 90.0593 432.323 89.47C431.802 88.8807 431.405 88.1893 431.133 87.396C430.884 86.6027 430.759 85.764 430.759 84.88C430.759 83.6107 430.997 82.3753 431.473 81.174C431.949 79.9727 432.629 78.9073 433.513 77.978C434.397 77.026 435.451 76.2667 436.675 75.7C437.922 75.1333 439.304 74.85 440.823 74.85ZM440.075 77.774C439.078 77.774 438.171 78.0573 437.355 78.624C436.539 79.168 435.893 79.916 435.417 80.868H442.047C442.115 80.7093 442.172 80.5507 442.217 80.392C442.285 80.2107 442.319 80.0293 442.319 79.848C442.319 79.236 442.115 78.7373 441.707 78.352C441.299 77.9667 440.755 77.774 440.075 77.774ZM457.989 74.85C459.689 74.85 460.981 75.2467 461.865 76.04C462.749 76.8107 463.191 77.91 463.191 79.338C463.191 79.7687 463.146 80.1993 463.055 80.63C462.964 81.0607 462.84 81.4687 462.681 81.854C462.545 82.2167 462.386 82.5453 462.205 82.84C462.046 83.1347 461.899 83.3613 461.763 83.52H451.801C451.778 83.656 451.767 83.792 451.767 83.928C451.767 84.064 451.767 84.2 451.767 84.336C451.767 84.9027 451.835 85.4353 451.971 85.934C452.13 86.4327 452.356 86.8747 452.651 87.26C452.946 87.6227 453.32 87.9173 453.773 88.144C454.249 88.348 454.804 88.45 455.439 88.45C456.278 88.45 457.196 88.2913 458.193 87.974C459.19 87.6567 460.086 87.26 460.879 86.784V89.572C460.539 89.7533 460.12 89.9573 459.621 90.184C459.145 90.388 458.612 90.5807 458.023 90.762C457.456 90.9433 456.844 91.0907 456.187 91.204C455.552 91.34 454.895 91.408 454.215 91.408C453.15 91.408 452.22 91.238 451.427 90.898C450.656 90.5353 450.01 90.0593 449.489 89.47C448.968 88.8807 448.571 88.1893 448.299 87.396C448.05 86.6027 447.925 85.764 447.925 84.88C447.925 83.6107 448.163 82.3753 448.639 81.174C449.115 79.9727 449.795 78.9073 450.679 77.978C451.563 77.026 452.617 76.2667 453.841 75.7C455.088 75.1333 456.47 74.85 457.989 74.85ZM457.241 77.774C456.244 77.774 455.337 78.0573 454.521 78.624C453.705 79.168 453.059 79.916 452.583 80.868H459.213C459.281 80.7093 459.338 80.5507 459.383 80.392C459.451 80.2107 459.485 80.0293 459.485 79.848C459.485 79.236 459.281 78.7373 458.873 78.352C458.465 77.9667 457.921 77.774 457.241 77.774ZM287.089 112.85C288.223 112.85 289.186 113.031 289.979 113.394C290.795 113.734 291.464 114.21 291.985 114.822C292.507 115.411 292.881 116.103 293.107 116.896C293.357 117.667 293.481 118.494 293.481 119.378C293.481 120.647 293.266 121.883 292.835 123.084C292.427 124.285 291.815 125.362 290.999 126.314C290.183 127.243 289.163 127.991 287.939 128.558C286.715 129.125 285.287 129.408 283.655 129.408C282.522 129.408 281.547 129.238 280.731 128.898C279.915 128.558 279.247 128.093 278.725 127.504C278.204 126.915 277.819 126.235 277.569 125.464C277.32 124.671 277.195 123.832 277.195 122.948C277.195 121.701 277.411 120.477 277.841 119.276C278.272 118.052 278.895 116.964 279.711 116.012C280.55 115.06 281.581 114.301 282.805 113.734C284.052 113.145 285.48 112.85 287.089 112.85ZM284.233 126.586C285.072 126.586 285.809 126.382 286.443 125.974C287.101 125.566 287.645 125.045 288.075 124.41C288.506 123.753 288.835 123.027 289.061 122.234C289.288 121.418 289.401 120.602 289.401 119.786C289.401 119.242 289.345 118.732 289.231 118.256C289.118 117.757 288.937 117.327 288.687 116.964C288.438 116.601 288.121 116.318 287.735 116.114C287.373 115.887 286.919 115.774 286.375 115.774C285.537 115.774 284.8 115.978 284.165 116.386C283.531 116.794 282.998 117.327 282.567 117.984C282.137 118.619 281.808 119.344 281.581 120.16C281.377 120.976 281.275 121.792 281.275 122.608C281.275 123.129 281.332 123.639 281.445 124.138C281.559 124.614 281.729 125.033 281.955 125.396C282.205 125.759 282.511 126.053 282.873 126.28C283.259 126.484 283.712 126.586 284.233 126.586ZM298.749 115.638H296.811L297.219 113.7L299.225 113.394C299.497 112.102 299.769 111.003 300.041 110.096C300.313 109.189 300.585 108.43 300.857 107.818C301.129 107.183 301.389 106.673 301.639 106.288C301.888 105.903 302.126 105.585 302.353 105.336C302.919 104.747 303.599 104.327 304.393 104.078C305.186 103.806 306.025 103.67 306.909 103.67C307.022 103.67 307.203 103.681 307.453 103.704C307.702 103.704 307.974 103.727 308.269 103.772C308.563 103.817 308.858 103.897 309.153 104.01C309.47 104.101 309.753 104.225 310.003 104.384L308.541 107.274C308.359 107.138 308.031 106.957 307.555 106.73C307.079 106.481 306.591 106.356 306.093 106.356C305.798 106.356 305.526 106.424 305.277 106.56C305.05 106.696 304.835 106.945 304.631 107.308C304.427 107.671 304.223 108.158 304.019 108.77C303.837 109.382 303.645 110.164 303.441 111.116L302.965 113.36H305.957L305.481 115.638H302.489L297.763 137.874H294.023L298.749 115.638ZM321.023 115.638C320.162 115.638 319.482 115.808 318.983 116.148C318.507 116.488 318.269 116.953 318.269 117.542C318.269 117.814 318.371 118.075 318.575 118.324C318.802 118.551 319.233 118.743 319.867 118.902L322.145 119.446C322.848 119.627 323.426 119.865 323.879 120.16C324.355 120.455 324.729 120.783 325.001 121.146C325.273 121.509 325.455 121.894 325.545 122.302C325.659 122.687 325.715 123.061 325.715 123.424C325.715 124.263 325.523 125.045 325.137 125.77C324.775 126.495 324.265 127.13 323.607 127.674C322.95 128.218 322.157 128.649 321.227 128.966C320.321 129.261 319.323 129.408 318.235 129.408C317.034 129.408 315.957 129.238 315.005 128.898C314.076 128.535 313.351 128.139 312.829 127.708L314.393 124.478C315.005 125.226 315.753 125.781 316.637 126.144C317.521 126.507 318.371 126.688 319.187 126.688C320.207 126.688 320.989 126.461 321.533 126.008C322.077 125.555 322.349 124.965 322.349 124.24C322.349 123.945 322.247 123.696 322.043 123.492C321.839 123.265 321.465 123.084 320.921 122.948L317.861 122.132C317.295 121.973 316.819 121.769 316.433 121.52C316.071 121.248 315.776 120.953 315.549 120.636C315.323 120.296 315.164 119.945 315.073 119.582C314.983 119.219 314.937 118.868 314.937 118.528C314.937 117.644 315.107 116.851 315.447 116.148C315.81 115.445 316.297 114.856 316.909 114.38C317.521 113.881 318.247 113.507 319.085 113.258C319.924 112.986 320.831 112.85 321.805 112.85C322.236 112.85 322.689 112.884 323.165 112.952C323.664 112.997 324.14 113.088 324.593 113.224C325.047 113.337 325.477 113.485 325.885 113.666C326.293 113.825 326.645 114.017 326.939 114.244L325.307 117.304C324.945 116.941 324.389 116.579 323.641 116.216C322.893 115.831 322.021 115.638 321.023 115.638ZM335.051 113.36L332.875 123.526C332.807 123.843 332.773 124.115 332.773 124.342C332.773 124.999 332.955 125.509 333.317 125.872C333.703 126.212 334.224 126.382 334.881 126.382C335.675 126.382 336.457 126.121 337.227 125.6C337.998 125.056 338.644 124.285 339.165 123.288L341.273 113.36H345.047L341.715 129H338.791L339.063 126.824H338.927C338.565 127.345 338.157 127.776 337.703 128.116C337.25 128.433 336.774 128.694 336.275 128.898C335.777 129.079 335.267 129.204 334.745 129.272C334.224 129.363 333.725 129.408 333.249 129.408C332.615 129.408 332.025 129.34 331.481 129.204C330.96 129.091 330.495 128.898 330.087 128.626C329.702 128.331 329.396 127.946 329.169 127.47C328.943 126.994 328.829 126.416 328.829 125.736C328.829 125.237 328.897 124.659 329.033 124.002L331.311 113.36H335.051ZM361.031 117.236C360.6 116.851 359.954 116.511 359.093 116.216C358.232 115.921 357.382 115.774 356.543 115.774C355.546 115.774 354.696 115.978 353.993 116.386C353.313 116.794 352.758 117.315 352.327 117.95C351.896 118.585 351.579 119.287 351.375 120.058C351.194 120.829 351.103 121.565 351.103 122.268C351.103 123.424 351.375 124.399 351.919 125.192C352.463 125.985 353.324 126.382 354.503 126.382C355.319 126.382 356.214 126.223 357.189 125.906C358.186 125.566 359.059 125.101 359.807 124.512V127.708C359.082 128.116 358.13 128.501 356.951 128.864C355.772 129.227 354.56 129.408 353.313 129.408C352.225 129.408 351.284 129.238 350.491 128.898C349.698 128.558 349.04 128.093 348.519 127.504C347.998 126.892 347.612 126.189 347.363 125.396C347.114 124.603 346.989 123.764 346.989 122.88C346.989 121.656 347.193 120.443 347.601 119.242C348.009 118.041 348.632 116.975 349.471 116.046C350.31 115.094 351.364 114.323 352.633 113.734C353.902 113.145 355.387 112.85 357.087 112.85C358.175 112.85 359.206 112.975 360.181 113.224C361.178 113.473 361.949 113.802 362.493 114.21L361.031 117.236ZM377.433 117.236C377.003 116.851 376.357 116.511 375.495 116.216C374.634 115.921 373.784 115.774 372.945 115.774C371.948 115.774 371.098 115.978 370.395 116.386C369.715 116.794 369.16 117.315 368.729 117.95C368.299 118.585 367.981 119.287 367.777 120.058C367.596 120.829 367.505 121.565 367.505 122.268C367.505 123.424 367.777 124.399 368.321 125.192C368.865 125.985 369.727 126.382 370.905 126.382C371.721 126.382 372.617 126.223 373.591 125.906C374.589 125.566 375.461 125.101 376.209 124.512V127.708C375.484 128.116 374.532 128.501 373.353 128.864C372.175 129.227 370.962 129.408 369.715 129.408C368.627 129.408 367.687 129.238 366.893 128.898C366.1 128.558 365.443 128.093 364.921 127.504C364.4 126.892 364.015 126.189 363.765 125.396C363.516 124.603 363.391 123.764 363.391 122.88C363.391 121.656 363.595 120.443 364.003 119.242C364.411 118.041 365.035 116.975 365.873 116.046C366.712 115.094 367.766 114.323 369.035 113.734C370.305 113.145 371.789 112.85 373.489 112.85C374.577 112.85 375.609 112.975 376.583 113.224C377.581 113.473 378.351 113.802 378.895 114.21L377.433 117.236ZM389.79 112.85C391.49 112.85 392.782 113.247 393.666 114.04C394.55 114.811 394.992 115.91 394.992 117.338C394.992 117.769 394.946 118.199 394.856 118.63C394.765 119.061 394.64 119.469 394.482 119.854C394.346 120.217 394.187 120.545 394.006 120.84C393.847 121.135 393.7 121.361 393.564 121.52H383.602C383.579 121.656 383.568 121.792 383.568 121.928C383.568 122.064 383.568 122.2 383.568 122.336C383.568 122.903 383.636 123.435 383.772 123.934C383.93 124.433 384.157 124.875 384.452 125.26C384.746 125.623 385.12 125.917 385.574 126.144C386.05 126.348 386.605 126.45 387.24 126.45C388.078 126.45 388.996 126.291 389.994 125.974C390.991 125.657 391.886 125.26 392.68 124.784V127.572C392.34 127.753 391.92 127.957 391.422 128.184C390.946 128.388 390.413 128.581 389.824 128.762C389.257 128.943 388.645 129.091 387.988 129.204C387.353 129.34 386.696 129.408 386.016 129.408C384.95 129.408 384.021 129.238 383.228 128.898C382.457 128.535 381.811 128.059 381.29 127.47C380.768 126.881 380.372 126.189 380.1 125.396C379.85 124.603 379.726 123.764 379.726 122.88C379.726 121.611 379.964 120.375 380.44 119.174C380.916 117.973 381.596 116.907 382.48 115.978C383.364 115.026 384.418 114.267 385.642 113.7C386.888 113.133 388.271 112.85 389.79 112.85ZM389.042 115.774C388.044 115.774 387.138 116.057 386.322 116.624C385.506 117.168 384.86 117.916 384.384 118.868H391.014C391.082 118.709 391.138 118.551 391.184 118.392C391.252 118.211 391.286 118.029 391.286 117.848C391.286 117.236 391.082 116.737 390.674 116.352C390.266 115.967 389.722 115.774 389.042 115.774ZM403.998 115.638C403.136 115.638 402.456 115.808 401.958 116.148C401.482 116.488 401.244 116.953 401.244 117.542C401.244 117.814 401.346 118.075 401.55 118.324C401.776 118.551 402.207 118.743 402.842 118.902L405.12 119.446C405.822 119.627 406.4 119.865 406.854 120.16C407.33 120.455 407.704 120.783 407.976 121.146C408.248 121.509 408.429 121.894 408.52 122.302C408.633 122.687 408.69 123.061 408.69 123.424C408.69 124.263 408.497 125.045 408.112 125.77C407.749 126.495 407.239 127.13 406.582 127.674C405.924 128.218 405.131 128.649 404.202 128.966C403.295 129.261 402.298 129.408 401.21 129.408C400.008 129.408 398.932 129.238 397.98 128.898C397.05 128.535 396.325 128.139 395.804 127.708L397.368 124.478C397.98 125.226 398.728 125.781 399.612 126.144C400.496 126.507 401.346 126.688 402.162 126.688C403.182 126.688 403.964 126.461 404.508 126.008C405.052 125.555 405.324 124.965 405.324 124.24C405.324 123.945 405.222 123.696 405.018 123.492C404.814 123.265 404.44 123.084 403.896 122.948L400.836 122.132C400.269 121.973 399.793 121.769 399.408 121.52C399.045 121.248 398.75 120.953 398.524 120.636C398.297 120.296 398.138 119.945 398.048 119.582C397.957 119.219 397.912 118.868 397.912 118.528C397.912 117.644 398.082 116.851 398.422 116.148C398.784 115.445 399.272 114.856 399.884 114.38C400.496 113.881 401.221 113.507 402.06 113.258C402.898 112.986 403.805 112.85 404.78 112.85C405.21 112.85 405.664 112.884 406.14 112.952C406.638 112.997 407.114 113.088 407.568 113.224C408.021 113.337 408.452 113.485 408.86 113.666C409.268 113.825 409.619 114.017 409.914 114.244L408.282 117.304C407.919 116.941 407.364 116.579 406.616 116.216C405.868 115.831 404.995 115.638 403.998 115.638ZM418.74 115.638C417.879 115.638 417.199 115.808 416.7 116.148C416.224 116.488 415.986 116.953 415.986 117.542C415.986 117.814 416.088 118.075 416.292 118.324C416.519 118.551 416.949 118.743 417.584 118.902L419.862 119.446C420.565 119.627 421.143 119.865 421.596 120.16C422.072 120.455 422.446 120.783 422.718 121.146C422.99 121.509 423.171 121.894 423.262 122.302C423.375 122.687 423.432 123.061 423.432 123.424C423.432 124.263 423.239 125.045 422.854 125.77C422.491 126.495 421.981 127.13 421.324 127.674C420.667 128.218 419.873 128.649 418.944 128.966C418.037 129.261 417.04 129.408 415.952 129.408C414.751 129.408 413.674 129.238 412.722 128.898C411.793 128.535 411.067 128.139 410.546 127.708L412.11 124.478C412.722 125.226 413.47 125.781 414.354 126.144C415.238 126.507 416.088 126.688 416.904 126.688C417.924 126.688 418.706 126.461 419.25 126.008C419.794 125.555 420.066 124.965 420.066 124.24C420.066 123.945 419.964 123.696 419.76 123.492C419.556 123.265 419.182 123.084 418.638 122.948L415.578 122.132C415.011 121.973 414.535 121.769 414.15 121.52C413.787 121.248 413.493 120.953 413.266 120.636C413.039 120.296 412.881 119.945 412.79 119.582C412.699 119.219 412.654 118.868 412.654 118.528C412.654 117.644 412.824 116.851 413.164 116.148C413.527 115.445 414.014 114.856 414.626 114.38C415.238 113.881 415.963 113.507 416.802 113.258C417.641 112.986 418.547 112.85 419.522 112.85C419.953 112.85 420.406 112.884 420.882 112.952C421.381 112.997 421.857 113.088 422.31 113.224C422.763 113.337 423.194 113.485 423.602 113.666C424.01 113.825 424.361 114.017 424.656 114.244L423.024 117.304C422.661 116.941 422.106 116.579 421.358 116.216C420.61 115.831 419.737 115.638 418.74 115.638ZM427.94 122.88L430.762 105.812H435.42L430.898 122.88H427.94ZM426.036 127.402C426.036 127.039 426.116 126.699 426.274 126.382C426.456 126.042 426.682 125.747 426.954 125.498C427.226 125.226 427.532 125.022 427.872 124.886C428.235 124.727 428.609 124.648 428.994 124.648C429.584 124.648 430.071 124.852 430.456 125.26C430.842 125.645 431.034 126.11 431.034 126.654C431.034 127.017 430.932 127.368 430.728 127.708C430.547 128.025 430.309 128.32 430.014 128.592C429.72 128.841 429.391 129.034 429.028 129.17C428.666 129.329 428.303 129.408 427.94 129.408C427.374 129.408 426.909 129.215 426.546 128.83C426.206 128.422 426.036 127.946 426.036 127.402Z" fill="black"/>
</svg>
