<svg width="502" height="279" viewBox="0 0 502 279" fill="none" xmlns="http://www.w3.org/2000/svg">
<rect x="47.4678" y="244.425" width="31.0591" height="34.5753" rx="15" fill="#66A923"/>
<rect x="104.312" y="244.425" width="31.0591" height="34.5753" rx="15" fill="#66A923"/>
<path d="M10.3509 229.796C17.0006 239.892 28.0835 234.237 33.4032 234.237V249.113C30.3739 249.557 23.3855 247.355 17.8737 247.355C11.2239 247.355 3.67668 241.785 1.89838 236.784C-3.86467 220.577 4.81677 221.394 10.3509 229.796Z" fill="#66A923"/>
<path d="M169.011 206.04C165.267 218.23 146.292 222.547 135.371 225.965L140.636 242.081C168.426 234.462 189.013 234.99 201.884 219.519C217.973 200.18 215.07 180.255 192.121 185.823C177.338 189.409 173.692 190.804 169.011 206.04Z" fill="#66A923"/>
<mask id="mask0_90_133" style="mask-type:alpha" maskUnits="userSpaceOnUse" x="135" y="184" width="78" height="59">
<path d="M169.011 206.04C165.267 218.23 146.292 222.547 135.371 225.965L140.636 242.081C168.426 234.462 189.013 234.99 201.884 219.519C217.973 200.18 215.07 180.255 192.121 185.823C177.338 189.409 173.692 190.804 169.011 206.04Z" fill="#66A923"/>
</mask>
<g mask="url(#mask0_90_133)">
<path d="M211.808 206.227C212.086 207.598 211.809 209.024 211.037 210.19C210.265 211.356 209.062 212.168 207.691 212.447C206.32 212.726 204.895 212.449 203.728 211.677C202.562 210.905 201.75 209.701 201.471 208.331L206.639 207.279L211.808 206.227Z" fill="black"/>
</g>
<circle cx="193.973" cy="201.645" r="3.51613" fill="black"/>
<circle cx="194.559" cy="200.473" r="1.17204" fill="#005C25"/>
<path d="M37.0177 256.061C28.9014 253.309 23.2292 245.647 24.521 237.175C27.0061 220.876 33.7071 205.725 43.8663 193.858C56.9445 178.582 74.6822 170 93.1775 170C111.673 170 129.411 178.582 142.489 193.858C152.632 205.706 159.327 220.827 161.822 237.097C163.127 245.606 157.405 253.293 149.239 256.015L131.711 261.858C129.671 262.538 127.536 262.884 125.386 262.884H93.1775H60.4362C58.2516 262.884 56.0818 262.526 54.0129 261.825L37.0177 256.061Z" fill="#423C27"/>
<mask id="mask1_90_133" style="mask-type:alpha" maskUnits="userSpaceOnUse" x="24" y="170" width="139" height="93">
<path d="M37.0177 256.061C28.9014 253.309 23.2292 245.647 24.521 237.175C27.0061 220.876 33.7071 205.725 43.8663 193.858C56.9445 178.582 74.6822 170 93.1775 170C111.673 170 129.411 178.582 142.489 193.858C152.632 205.706 159.327 220.827 161.822 237.097C163.127 245.606 157.405 253.293 149.239 256.015L131.711 261.858C129.671 262.538 127.536 262.884 125.386 262.884H93.1775H60.4362C58.2516 262.884 56.0818 262.526 54.0129 261.825L37.0177 256.061Z" fill="#423C27"/>
</mask>
<g mask="url(#mask1_90_133)">
<path opacity="0.6" d="M22.2689 191.097L42.0618 202.524V225.379L22.2689 236.806L2.47603 225.379V202.524L22.2689 191.097Z" fill="#996F3F"/>
<path opacity="0.6" d="M66.8065 191.097L86.5994 202.524V225.379L66.8065 236.806L47.0136 225.379V202.524L66.8065 191.097Z" fill="#996F3F"/>
<path opacity="0.6" d="M110.172 191.097L129.965 202.524V225.379L110.172 236.806L90.3792 225.379V202.524L110.172 191.097Z" fill="#996F3F"/>
<path opacity="0.6" d="M154.71 191.097L174.503 202.524V225.379L154.71 236.806L134.917 225.379V202.524L154.71 191.097Z" fill="#996F3F"/>
<path opacity="0.6" d="M44.5377 153.005L64.3306 164.433V187.288L44.5377 198.715L24.7448 187.288V164.433L44.5377 153.005Z" fill="#996F3F"/>
<path opacity="0.6" d="M89.0753 153.005L108.868 164.433V187.288L89.0753 198.715L69.2824 187.288V164.433L89.0753 153.005Z" fill="#996F3F"/>
<path opacity="0.6" d="M132.441 153.005L152.234 164.433V187.288L132.441 198.715L112.648 187.288V164.433L132.441 153.005Z" fill="#996F3F"/>
<path opacity="0.6" d="M176.979 153.005L196.771 164.433V187.288L176.979 198.715L157.186 187.288V164.433L176.979 153.005Z" fill="#996F3F"/>
<path opacity="0.6" d="M44.5377 229.188L64.3306 240.616V263.47L44.5377 274.898L24.7448 263.47V240.616L44.5377 229.188Z" fill="#996F3F"/>
<path opacity="0.6" d="M89.0753 229.188L108.868 240.616V263.47L89.0753 274.898L69.2824 263.47V240.616L89.0753 229.188Z" fill="#996F3F"/>
<path opacity="0.6" d="M132.441 229.188L152.234 240.616V263.47L132.441 274.898L112.648 263.47V240.616L132.441 229.188Z" fill="#996F3F"/>
<path opacity="0.6" d="M176.979 229.188L196.771 240.616V263.47L176.979 274.898L157.186 263.47V240.616L176.979 229.188Z" fill="#996F3F"/>
</g>
<path d="M19.0086 244.241C20.4445 240.459 24.6746 238.556 28.4569 239.992L62.6986 252.992L57.4987 266.689L23.2569 253.689C19.4747 252.253 17.5726 248.023 19.0086 244.241Z" fill="#423C27"/>
<path d="M166.871 244.862C168.255 248.664 166.294 252.867 162.493 254.251L128.075 266.778L123.064 253.011L157.482 240.484C161.284 239.1 165.487 241.06 166.871 244.862Z" fill="#423C27"/>
<rect x="57.5927" y="252.288" width="70.7925" height="14.6505" fill="#423C27"/>
<path d="M240.669 199C249.542 182.772 252.629 169.946 242.65 162.001C213.942 144.447 210 111.737 210 99.859C210 45.1087 275.366 0.724854 356 0.724854C436.633 0.724854 502 45.1087 502 99.859C502 154.609 436.633 198.993 356 198.993C333.989 198.993 297.413 194.166 275.545 182.301C264.071 199 250.328 199 240.669 199Z" fill="#E5E5E5"/>
<path d="M268.659 80.8H262.199L260.057 91H256.147L260.907 68.56H273.725L273.011 71.96H264.069L262.913 77.4H269.373L268.659 80.8ZM278.241 75.36L276.065 85.526C275.997 85.8433 275.963 86.1153 275.963 86.342C275.963 86.9993 276.144 87.5093 276.507 87.872C276.892 88.212 277.414 88.382 278.071 88.382C278.864 88.382 279.646 88.1213 280.417 87.6C281.188 87.056 281.834 86.2853 282.355 85.288L284.463 75.36H288.237L284.905 91H281.981L282.253 88.824H282.117C281.754 89.3453 281.346 89.776 280.893 90.116C280.44 90.4333 279.964 90.694 279.465 90.898C278.966 91.0793 278.456 91.204 277.935 91.272C277.414 91.3627 276.915 91.408 276.439 91.408C275.804 91.408 275.215 91.34 274.671 91.204C274.15 91.0907 273.685 90.898 273.277 90.626C272.892 90.3313 272.586 89.946 272.359 89.47C272.132 88.994 272.019 88.416 272.019 87.736C272.019 87.2373 272.087 86.6593 272.223 86.002L274.501 75.36H278.241ZM293.545 91H289.805L295.143 65.84H298.883L293.545 91ZM302.343 91H298.603L303.941 65.84H307.681L302.343 91ZM327.636 74.85C328.611 74.85 329.45 75.02 330.152 75.36C330.855 75.7 331.433 76.1533 331.886 76.72C332.34 77.2867 332.668 77.9553 332.872 78.726C333.076 79.4967 333.178 80.3013 333.178 81.14C333.178 82.432 332.974 83.69 332.566 84.914C332.181 86.138 331.603 87.2373 330.832 88.212C330.084 89.164 329.144 89.9347 328.01 90.524C326.877 91.1133 325.562 91.408 324.066 91.408C323.046 91.408 322.128 91.2607 321.312 90.966C320.496 90.6713 319.896 90.1953 319.51 89.538L317.334 99.84H313.628L318.83 75.36H321.822L321.652 77.502H321.788C322.151 77.1393 322.57 76.7993 323.046 76.482C323.522 76.142 324.021 75.8587 324.542 75.632C325.086 75.3827 325.619 75.19 326.14 75.054C326.662 74.918 327.16 74.85 327.636 74.85ZM326.412 77.706C326.072 77.706 325.687 77.7627 325.256 77.876C324.848 77.9667 324.418 78.114 323.964 78.318C323.534 78.4993 323.103 78.726 322.672 78.998C322.264 79.27 321.902 79.576 321.584 79.916L320.156 86.546C320.678 87.3847 321.267 87.9173 321.924 88.144C322.582 88.348 323.205 88.45 323.794 88.45C324.724 88.45 325.528 88.2687 326.208 87.906C326.911 87.5207 327.489 87.022 327.942 86.41C328.418 85.7753 328.77 85.0613 328.996 84.268C329.246 83.452 329.37 82.6247 329.37 81.786C329.37 81.2647 329.314 80.7547 329.2 80.256C329.11 79.7573 328.94 79.3267 328.69 78.964C328.464 78.5787 328.158 78.2727 327.772 78.046C327.41 77.8193 326.956 77.706 326.412 77.706ZM345.56 74.85C346.693 74.85 347.657 75.0313 348.45 75.394C349.266 75.734 349.935 76.21 350.456 76.822C350.977 77.4113 351.351 78.1027 351.578 78.896C351.827 79.6667 351.952 80.494 351.952 81.378C351.952 82.6473 351.737 83.8827 351.306 85.084C350.898 86.2853 350.286 87.362 349.47 88.314C348.654 89.2433 347.634 89.9913 346.41 90.558C345.186 91.1247 343.758 91.408 342.126 91.408C340.993 91.408 340.018 91.238 339.202 90.898C338.386 90.558 337.717 90.0933 337.196 89.504C336.675 88.9147 336.289 88.2347 336.04 87.464C335.791 86.6707 335.666 85.832 335.666 84.948C335.666 83.7013 335.881 82.4773 336.312 81.276C336.743 80.052 337.366 78.964 338.182 78.012C339.021 77.06 340.052 76.3007 341.276 75.734C342.523 75.1447 343.951 74.85 345.56 74.85ZM342.704 88.586C343.543 88.586 344.279 88.382 344.914 87.974C345.571 87.566 346.115 87.0447 346.546 86.41C346.977 85.7527 347.305 85.0273 347.532 84.234C347.759 83.418 347.872 82.602 347.872 81.786C347.872 81.242 347.815 80.732 347.702 80.256C347.589 79.7573 347.407 79.3267 347.158 78.964C346.909 78.6013 346.591 78.318 346.206 78.114C345.843 77.8873 345.39 77.774 344.846 77.774C344.007 77.774 343.271 77.978 342.636 78.386C342.001 78.794 341.469 79.3267 341.038 79.984C340.607 80.6187 340.279 81.344 340.052 82.16C339.848 82.976 339.746 83.792 339.746 84.608C339.746 85.1293 339.803 85.6393 339.916 86.138C340.029 86.614 340.199 87.0333 340.426 87.396C340.675 87.7587 340.981 88.0533 341.344 88.28C341.729 88.484 342.183 88.586 342.704 88.586ZM357.588 91H353.848L357.18 75.36H360.92L357.588 91ZM357.656 70.736C357.656 70.3733 357.735 70.022 357.894 69.682C358.075 69.342 358.302 69.036 358.574 68.764C358.868 68.492 359.186 68.2767 359.526 68.118C359.888 67.9367 360.262 67.846 360.648 67.846C361.214 67.846 361.69 68.0613 362.076 68.492C362.461 68.9227 362.654 69.4213 362.654 69.988C362.654 70.3507 362.552 70.702 362.348 71.042C362.166 71.3593 361.928 71.654 361.634 71.926C361.339 72.1753 361.01 72.3793 360.648 72.538C360.285 72.674 359.934 72.742 359.594 72.742C359.004 72.742 358.528 72.5493 358.166 72.164C357.826 71.7787 357.656 71.3027 357.656 70.736ZM372.72 91L374.93 80.664C374.998 80.324 375.032 80.018 375.032 79.746C375.032 78.4993 374.398 77.876 373.128 77.876C372.743 77.876 372.312 77.944 371.836 78.08C371.383 78.216 370.918 78.42 370.442 78.692C369.989 78.9413 369.547 79.2587 369.116 79.644C368.708 80.0293 368.38 80.4713 368.13 80.97L365.988 91H362.248L365.58 75.36H368.504L368.164 77.672H368.3C368.98 76.72 369.876 76.0173 370.986 75.564C372.097 75.088 373.23 74.85 374.386 74.85C375.021 74.85 375.61 74.918 376.154 75.054C376.721 75.19 377.208 75.4167 377.616 75.734C378.024 76.0287 378.342 76.4253 378.568 76.924C378.818 77.4 378.942 77.9893 378.942 78.692C378.942 79.1907 378.874 79.746 378.738 80.358L376.46 91H372.72ZM384.379 77.638H382.441L382.849 75.598L385.127 75.258L386.725 70.634H389.581L388.595 75.36H391.587L391.111 77.638H388.085L386.181 86.614C386.09 86.9767 386.045 87.3053 386.045 87.6C386.045 87.8947 386.101 88.0987 386.215 88.212C386.351 88.3027 386.555 88.348 386.827 88.348C387.121 88.348 387.427 88.2913 387.745 88.178C388.062 88.0647 388.549 87.8493 389.207 87.532V90.218C388.685 90.5807 388.005 90.864 387.167 91.068C386.351 91.2947 385.557 91.408 384.787 91.408C383.767 91.408 383.053 91.2153 382.645 90.83C382.259 90.4447 382.067 89.8893 382.067 89.164C382.067 88.9147 382.089 88.6427 382.135 88.348C382.18 88.0307 382.237 87.7133 382.305 87.396L384.379 77.638ZM399.648 77.638C398.787 77.638 398.107 77.808 397.608 78.148C397.132 78.488 396.894 78.9527 396.894 79.542C396.894 79.814 396.996 80.0747 397.2 80.324C397.427 80.5507 397.858 80.7433 398.492 80.902L400.77 81.446C401.473 81.6273 402.051 81.8653 402.504 82.16C402.98 82.4547 403.354 82.7833 403.626 83.146C403.898 83.5087 404.08 83.894 404.17 84.302C404.284 84.6873 404.34 85.0613 404.34 85.424C404.34 86.2627 404.148 87.0447 403.762 87.77C403.4 88.4953 402.89 89.13 402.232 89.674C401.575 90.218 400.782 90.6487 399.852 90.966C398.946 91.2607 397.948 91.408 396.86 91.408C395.659 91.408 394.582 91.238 393.63 90.898C392.701 90.5353 391.976 90.1387 391.454 89.708L393.018 86.478C393.63 87.226 394.378 87.7813 395.262 88.144C396.146 88.5067 396.996 88.688 397.812 88.688C398.832 88.688 399.614 88.4613 400.158 88.008C400.702 87.5547 400.974 86.9653 400.974 86.24C400.974 85.9453 400.872 85.696 400.668 85.492C400.464 85.2653 400.09 85.084 399.546 84.948L396.486 84.132C395.92 83.9733 395.444 83.7693 395.058 83.52C394.696 83.248 394.401 82.9533 394.174 82.636C393.948 82.296 393.789 81.9447 393.698 81.582C393.608 81.2193 393.562 80.868 393.562 80.528C393.562 79.644 393.732 78.8507 394.072 78.148C394.435 77.4453 394.922 76.856 395.534 76.38C396.146 75.8813 396.872 75.5073 397.71 75.258C398.549 74.986 399.456 74.85 400.43 74.85C400.861 74.85 401.314 74.884 401.79 74.952C402.289 74.9973 402.765 75.088 403.218 75.224C403.672 75.3373 404.102 75.4847 404.51 75.666C404.918 75.8247 405.27 76.0173 405.564 76.244L403.932 79.304C403.57 78.9413 403.014 78.5787 402.266 78.216C401.518 77.8307 400.646 77.638 399.648 77.638ZM418.678 77.638H416.74L417.148 75.7L419.154 75.394C419.426 74.102 419.698 73.0027 419.97 72.096C420.242 71.1893 420.514 70.43 420.786 69.818C421.058 69.1833 421.319 68.6733 421.568 68.288C421.818 67.9027 422.056 67.5853 422.282 67.336C422.849 66.7467 423.529 66.3273 424.322 66.078C425.116 65.806 425.954 65.67 426.838 65.67C426.952 65.67 427.133 65.6813 427.382 65.704C427.632 65.704 427.904 65.7267 428.198 65.772C428.493 65.8173 428.788 65.8967 429.082 66.01C429.4 66.1007 429.683 66.2253 429.932 66.384L428.47 69.274C428.289 69.138 427.96 68.9567 427.484 68.73C427.008 68.4807 426.521 68.356 426.022 68.356C425.728 68.356 425.456 68.424 425.206 68.56C424.98 68.696 424.764 68.9453 424.56 69.308C424.356 69.6707 424.152 70.158 423.948 70.77C423.767 71.382 423.574 72.164 423.37 73.116L422.894 75.36H425.886L425.41 77.638H422.418L417.692 99.874H413.952L418.678 77.638ZM435.939 74.85C437.072 74.85 438.036 75.0313 438.829 75.394C439.645 75.734 440.314 76.21 440.835 76.822C441.356 77.4113 441.73 78.1027 441.957 78.896C442.206 79.6667 442.331 80.494 442.331 81.378C442.331 82.6473 442.116 83.8827 441.685 85.084C441.277 86.2853 440.665 87.362 439.849 88.314C439.033 89.2433 438.013 89.9913 436.789 90.558C435.565 91.1247 434.137 91.408 432.505 91.408C431.372 91.408 430.397 91.238 429.581 90.898C428.765 90.558 428.096 90.0933 427.575 89.504C427.054 88.9147 426.668 88.2347 426.419 87.464C426.17 86.6707 426.045 85.832 426.045 84.948C426.045 83.7013 426.26 82.4773 426.691 81.276C427.122 80.052 427.745 78.964 428.561 78.012C429.4 77.06 430.431 76.3007 431.655 75.734C432.902 75.1447 434.33 74.85 435.939 74.85ZM433.083 88.586C433.922 88.586 434.658 88.382 435.293 87.974C435.95 87.566 436.494 87.0447 436.925 86.41C437.356 85.7527 437.684 85.0273 437.911 84.234C438.138 83.418 438.251 82.602 438.251 81.786C438.251 81.242 438.194 80.732 438.081 80.256C437.968 79.7573 437.786 79.3267 437.537 78.964C437.288 78.6013 436.97 78.318 436.585 78.114C436.222 77.8873 435.769 77.774 435.225 77.774C434.386 77.774 433.65 77.978 433.015 78.386C432.38 78.794 431.848 79.3267 431.417 79.984C430.986 80.6187 430.658 81.344 430.431 82.16C430.227 82.976 430.125 83.792 430.125 84.608C430.125 85.1293 430.182 85.6393 430.295 86.138C430.408 86.614 430.578 87.0333 430.805 87.396C431.054 87.7587 431.36 88.0533 431.723 88.28C432.108 88.484 432.562 88.586 433.083 88.586ZM455.787 78.76C455.605 78.5787 455.277 78.4313 454.801 78.318C454.347 78.2047 453.951 78.148 453.611 78.148C453.157 78.148 452.761 78.2613 452.421 78.488C452.081 78.692 451.763 78.9753 451.469 79.338C451.174 79.678 450.902 80.0747 450.653 80.528C450.403 80.9813 450.154 81.446 449.905 81.922L447.967 91H444.227L447.559 75.36H450.483L449.939 78.624H450.075C450.415 78.148 450.755 77.6833 451.095 77.23C451.457 76.7767 451.831 76.38 452.217 76.04C452.602 75.6773 453.021 75.394 453.475 75.19C453.951 74.9633 454.472 74.85 455.039 74.85C455.945 74.85 456.727 75.1447 457.385 75.734L455.787 78.76ZM331.801 124.478L338.499 113.36H342.137L332.311 129.136C331.835 129.929 331.211 130.813 330.441 131.788C329.67 132.785 328.809 133.715 327.857 134.576C326.927 135.46 325.919 136.197 324.831 136.786C323.743 137.398 322.643 137.704 321.533 137.704C321.351 137.704 321.215 137.693 321.125 137.67C321.034 137.67 320.932 137.647 320.819 137.602V134.678C320.887 134.701 320.966 134.723 321.057 134.746C321.125 134.769 321.306 134.78 321.601 134.78C323.097 134.78 324.457 134.225 325.681 133.114C326.905 132.026 328.14 130.485 329.387 128.49L324.797 113.36H328.707L331.801 124.478ZM351.885 112.85C353.019 112.85 353.982 113.031 354.775 113.394C355.591 113.734 356.26 114.21 356.781 114.822C357.303 115.411 357.677 116.103 357.903 116.896C358.153 117.667 358.277 118.494 358.277 119.378C358.277 120.647 358.062 121.883 357.631 123.084C357.223 124.285 356.611 125.362 355.795 126.314C354.979 127.243 353.959 127.991 352.735 128.558C351.511 129.125 350.083 129.408 348.451 129.408C347.318 129.408 346.343 129.238 345.527 128.898C344.711 128.558 344.043 128.093 343.521 127.504C343 126.915 342.615 126.235 342.365 125.464C342.116 124.671 341.991 123.832 341.991 122.948C341.991 121.701 342.207 120.477 342.637 119.276C343.068 118.052 343.691 116.964 344.507 116.012C345.346 115.06 346.377 114.301 347.601 113.734C348.848 113.145 350.276 112.85 351.885 112.85ZM349.029 126.586C349.868 126.586 350.605 126.382 351.239 125.974C351.897 125.566 352.441 125.045 352.871 124.41C353.302 123.753 353.631 123.027 353.857 122.234C354.084 121.418 354.197 120.602 354.197 119.786C354.197 119.242 354.141 118.732 354.027 118.256C353.914 117.757 353.733 117.327 353.483 116.964C353.234 116.601 352.917 116.318 352.531 116.114C352.169 115.887 351.715 115.774 351.171 115.774C350.333 115.774 349.596 115.978 348.961 116.386C348.327 116.794 347.794 117.327 347.363 117.984C346.933 118.619 346.604 119.344 346.377 120.16C346.173 120.976 346.071 121.792 346.071 122.608C346.071 123.129 346.128 123.639 346.241 124.138C346.355 124.614 346.525 125.033 346.751 125.396C347.001 125.759 347.307 126.053 347.669 126.28C348.055 126.484 348.508 126.586 349.029 126.586ZM367.109 113.36L364.933 123.526C364.865 123.843 364.831 124.115 364.831 124.342C364.831 124.999 365.012 125.509 365.375 125.872C365.76 126.212 366.282 126.382 366.939 126.382C367.732 126.382 368.514 126.121 369.285 125.6C370.056 125.056 370.702 124.285 371.223 123.288L373.331 113.36H377.105L373.773 129H370.849L371.121 126.824H370.985C370.622 127.345 370.214 127.776 369.761 128.116C369.308 128.433 368.832 128.694 368.333 128.898C367.834 129.079 367.324 129.204 366.803 129.272C366.282 129.363 365.783 129.408 365.307 129.408C364.672 129.408 364.083 129.34 363.539 129.204C363.018 129.091 362.553 128.898 362.145 128.626C361.76 128.331 361.454 127.946 361.227 127.47C361 126.994 360.887 126.416 360.887 125.736C360.887 125.237 360.955 124.659 361.091 124.002L363.369 113.36H367.109ZM380.543 122.88L383.365 105.812H388.023L383.501 122.88H380.543ZM378.639 127.402C378.639 127.039 378.718 126.699 378.877 126.382C379.058 126.042 379.285 125.747 379.557 125.498C379.829 125.226 380.135 125.022 380.475 124.886C380.837 124.727 381.211 124.648 381.597 124.648C382.186 124.648 382.673 124.852 383.059 125.26C383.444 125.645 383.637 126.11 383.637 126.654C383.637 127.017 383.535 127.368 383.331 127.708C383.149 128.025 382.911 128.32 382.617 128.592C382.322 128.841 381.993 129.034 381.631 129.17C381.268 129.329 380.905 129.408 380.543 129.408C379.976 129.408 379.511 129.215 379.149 128.83C378.809 128.422 378.639 127.946 378.639 127.402Z" fill="black"/>
</svg>
