<svg width="502" height="279" viewBox="0 0 502 279" fill="none" xmlns="http://www.w3.org/2000/svg">
<rect x="47.4677" y="244.425" width="31.0591" height="34.5753" rx="15" fill="#66A923"/>
<rect x="104.312" y="244.425" width="31.0591" height="34.5753" rx="15" fill="#66A923"/>
<path d="M10.3509 229.796C17.0006 239.892 28.0835 234.237 33.4032 234.237V249.113C30.3739 249.557 23.3855 247.355 17.8737 247.355C11.2239 247.355 3.67668 241.785 1.89838 236.784C-3.86467 220.577 4.81677 221.394 10.3509 229.796Z" fill="#66A923"/>
<path d="M169.011 206.04C165.267 218.23 146.292 222.547 135.371 225.965L140.636 242.081C168.426 234.462 189.013 234.99 201.884 219.519C217.973 200.18 215.07 180.255 192.121 185.823C177.338 189.409 173.692 190.804 169.011 206.04Z" fill="#66A923"/>
<mask id="mask0_90_83" style="mask-type:alpha" maskUnits="userSpaceOnUse" x="135" y="184" width="78" height="59">
<path d="M169.011 206.04C165.267 218.23 146.292 222.547 135.371 225.965L140.636 242.081C168.426 234.462 189.013 234.99 201.884 219.519C217.973 200.18 215.07 180.255 192.121 185.823C177.338 189.409 173.692 190.804 169.011 206.04Z" fill="#66A923"/>
</mask>
<g mask="url(#mask0_90_83)">
<path d="M211.808 206.227C212.086 207.598 211.809 209.023 211.037 210.19C210.265 211.356 209.062 212.168 207.691 212.447C206.32 212.726 204.895 212.449 203.728 211.677C202.562 210.905 201.75 209.701 201.471 208.331L206.639 207.279L211.808 206.227Z" fill="black"/>
</g>
<circle cx="193.973" cy="201.645" r="3.51613" fill="black"/>
<circle cx="194.559" cy="200.473" r="1.17204" fill="#005C25"/>
<path d="M37.0176 256.061C28.9013 253.309 23.2291 245.647 24.5209 237.175C27.006 220.876 33.707 205.725 43.8662 193.858C56.9444 178.582 74.6821 170 93.1774 170C111.673 170 129.41 178.582 142.489 193.858C152.632 205.706 159.327 220.828 161.822 237.097C163.127 245.606 157.405 253.293 149.239 256.016L131.711 261.858C129.671 262.538 127.536 262.885 125.386 262.885H93.1774H60.4361C58.2515 262.885 56.0817 262.527 54.0128 261.825L37.0176 256.061Z" fill="#423C27"/>
<mask id="mask1_90_83" style="mask-type:alpha" maskUnits="userSpaceOnUse" x="24" y="170" width="139" height="93">
<path d="M37.0176 256.061C28.9013 253.309 23.2291 245.647 24.5209 237.175C27.006 220.876 33.707 205.725 43.8662 193.858C56.9444 178.582 74.6821 170 93.1774 170C111.673 170 129.41 178.582 142.489 193.858C152.632 205.706 159.327 220.828 161.822 237.097C163.127 245.606 157.405 253.293 149.239 256.016L131.711 261.858C129.671 262.538 127.536 262.885 125.386 262.885H93.1774H60.4361C58.2515 262.885 56.0817 262.527 54.0128 261.825L37.0176 256.061Z" fill="#423C27"/>
</mask>
<g mask="url(#mask1_90_83)">
<path opacity="0.6" d="M22.2688 191.097L42.0617 202.524V225.379L22.2688 236.806L2.47594 225.379V202.524L22.2688 191.097Z" fill="#996F3F"/>
<path opacity="0.6" d="M66.8065 191.097L86.5993 202.524V225.379L66.8065 236.806L47.0136 225.379V202.524L66.8065 191.097Z" fill="#996F3F"/>
<path opacity="0.6" d="M110.172 191.097L129.965 202.524V225.379L110.172 236.806L90.3792 225.379V202.524L110.172 191.097Z" fill="#996F3F"/>
<path opacity="0.6" d="M154.71 191.097L174.503 202.524V225.379L154.71 236.806L134.917 225.379V202.524L154.71 191.097Z" fill="#996F3F"/>
<path opacity="0.6" d="M44.5376 153.005L64.3305 164.433V187.288L44.5376 198.715L24.7448 187.288V164.433L44.5376 153.005Z" fill="#996F3F"/>
<path opacity="0.6" d="M89.0753 153.005L108.868 164.433V187.288L89.0753 198.715L69.2824 187.288V164.433L89.0753 153.005Z" fill="#996F3F"/>
<path opacity="0.6" d="M132.441 153.005L152.234 164.433V187.288L132.441 198.715L112.648 187.288V164.433L132.441 153.005Z" fill="#996F3F"/>
<path opacity="0.6" d="M176.978 153.005L196.771 164.433V187.288L176.978 198.715L157.186 187.288V164.433L176.978 153.005Z" fill="#996F3F"/>
<path opacity="0.6" d="M44.5376 229.188L64.3305 240.616V263.47L44.5376 274.898L24.7448 263.47V240.616L44.5376 229.188Z" fill="#996F3F"/>
<path opacity="0.6" d="M89.0753 229.188L108.868 240.616V263.47L89.0753 274.898L69.2824 263.47V240.616L89.0753 229.188Z" fill="#996F3F"/>
<path opacity="0.6" d="M132.441 229.188L152.234 240.616V263.47L132.441 274.898L112.648 263.47V240.616L132.441 229.188Z" fill="#996F3F"/>
<path opacity="0.6" d="M176.978 229.188L196.771 240.616V263.47L176.978 274.898L157.186 263.47V240.616L176.978 229.188Z" fill="#996F3F"/>
</g>
<path d="M19.0086 244.241C20.4445 240.459 24.6746 238.557 28.4569 239.993L62.6986 252.992L57.4986 266.689L23.2569 253.689C19.4747 252.253 17.5726 248.023 19.0086 244.241Z" fill="#423C27"/>
<path d="M166.871 244.862C168.255 248.664 166.294 252.867 162.493 254.251L128.075 266.778L123.065 253.011L157.482 240.484C161.284 239.1 165.487 241.06 166.871 244.862Z" fill="#423C27"/>
<rect x="57.5926" y="252.288" width="70.7925" height="14.6505" fill="#423C27"/>
<path d="M240.669 199C249.542 182.772 252.629 169.946 242.65 162.001C213.942 144.447 210 111.737 210 99.859C210 45.1087 275.366 0.724854 356 0.724854C436.633 0.724854 502 45.1087 502 99.859C502 154.609 436.633 198.993 356 198.993C333.989 198.993 297.413 194.166 275.545 182.301C264.071 199 250.328 199 240.669 199Z" fill="#E5E5E5"/>
<path d="M247.349 70.96H240.855L236.809 90H232.899L236.945 70.96H230.451L231.165 67.56H248.063L247.349 70.96ZM252.829 76.672C253.69 75.6747 254.585 74.9607 255.515 74.53C256.467 74.0767 257.521 73.85 258.677 73.85C259.266 73.85 259.821 73.918 260.343 74.054C260.864 74.19 261.317 74.4053 261.703 74.7C262.088 74.9947 262.394 75.3913 262.621 75.89C262.847 76.366 262.961 76.9553 262.961 77.658C262.961 78.1793 262.893 78.746 262.757 79.358L260.479 90H256.739L258.949 79.664C259.017 79.324 259.051 79.018 259.051 78.746C259.051 78.134 258.892 77.6693 258.575 77.352C258.257 77.0347 257.815 76.876 257.249 76.876C256.818 76.876 256.353 76.944 255.855 77.08C255.379 77.216 254.903 77.42 254.427 77.692C253.973 77.964 253.543 78.2927 253.135 78.678C252.727 79.0633 252.398 79.494 252.149 79.97L250.007 90H246.267L251.605 64.84H255.345L252.829 76.672ZM275.567 73.85C277.267 73.85 278.559 74.2467 279.443 75.04C280.327 75.8107 280.769 76.91 280.769 78.338C280.769 78.7687 280.724 79.1993 280.633 79.63C280.542 80.0607 280.418 80.4687 280.259 80.854C280.123 81.2167 279.964 81.5453 279.783 81.84C279.624 82.1347 279.477 82.3613 279.341 82.52H269.379C269.356 82.656 269.345 82.792 269.345 82.928C269.345 83.064 269.345 83.2 269.345 83.336C269.345 83.9027 269.413 84.4353 269.549 84.934C269.708 85.4327 269.934 85.8747 270.229 86.26C270.524 86.6227 270.898 86.9173 271.351 87.144C271.827 87.348 272.382 87.45 273.017 87.45C273.856 87.45 274.774 87.2913 275.771 86.974C276.768 86.6567 277.664 86.26 278.457 85.784V88.572C278.117 88.7533 277.698 88.9573 277.199 89.184C276.723 89.388 276.19 89.5807 275.601 89.762C275.034 89.9433 274.422 90.0907 273.765 90.204C273.13 90.34 272.473 90.408 271.793 90.408C270.728 90.408 269.798 90.238 269.005 89.898C268.234 89.5353 267.588 89.0593 267.067 88.47C266.546 87.8807 266.149 87.1893 265.877 86.396C265.628 85.6027 265.503 84.764 265.503 83.88C265.503 82.6107 265.741 81.3753 266.217 80.174C266.693 78.9727 267.373 77.9073 268.257 76.978C269.141 76.026 270.195 75.2667 271.419 74.7C272.666 74.1333 274.048 73.85 275.567 73.85ZM274.819 76.774C273.822 76.774 272.915 77.0573 272.099 77.624C271.283 78.168 270.637 78.916 270.161 79.868H276.791C276.859 79.7093 276.916 79.5507 276.961 79.392C277.029 79.2107 277.063 79.0293 277.063 78.848C277.063 78.236 276.859 77.7373 276.451 77.352C276.043 76.9667 275.499 76.774 274.819 76.774ZM293.685 77.76C293.504 77.5787 293.175 77.4313 292.699 77.318C292.246 77.2047 291.849 77.148 291.509 77.148C291.056 77.148 290.659 77.2613 290.319 77.488C289.979 77.692 289.662 77.9753 289.367 78.338C289.072 78.678 288.8 79.0747 288.551 79.528C288.302 79.9813 288.052 80.446 287.803 80.922L285.865 90H282.125L285.457 74.36H288.381L287.837 77.624H287.973C288.313 77.148 288.653 76.6833 288.993 76.23C289.356 75.7767 289.73 75.38 290.115 75.04C290.5 74.6773 290.92 74.394 291.373 74.19C291.849 73.9633 292.37 73.85 292.937 73.85C293.844 73.85 294.626 74.1447 295.283 74.734L293.685 77.76ZM305.218 73.85C306.918 73.85 308.21 74.2467 309.094 75.04C309.978 75.8107 310.42 76.91 310.42 78.338C310.42 78.7687 310.374 79.1993 310.284 79.63C310.193 80.0607 310.068 80.4687 309.91 80.854C309.774 81.2167 309.615 81.5453 309.434 81.84C309.275 82.1347 309.128 82.3613 308.992 82.52H299.03C299.007 82.656 298.996 82.792 298.996 82.928C298.996 83.064 298.996 83.2 298.996 83.336C298.996 83.9027 299.064 84.4353 299.2 84.934C299.358 85.4327 299.585 85.8747 299.88 86.26C300.174 86.6227 300.548 86.9173 301.002 87.144C301.478 87.348 302.033 87.45 302.668 87.45C303.506 87.45 304.424 87.2913 305.422 86.974C306.419 86.6567 307.314 86.26 308.108 85.784V88.572C307.768 88.7533 307.348 88.9573 306.85 89.184C306.374 89.388 305.841 89.5807 305.252 89.762C304.685 89.9433 304.073 90.0907 303.416 90.204C302.781 90.34 302.124 90.408 301.444 90.408C300.378 90.408 299.449 90.238 298.656 89.898C297.885 89.5353 297.239 89.0593 296.718 88.47C296.196 87.8807 295.8 87.1893 295.528 86.396C295.278 85.6027 295.154 84.764 295.154 83.88C295.154 82.6107 295.392 81.3753 295.868 80.174C296.344 78.9727 297.024 77.9073 297.908 76.978C298.792 76.026 299.846 75.2667 301.07 74.7C302.316 74.1333 303.699 73.85 305.218 73.85ZM304.47 76.774C303.472 76.774 302.566 77.0573 301.75 77.624C300.934 78.168 300.288 78.916 299.812 79.868H306.442C306.51 79.7093 306.566 79.5507 306.612 79.392C306.68 79.2107 306.714 79.0293 306.714 78.848C306.714 78.236 306.51 77.7373 306.102 77.352C305.694 76.9667 305.15 76.774 304.47 76.774ZM314.334 73.51L316.68 69.668H315.83L316.816 65.01H320.862L319.774 70.178L315.388 74.36L314.334 73.51ZM326.73 76.638C325.869 76.638 325.189 76.808 324.69 77.148C324.214 77.488 323.976 77.9527 323.976 78.542C323.976 78.814 324.078 79.0747 324.282 79.324C324.509 79.5507 324.94 79.7433 325.574 79.902L327.852 80.446C328.555 80.6273 329.133 80.8653 329.586 81.16C330.062 81.4547 330.436 81.7833 330.708 82.146C330.98 82.5087 331.162 82.894 331.252 83.302C331.366 83.6873 331.422 84.0613 331.422 84.424C331.422 85.2627 331.23 86.0447 330.844 86.77C330.482 87.4953 329.972 88.13 329.314 88.674C328.657 89.218 327.864 89.6487 326.934 89.966C326.028 90.2607 325.03 90.408 323.942 90.408C322.741 90.408 321.664 90.238 320.712 89.898C319.783 89.5353 319.058 89.1387 318.536 88.708L320.1 85.478C320.712 86.226 321.46 86.7813 322.344 87.144C323.228 87.5067 324.078 87.688 324.894 87.688C325.914 87.688 326.696 87.4613 327.24 87.008C327.784 86.5547 328.056 85.9653 328.056 85.24C328.056 84.9453 327.954 84.696 327.75 84.492C327.546 84.2653 327.172 84.084 326.628 83.948L323.568 83.132C323.002 82.9733 322.526 82.7693 322.14 82.52C321.778 82.248 321.483 81.9533 321.256 81.636C321.03 81.296 320.871 80.9447 320.78 80.582C320.69 80.2193 320.644 79.868 320.644 79.528C320.644 78.644 320.814 77.8507 321.154 77.148C321.517 76.4453 322.004 75.856 322.616 75.38C323.228 74.8813 323.954 74.5073 324.792 74.258C325.631 73.986 326.538 73.85 327.512 73.85C327.943 73.85 328.396 73.884 328.872 73.952C329.371 73.9973 329.847 74.088 330.3 74.224C330.754 74.3373 331.184 74.4847 331.592 74.666C332 74.8247 332.352 75.0173 332.646 75.244L331.014 78.304C330.652 77.9413 330.096 77.5787 329.348 77.216C328.6 76.8307 327.728 76.638 326.73 76.638ZM352.628 90L354.838 79.664C354.906 79.324 354.94 79.018 354.94 78.746C354.94 77.4993 354.306 76.876 353.036 76.876C352.651 76.876 352.22 76.944 351.744 77.08C351.291 77.216 350.826 77.42 350.35 77.692C349.897 77.9413 349.455 78.2587 349.024 78.644C348.616 79.0293 348.288 79.4713 348.038 79.97L345.896 90H342.156L345.488 74.36H348.412L348.072 76.672H348.208C348.888 75.72 349.784 75.0173 350.894 74.564C352.005 74.088 353.138 73.85 354.294 73.85C354.929 73.85 355.518 73.918 356.062 74.054C356.629 74.19 357.116 74.4167 357.524 74.734C357.932 75.0287 358.25 75.4253 358.476 75.924C358.726 76.4 358.85 76.9893 358.85 77.692C358.85 78.1907 358.782 78.746 358.646 79.358L356.368 90H352.628ZM371.322 73.85C372.455 73.85 373.418 74.0313 374.212 74.394C375.028 74.734 375.696 75.21 376.218 75.822C376.739 76.4113 377.113 77.1027 377.34 77.896C377.589 78.6667 377.714 79.494 377.714 80.378C377.714 81.6473 377.498 82.8827 377.068 84.084C376.66 85.2853 376.048 86.362 375.232 87.314C374.416 88.2433 373.396 88.9913 372.172 89.558C370.948 90.1247 369.52 90.408 367.888 90.408C366.754 90.408 365.78 90.238 364.964 89.898C364.148 89.558 363.479 89.0933 362.958 88.504C362.436 87.9147 362.051 87.2347 361.802 86.464C361.552 85.6707 361.428 84.832 361.428 83.948C361.428 82.7013 361.643 81.4773 362.074 80.276C362.504 79.052 363.128 77.964 363.944 77.012C364.782 76.06 365.814 75.3007 367.038 74.734C368.284 74.1447 369.712 73.85 371.322 73.85ZM368.466 87.586C369.304 87.586 370.041 87.382 370.676 86.974C371.333 86.566 371.877 86.0447 372.308 85.41C372.738 84.7527 373.067 84.0273 373.294 83.234C373.52 82.418 373.634 81.602 373.634 80.786C373.634 80.242 373.577 79.732 373.464 79.256C373.35 78.7573 373.169 78.3267 372.92 77.964C372.67 77.6013 372.353 77.318 371.968 77.114C371.605 76.8873 371.152 76.774 370.608 76.774C369.769 76.774 369.032 76.978 368.398 77.386C367.763 77.794 367.23 78.3267 366.8 78.984C366.369 79.6187 366.04 80.344 365.814 81.16C365.61 81.976 365.508 82.792 365.508 83.608C365.508 84.1293 365.564 84.6393 365.678 85.138C365.791 85.614 365.961 86.0333 366.188 86.396C366.437 86.7587 366.743 87.0533 367.106 87.28C367.491 87.484 367.944 87.586 368.466 87.586ZM398.552 73.85C400.252 73.85 401.544 74.2467 402.428 75.04C403.312 75.8107 403.754 76.91 403.754 78.338C403.754 78.7687 403.708 79.1993 403.618 79.63C403.527 80.0607 403.402 80.4687 403.244 80.854C403.108 81.2167 402.949 81.5453 402.768 81.84C402.609 82.1347 402.462 82.3613 402.326 82.52H392.364C392.341 82.656 392.33 82.792 392.33 82.928C392.33 83.064 392.33 83.2 392.33 83.336C392.33 83.9027 392.398 84.4353 392.534 84.934C392.692 85.4327 392.919 85.8747 393.214 86.26C393.508 86.6227 393.882 86.9173 394.336 87.144C394.812 87.348 395.367 87.45 396.002 87.45C396.84 87.45 397.758 87.2913 398.756 86.974C399.753 86.6567 400.648 86.26 401.442 85.784V88.572C401.102 88.7533 400.682 88.9573 400.184 89.184C399.708 89.388 399.175 89.5807 398.586 89.762C398.019 89.9433 397.407 90.0907 396.75 90.204C396.115 90.34 395.458 90.408 394.778 90.408C393.712 90.408 392.783 90.238 391.99 89.898C391.219 89.5353 390.573 89.0593 390.052 88.47C389.53 87.8807 389.134 87.1893 388.862 86.396C388.612 85.6027 388.488 84.764 388.488 83.88C388.488 82.6107 388.726 81.3753 389.202 80.174C389.678 78.9727 390.358 77.9073 391.242 76.978C392.126 76.026 393.18 75.2667 394.404 74.7C395.65 74.1333 397.033 73.85 398.552 73.85ZM397.804 76.774C396.806 76.774 395.9 77.0573 395.084 77.624C394.268 78.168 393.622 78.916 393.146 79.868H399.776C399.844 79.7093 399.9 79.5507 399.946 79.392C400.014 79.2107 400.048 79.0293 400.048 78.848C400.048 78.236 399.844 77.7373 399.436 77.352C399.028 76.9667 398.484 76.774 397.804 76.774ZM415.582 90L417.792 79.664C417.86 79.324 417.894 79.018 417.894 78.746C417.894 77.4993 417.259 76.876 415.99 76.876C415.604 76.876 415.174 76.944 414.698 77.08C414.244 77.216 413.78 77.42 413.304 77.692C412.85 77.9413 412.408 78.2587 411.978 78.644C411.57 79.0293 411.241 79.4713 410.992 79.97L408.85 90H405.11L408.442 74.36H411.366L411.026 76.672H411.162C411.842 75.72 412.737 75.0173 413.848 74.564C414.958 74.088 416.092 73.85 417.248 73.85C417.882 73.85 418.472 73.918 419.016 74.054C419.582 74.19 420.07 74.4167 420.478 74.734C420.886 75.0287 421.203 75.4253 421.43 75.924C421.679 76.4 421.804 76.9893 421.804 77.692C421.804 78.1907 421.736 78.746 421.6 79.358L419.322 90H415.582ZM430.025 90.408C429.141 90.408 428.348 90.2493 427.645 89.932C426.942 89.592 426.353 89.1387 425.877 88.572C425.401 87.9827 425.038 87.2913 424.789 86.498C424.54 85.7047 424.415 84.8433 424.415 83.914C424.415 82.69 424.619 81.4773 425.027 80.276C425.435 79.0747 426.024 77.998 426.795 77.046C427.566 76.094 428.506 75.3233 429.617 74.734C430.75 74.1447 432.031 73.85 433.459 73.85C434.547 73.85 435.476 74.0313 436.247 74.394C437.04 74.7567 437.63 75.2667 438.015 75.924L440.361 64.84H444.067L438.729 90H435.737L435.907 87.858H435.771C434.978 88.5607 434.128 89.1613 433.221 89.66C432.314 90.1587 431.249 90.408 430.025 90.408ZM431.113 87.586C431.476 87.586 431.872 87.5407 432.303 87.45C432.734 87.3367 433.164 87.1893 433.595 87.008C434.048 86.8267 434.479 86.6113 434.887 86.362C435.295 86.09 435.658 85.784 435.975 85.444L437.369 78.916C436.848 78.0773 436.27 77.5107 435.635 77.216C435 76.8987 434.354 76.74 433.697 76.74C432.813 76.74 432.031 76.944 431.351 77.352C430.671 77.7373 430.093 78.2587 429.617 78.916C429.141 79.5507 428.778 80.276 428.529 81.092C428.28 81.8853 428.155 82.7013 428.155 83.54C428.155 84.0613 428.212 84.5713 428.325 85.07C428.438 85.546 428.608 85.9767 428.835 86.362C429.084 86.7247 429.39 87.0193 429.753 87.246C430.138 87.4727 430.592 87.586 431.113 87.586ZM455.264 76.638H453.326L453.734 74.598L456.012 74.258L457.61 69.634H460.466L459.48 74.36H462.472L461.996 76.638H458.97L457.066 85.614C456.975 85.9767 456.93 86.3053 456.93 86.6C456.93 86.8947 456.986 87.0987 457.1 87.212C457.236 87.3027 457.44 87.348 457.712 87.348C458.006 87.348 458.312 87.2913 458.63 87.178C458.947 87.0647 459.434 86.8493 460.092 86.532V89.218C459.57 89.5807 458.89 89.864 458.052 90.068C457.236 90.2947 456.442 90.408 455.672 90.408C454.652 90.408 453.938 90.2153 453.53 89.83C453.144 89.4447 452.952 88.8893 452.952 88.164C452.952 87.9147 452.974 87.6427 453.02 87.348C453.065 87.0307 453.122 86.7133 453.19 86.396L455.264 76.638ZM473.355 73.85C474.488 73.85 475.452 74.0313 476.245 74.394C477.061 74.734 477.73 75.21 478.251 75.822C478.772 76.4113 479.146 77.1027 479.373 77.896C479.622 78.6667 479.747 79.494 479.747 80.378C479.747 81.6473 479.532 82.8827 479.101 84.084C478.693 85.2853 478.081 86.362 477.265 87.314C476.449 88.2433 475.429 88.9913 474.205 89.558C472.981 90.1247 471.553 90.408 469.921 90.408C468.788 90.408 467.813 90.238 466.997 89.898C466.181 89.558 465.512 89.0933 464.991 88.504C464.47 87.9147 464.084 87.2347 463.835 86.464C463.586 85.6707 463.461 84.832 463.461 83.948C463.461 82.7013 463.676 81.4773 464.107 80.276C464.538 79.052 465.161 77.964 465.977 77.012C466.816 76.06 467.847 75.3007 469.071 74.734C470.318 74.1447 471.746 73.85 473.355 73.85ZM470.499 87.586C471.338 87.586 472.074 87.382 472.709 86.974C473.366 86.566 473.91 86.0447 474.341 85.41C474.772 84.7527 475.1 84.0273 475.327 83.234C475.554 82.418 475.667 81.602 475.667 80.786C475.667 80.242 475.61 79.732 475.497 79.256C475.384 78.7573 475.202 78.3267 474.953 77.964C474.704 77.6013 474.386 77.318 474.001 77.114C473.638 76.8873 473.185 76.774 472.641 76.774C471.802 76.774 471.066 76.978 470.431 77.386C469.796 77.794 469.264 78.3267 468.833 78.984C468.402 79.6187 468.074 80.344 467.847 81.16C467.643 81.976 467.541 82.792 467.541 83.608C467.541 84.1293 467.598 84.6393 467.711 85.138C467.824 85.614 467.994 86.0333 468.221 86.396C468.47 86.7587 468.776 87.0533 469.139 87.28C469.524 87.484 469.978 87.586 470.499 87.586ZM272.264 123.478L278.962 112.36H282.6L272.774 128.136C272.298 128.929 271.674 129.813 270.904 130.788C270.133 131.785 269.272 132.715 268.32 133.576C267.39 134.46 266.382 135.197 265.294 135.786C264.206 136.398 263.106 136.704 261.996 136.704C261.814 136.704 261.678 136.693 261.588 136.67C261.497 136.67 261.395 136.647 261.282 136.602V133.678C261.35 133.701 261.429 133.723 261.52 133.746C261.588 133.769 261.769 133.78 262.064 133.78C263.56 133.78 264.92 133.225 266.144 132.114C267.368 131.026 268.603 129.485 269.85 127.49L265.26 112.36H269.17L272.264 123.478ZM292.348 111.85C293.481 111.85 294.445 112.031 295.238 112.394C296.054 112.734 296.723 113.21 297.244 113.822C297.765 114.411 298.139 115.103 298.366 115.896C298.615 116.667 298.74 117.494 298.74 118.378C298.74 119.647 298.525 120.883 298.094 122.084C297.686 123.285 297.074 124.362 296.258 125.314C295.442 126.243 294.422 126.991 293.198 127.558C291.974 128.125 290.546 128.408 288.914 128.408C287.781 128.408 286.806 128.238 285.99 127.898C285.174 127.558 284.505 127.093 283.984 126.504C283.463 125.915 283.077 125.235 282.828 124.464C282.579 123.671 282.454 122.832 282.454 121.948C282.454 120.701 282.669 119.477 283.1 118.276C283.531 117.052 284.154 115.964 284.97 115.012C285.809 114.06 286.84 113.301 288.064 112.734C289.311 112.145 290.739 111.85 292.348 111.85ZM289.492 125.586C290.331 125.586 291.067 125.382 291.702 124.974C292.359 124.566 292.903 124.045 293.334 123.41C293.765 122.753 294.093 122.027 294.32 121.234C294.547 120.418 294.66 119.602 294.66 118.786C294.66 118.242 294.603 117.732 294.49 117.256C294.377 116.757 294.195 116.327 293.946 115.964C293.697 115.601 293.379 115.318 292.994 115.114C292.631 114.887 292.178 114.774 291.634 114.774C290.795 114.774 290.059 114.978 289.424 115.386C288.789 115.794 288.257 116.327 287.826 116.984C287.395 117.619 287.067 118.344 286.84 119.16C286.636 119.976 286.534 120.792 286.534 121.608C286.534 122.129 286.591 122.639 286.704 123.138C286.817 123.614 286.987 124.033 287.214 124.396C287.463 124.759 287.769 125.053 288.132 125.28C288.517 125.484 288.971 125.586 289.492 125.586ZM307.572 112.36L305.396 122.526C305.328 122.843 305.294 123.115 305.294 123.342C305.294 123.999 305.475 124.509 305.838 124.872C306.223 125.212 306.745 125.382 307.402 125.382C308.195 125.382 308.977 125.121 309.748 124.6C310.519 124.056 311.165 123.285 311.686 122.288L313.794 112.36H317.568L314.236 128H311.312L311.584 125.824H311.448C311.085 126.345 310.677 126.776 310.224 127.116C309.771 127.433 309.295 127.694 308.796 127.898C308.297 128.079 307.787 128.204 307.266 128.272C306.745 128.363 306.246 128.408 305.77 128.408C305.135 128.408 304.546 128.34 304.002 128.204C303.481 128.091 303.016 127.898 302.608 127.626C302.223 127.331 301.917 126.946 301.69 126.47C301.463 125.994 301.35 125.416 301.35 124.736C301.35 124.237 301.418 123.659 301.554 123.002L303.832 112.36H307.572ZM330.458 115.76C330.276 115.579 329.948 115.431 329.472 115.318C329.018 115.205 328.622 115.148 328.282 115.148C327.828 115.148 327.432 115.261 327.092 115.488C326.752 115.692 326.434 115.975 326.14 116.338C325.845 116.678 325.573 117.075 325.324 117.528C325.074 117.981 324.825 118.446 324.576 118.922L322.638 128H318.898L322.23 112.36H325.154L324.61 115.624H324.746C325.086 115.148 325.426 114.683 325.766 114.23C326.128 113.777 326.502 113.38 326.888 113.04C327.273 112.677 327.692 112.394 328.146 112.19C328.622 111.963 329.143 111.85 329.71 111.85C330.616 111.85 331.398 112.145 332.056 112.734L330.458 115.76ZM357.306 112.326L353.872 128.646C353.577 130.074 353.192 131.287 352.716 132.284C352.263 133.281 351.685 134.097 350.982 134.732C350.279 135.367 349.452 135.831 348.5 136.126C347.548 136.421 346.449 136.568 345.202 136.568C344.613 136.568 344.057 136.534 343.536 136.466C343.015 136.398 342.493 136.296 341.972 136.16C341.473 136.024 340.952 135.843 340.408 135.616C339.864 135.389 339.286 135.117 338.674 134.8L339.252 131.944C340.227 132.533 341.281 132.998 342.414 133.338C343.57 133.678 344.669 133.848 345.712 133.848C346.437 133.848 347.061 133.746 347.582 133.542C348.126 133.338 348.591 132.998 348.976 132.522C349.361 132.046 349.69 131.4 349.962 130.584C350.257 129.791 350.529 128.793 350.778 127.592L351.118 125.858C350.37 126.561 349.531 127.161 348.602 127.66C347.673 128.159 346.607 128.408 345.406 128.408C344.499 128.408 343.695 128.249 342.992 127.932C342.289 127.592 341.7 127.139 341.224 126.572C340.748 125.983 340.385 125.291 340.136 124.498C339.887 123.705 339.762 122.843 339.762 121.914C339.762 120.69 339.966 119.477 340.374 118.276C340.782 117.075 341.371 115.998 342.142 115.046C342.913 114.094 343.853 113.323 344.964 112.734C346.097 112.145 347.367 111.85 348.772 111.85C349.86 111.85 350.846 112.031 351.73 112.394C352.614 112.757 353.249 113.267 353.634 113.924H353.77L354.484 112.36L357.306 112.326ZM346.494 125.586C346.834 125.586 347.208 125.541 347.616 125.45C348.047 125.359 348.477 125.223 348.908 125.042C349.361 124.838 349.792 124.611 350.2 124.362C350.608 124.09 350.982 123.784 351.322 123.444L352.716 116.916C352.195 116.077 351.605 115.511 350.948 115.216C350.313 114.899 349.667 114.74 349.01 114.74C348.149 114.74 347.378 114.944 346.698 115.352C346.018 115.737 345.44 116.247 344.964 116.882C344.488 117.517 344.125 118.242 343.876 119.058C343.627 119.851 343.502 120.667 343.502 121.506C343.502 122.05 343.559 122.571 343.672 123.07C343.785 123.546 343.955 123.977 344.182 124.362C344.431 124.725 344.737 125.019 345.1 125.246C345.485 125.473 345.95 125.586 346.494 125.586ZM369.316 111.85C371.016 111.85 372.308 112.247 373.192 113.04C374.076 113.811 374.518 114.91 374.518 116.338C374.518 116.769 374.473 117.199 374.382 117.63C374.291 118.061 374.167 118.469 374.008 118.854C373.872 119.217 373.713 119.545 373.532 119.84C373.373 120.135 373.226 120.361 373.09 120.52H363.128C363.105 120.656 363.094 120.792 363.094 120.928C363.094 121.064 363.094 121.2 363.094 121.336C363.094 121.903 363.162 122.435 363.298 122.934C363.457 123.433 363.683 123.875 363.978 124.26C364.273 124.623 364.647 124.917 365.1 125.144C365.576 125.348 366.131 125.45 366.766 125.45C367.605 125.45 368.523 125.291 369.52 124.974C370.517 124.657 371.413 124.26 372.206 123.784V126.572C371.866 126.753 371.447 126.957 370.948 127.184C370.472 127.388 369.939 127.581 369.35 127.762C368.783 127.943 368.171 128.091 367.514 128.204C366.879 128.34 366.222 128.408 365.542 128.408C364.477 128.408 363.547 128.238 362.754 127.898C361.983 127.535 361.337 127.059 360.816 126.47C360.295 125.881 359.898 125.189 359.626 124.396C359.377 123.603 359.252 122.764 359.252 121.88C359.252 120.611 359.49 119.375 359.966 118.174C360.442 116.973 361.122 115.907 362.006 114.978C362.89 114.026 363.944 113.267 365.168 112.7C366.415 112.133 367.797 111.85 369.316 111.85ZM368.568 114.774C367.571 114.774 366.664 115.057 365.848 115.624C365.032 116.168 364.386 116.916 363.91 117.868H370.54C370.608 117.709 370.665 117.551 370.71 117.392C370.778 117.211 370.812 117.029 370.812 116.848C370.812 116.236 370.608 115.737 370.2 115.352C369.792 114.967 369.248 114.774 368.568 114.774ZM386.346 128L388.556 117.664C388.624 117.324 388.658 117.018 388.658 116.746C388.658 115.499 388.024 114.876 386.754 114.876C386.369 114.876 385.938 114.944 385.462 115.08C385.009 115.216 384.544 115.42 384.068 115.692C383.615 115.941 383.173 116.259 382.742 116.644C382.334 117.029 382.006 117.471 381.756 117.97L379.614 128H375.874L379.206 112.36H382.13L381.79 114.672H381.926C382.606 113.72 383.502 113.017 384.612 112.564C385.723 112.088 386.856 111.85 388.012 111.85C388.647 111.85 389.236 111.918 389.78 112.054C390.347 112.19 390.834 112.417 391.242 112.734C391.65 113.029 391.968 113.425 392.194 113.924C392.444 114.4 392.568 114.989 392.568 115.692C392.568 116.191 392.5 116.746 392.364 117.358L390.086 128H386.346ZM398.308 128H394.568L397.9 112.36H401.64L398.308 128ZM398.376 107.736C398.376 107.373 398.455 107.022 398.614 106.682C398.795 106.342 399.022 106.036 399.294 105.764C399.588 105.492 399.906 105.277 400.246 105.118C400.608 104.937 400.982 104.846 401.368 104.846C401.934 104.846 402.41 105.061 402.796 105.492C403.181 105.923 403.374 106.421 403.374 106.988C403.374 107.351 403.272 107.702 403.068 108.042C402.886 108.359 402.648 108.654 402.354 108.926C402.059 109.175 401.73 109.379 401.368 109.538C401.005 109.674 400.654 109.742 400.314 109.742C399.724 109.742 399.248 109.549 398.886 109.164C398.546 108.779 398.376 108.303 398.376 107.736ZM409.904 112.36L407.728 122.526C407.66 122.843 407.626 123.115 407.626 123.342C407.626 123.999 407.807 124.509 408.17 124.872C408.555 125.212 409.077 125.382 409.734 125.382C410.527 125.382 411.309 125.121 412.08 124.6C412.851 124.056 413.497 123.285 414.018 122.288L416.126 112.36H419.9L416.568 128H413.644L413.916 125.824H413.78C413.417 126.345 413.009 126.776 412.556 127.116C412.103 127.433 411.627 127.694 411.128 127.898C410.629 128.079 410.119 128.204 409.598 128.272C409.077 128.363 408.578 128.408 408.102 128.408C407.467 128.408 406.878 128.34 406.334 128.204C405.813 128.091 405.348 127.898 404.94 127.626C404.555 127.331 404.249 126.946 404.022 126.47C403.795 125.994 403.682 125.416 403.682 124.736C403.682 124.237 403.75 123.659 403.886 123.002L406.164 112.36H409.904ZM428.88 114.638C428.018 114.638 427.338 114.808 426.84 115.148C426.364 115.488 426.126 115.953 426.126 116.542C426.126 116.814 426.228 117.075 426.432 117.324C426.658 117.551 427.089 117.743 427.724 117.902L430.002 118.446C430.704 118.627 431.282 118.865 431.736 119.16C432.212 119.455 432.586 119.783 432.858 120.146C433.13 120.509 433.311 120.894 433.402 121.302C433.515 121.687 433.572 122.061 433.572 122.424C433.572 123.263 433.379 124.045 432.994 124.77C432.631 125.495 432.121 126.13 431.464 126.674C430.806 127.218 430.013 127.649 429.084 127.966C428.177 128.261 427.18 128.408 426.092 128.408C424.89 128.408 423.814 128.238 422.862 127.898C421.932 127.535 421.207 127.139 420.686 126.708L422.25 123.478C422.862 124.226 423.61 124.781 424.494 125.144C425.378 125.507 426.228 125.688 427.044 125.688C428.064 125.688 428.846 125.461 429.39 125.008C429.934 124.555 430.206 123.965 430.206 123.24C430.206 122.945 430.104 122.696 429.9 122.492C429.696 122.265 429.322 122.084 428.778 121.948L425.718 121.132C425.151 120.973 424.675 120.769 424.29 120.52C423.927 120.248 423.632 119.953 423.406 119.636C423.179 119.296 423.02 118.945 422.93 118.582C422.839 118.219 422.794 117.868 422.794 117.528C422.794 116.644 422.964 115.851 423.304 115.148C423.666 114.445 424.154 113.856 424.766 113.38C425.378 112.881 426.103 112.507 426.942 112.258C427.78 111.986 428.687 111.85 429.662 111.85C430.092 111.85 430.546 111.884 431.022 111.952C431.52 111.997 431.996 112.088 432.45 112.224C432.903 112.337 433.334 112.485 433.742 112.666C434.15 112.825 434.501 113.017 434.796 113.244L433.164 116.304C432.801 115.941 432.246 115.579 431.498 115.216C430.75 114.831 429.877 114.638 428.88 114.638ZM438.08 121.88L440.902 104.812H445.56L441.038 121.88H438.08ZM436.176 126.402C436.176 126.039 436.255 125.699 436.414 125.382C436.595 125.042 436.822 124.747 437.094 124.498C437.366 124.226 437.672 124.022 438.012 123.886C438.375 123.727 438.749 123.648 439.134 123.648C439.723 123.648 440.211 123.852 440.596 124.26C440.981 124.645 441.174 125.11 441.174 125.654C441.174 126.017 441.072 126.368 440.868 126.708C440.687 127.025 440.449 127.32 440.154 127.592C439.859 127.841 439.531 128.034 439.168 128.17C438.805 128.329 438.443 128.408 438.08 128.408C437.513 128.408 437.049 128.215 436.686 127.83C436.346 127.422 436.176 126.946 436.176 126.402Z" fill="black"/>
</svg>
