<svg width="502" height="279" viewBox="0 0 502 279" fill="none" xmlns="http://www.w3.org/2000/svg">
<rect x="47.4678" y="244.425" width="31.0591" height="34.5753" rx="15" fill="#66A923"/>
<rect x="104.312" y="244.425" width="31.0591" height="34.5753" rx="15" fill="#66A923"/>
<path d="M10.3509 229.796C17.0006 239.892 28.0835 234.237 33.4032 234.237V249.113C30.3739 249.557 23.3855 247.355 17.8737 247.355C11.2239 247.355 3.67668 241.785 1.89838 236.784C-3.86467 220.577 4.81677 221.394 10.3509 229.796Z" fill="#66A923"/>
<path d="M169.011 206.04C165.267 218.23 146.292 222.547 135.371 225.965L140.637 242.081C168.426 234.462 189.013 234.99 201.885 219.519C217.973 200.18 215.07 180.255 192.121 185.823C177.338 189.409 173.692 190.804 169.011 206.04Z" fill="#66A923"/>
<mask id="mask0_90_387" style="mask-type:alpha" maskUnits="userSpaceOnUse" x="135" y="184" width="78" height="59">
<path d="M169.011 206.04C165.267 218.23 146.292 222.547 135.371 225.965L140.637 242.081C168.426 234.462 189.013 234.99 201.885 219.519C217.973 200.18 215.07 180.255 192.121 185.823C177.338 189.409 173.692 190.804 169.011 206.04Z" fill="#66A923"/>
</mask>
<g mask="url(#mask0_90_387)">
<path d="M211.808 206.227C212.087 207.598 211.81 209.024 211.037 210.19C210.265 211.356 209.062 212.168 207.691 212.447C206.32 212.726 204.895 212.449 203.728 211.677C202.562 210.905 201.75 209.701 201.471 208.331L206.639 207.279L211.808 206.227Z" fill="black"/>
</g>
<circle cx="193.973" cy="201.645" r="3.51613" fill="black"/>
<circle cx="194.559" cy="200.473" r="1.17204" fill="#005C25"/>
<path d="M37.0177 256.061C28.9014 253.309 23.2292 245.647 24.521 237.175C27.0061 220.876 33.7071 205.725 43.8663 193.858C56.9445 178.582 74.6822 170 93.1775 170C111.673 170 129.411 178.582 142.489 193.858C152.632 205.706 159.327 220.827 161.822 237.097C163.127 245.606 157.405 253.293 149.239 256.015L131.711 261.858C129.671 262.538 127.536 262.884 125.386 262.884H93.1775H60.4362C58.2516 262.884 56.0818 262.526 54.0129 261.825L37.0177 256.061Z" fill="#423C27"/>
<mask id="mask1_90_387" style="mask-type:alpha" maskUnits="userSpaceOnUse" x="24" y="170" width="139" height="93">
<path d="M37.0177 256.061C28.9014 253.309 23.2292 245.647 24.521 237.175C27.0061 220.876 33.7071 205.725 43.8663 193.858C56.9445 178.582 74.6822 170 93.1775 170C111.673 170 129.411 178.582 142.489 193.858C152.632 205.706 159.327 220.827 161.822 237.097C163.127 245.606 157.405 253.293 149.239 256.015L131.711 261.858C129.671 262.538 127.536 262.884 125.386 262.884H93.1775H60.4362C58.2516 262.884 56.0818 262.526 54.0129 261.825L37.0177 256.061Z" fill="#423C27"/>
</mask>
<g mask="url(#mask1_90_387)">
<path opacity="0.6" d="M22.2689 191.097L42.0618 202.524V225.379L22.2689 236.806L2.47603 225.379V202.524L22.2689 191.097Z" fill="#996F3F"/>
<path opacity="0.6" d="M66.8065 191.097L86.5994 202.524V225.379L66.8065 236.806L47.0136 225.379V202.524L66.8065 191.097Z" fill="#996F3F"/>
<path opacity="0.6" d="M110.172 191.097L129.965 202.524V225.379L110.172 236.806L90.3794 225.379V202.524L110.172 191.097Z" fill="#996F3F"/>
<path opacity="0.6" d="M154.71 191.097L174.503 202.524V225.379L154.71 236.806L134.917 225.379V202.524L154.71 191.097Z" fill="#996F3F"/>
<path opacity="0.6" d="M44.5375 153.005L64.3303 164.433V187.288L44.5375 198.715L24.7446 187.288V164.433L44.5375 153.005Z" fill="#996F3F"/>
<path opacity="0.6" d="M89.0755 153.005L108.868 164.433V187.288L89.0755 198.715L69.2827 187.288V164.433L89.0755 153.005Z" fill="#996F3F"/>
<path opacity="0.6" d="M132.441 153.005L152.234 164.433V187.288L132.441 198.715L112.648 187.288V164.433L132.441 153.005Z" fill="#996F3F"/>
<path opacity="0.6" d="M176.978 153.005L196.771 164.433V187.288L176.978 198.715L157.186 187.288V164.433L176.978 153.005Z" fill="#996F3F"/>
<path opacity="0.6" d="M44.5375 229.188L64.3303 240.616V263.47L44.5375 274.898L24.7446 263.47V240.616L44.5375 229.188Z" fill="#996F3F"/>
<path opacity="0.6" d="M89.0755 229.188L108.868 240.616V263.47L89.0755 274.898L69.2827 263.47V240.616L89.0755 229.188Z" fill="#996F3F"/>
<path opacity="0.6" d="M132.441 229.188L152.234 240.616V263.47L132.441 274.898L112.648 263.47V240.616L132.441 229.188Z" fill="#996F3F"/>
<path opacity="0.6" d="M176.978 229.188L196.771 240.616V263.47L176.978 274.898L157.186 263.47V240.616L176.978 229.188Z" fill="#996F3F"/>
</g>
<path d="M19.0084 244.241C20.4444 240.459 24.6745 238.556 28.4567 239.992L62.6985 252.992L57.4985 266.689L23.2568 253.689C19.4746 252.253 17.5725 248.023 19.0084 244.241Z" fill="#423C27"/>
<path d="M166.871 244.862C168.255 248.664 166.295 252.867 162.493 254.251L128.075 266.778L123.065 253.011L157.482 240.484C161.284 239.1 165.487 241.06 166.871 244.862Z" fill="#423C27"/>
<rect x="57.5928" y="252.288" width="70.7925" height="14.6505" fill="#423C27"/>
<path d="M240.669 199C249.542 182.772 252.629 169.946 242.65 162.001C213.942 144.447 210 111.737 210 99.859C210 45.1087 275.366 0.724854 356 0.724854C436.633 0.724854 502 45.1087 502 99.859C502 154.609 436.633 198.993 356 198.993C333.989 198.993 297.413 194.166 275.545 182.301C264.071 199 250.328 199 240.669 199Z" fill="#E5E5E5"/>
<path d="M264.822 92H260.912L265.672 69.56H269.582L264.822 92ZM273.016 75.51L275.362 71.668H274.512L275.498 67.01H279.544L278.456 72.178L274.07 76.36L273.016 75.51ZM288.227 92L290.437 81.664C290.505 81.3013 290.539 80.9727 290.539 80.678C290.539 79.4767 289.961 78.876 288.805 78.876C288.442 78.876 288.034 78.944 287.581 79.08C287.128 79.216 286.674 79.42 286.221 79.692C285.768 79.9413 285.337 80.2587 284.929 80.644C284.544 81.0293 284.226 81.4713 283.977 81.97L281.835 92H278.095L281.427 76.36H284.351L284.011 78.672H284.147C284.804 77.72 285.677 77.0173 286.765 76.564C287.853 76.088 288.952 75.85 290.063 75.85C291.128 75.85 292.046 76.054 292.817 76.462C293.61 76.87 294.12 77.584 294.347 78.604C295.004 77.6747 295.866 76.9833 296.931 76.53C298.019 76.0767 299.107 75.85 300.195 75.85C300.807 75.85 301.374 75.918 301.895 76.054C302.439 76.19 302.904 76.4053 303.289 76.7C303.697 76.9947 304.014 77.3913 304.241 77.89C304.468 78.366 304.581 78.9553 304.581 79.658C304.581 80.1793 304.513 80.746 304.377 81.358L302.099 92H298.359L300.569 81.664C300.637 81.3013 300.671 80.9727 300.671 80.678C300.671 79.4767 300.093 78.876 298.937 78.876C298.574 78.876 298.166 78.944 297.713 79.08C297.26 79.216 296.806 79.42 296.353 79.692C295.9 79.9413 295.469 80.2587 295.061 80.644C294.676 81.0293 294.37 81.4713 294.143 81.97V81.834L291.967 92H288.227ZM321.139 92.408C320.255 92.408 319.462 92.2493 318.759 91.932C318.056 91.592 317.467 91.1387 316.991 90.572C316.515 89.9827 316.152 89.2913 315.903 88.498C315.654 87.7047 315.529 86.8433 315.529 85.914C315.529 84.69 315.733 83.4773 316.141 82.276C316.549 81.0747 317.138 79.998 317.909 79.046C318.68 78.094 319.62 77.3233 320.731 76.734C321.864 76.1447 323.145 75.85 324.573 75.85C325.661 75.85 326.59 76.0313 327.361 76.394C328.154 76.7567 328.744 77.2667 329.129 77.924L331.475 66.84H335.181L329.843 92H326.851L327.021 89.858H326.885C326.092 90.5607 325.242 91.1613 324.335 91.66C323.428 92.1587 322.363 92.408 321.139 92.408ZM322.227 89.586C322.59 89.586 322.986 89.5407 323.417 89.45C323.848 89.3367 324.278 89.1893 324.709 89.008C325.162 88.8267 325.593 88.6113 326.001 88.362C326.409 88.09 326.772 87.784 327.089 87.444L328.483 80.916C327.962 80.0773 327.384 79.5107 326.749 79.216C326.114 78.8987 325.468 78.74 324.811 78.74C323.927 78.74 323.145 78.944 322.465 79.352C321.785 79.7373 321.207 80.2587 320.731 80.916C320.255 81.5507 319.892 82.276 319.643 83.092C319.394 83.8853 319.269 84.7013 319.269 85.54C319.269 86.0613 319.326 86.5713 319.439 87.07C319.552 87.546 319.722 87.9767 319.949 88.362C320.198 88.7247 320.504 89.0193 320.867 89.246C321.252 89.4727 321.706 89.586 322.227 89.586ZM346.034 79.76C345.852 79.5787 345.524 79.4313 345.048 79.318C344.594 79.2047 344.198 79.148 343.858 79.148C343.404 79.148 343.008 79.2613 342.668 79.488C342.328 79.692 342.01 79.9753 341.716 80.338C341.421 80.678 341.149 81.0747 340.9 81.528C340.65 81.9813 340.401 82.446 340.152 82.922L338.214 92H334.474L337.806 76.36H340.73L340.186 79.624H340.322C340.662 79.148 341.002 78.6833 341.342 78.23C341.704 77.7767 342.078 77.38 342.464 77.04C342.849 76.6773 343.268 76.394 343.722 76.19C344.198 75.9633 344.719 75.85 345.286 75.85C346.192 75.85 346.974 76.1447 347.632 76.734L346.034 79.76ZM365.216 76.36L361.884 92H358.892L359.062 89.858H358.926C358.133 90.5607 357.283 91.1613 356.376 91.66C355.469 92.1587 354.404 92.408 353.18 92.408C352.296 92.408 351.503 92.2493 350.8 91.932C350.097 91.592 349.508 91.1387 349.032 90.572C348.556 89.9827 348.193 89.2913 347.944 88.498C347.695 87.7047 347.57 86.8433 347.57 85.914C347.57 84.69 347.774 83.4773 348.182 82.276C348.59 81.0747 349.179 79.998 349.95 79.046C350.721 78.094 351.661 77.3233 352.772 76.734C353.905 76.1447 355.186 75.85 356.614 75.85C357.702 75.85 358.677 76.0313 359.538 76.394C360.422 76.7567 361.057 77.2667 361.442 77.924H361.578L362.292 76.36H365.216ZM354.268 89.586C354.631 89.586 355.027 89.5407 355.458 89.45C355.889 89.3367 356.319 89.1893 356.75 89.008C357.203 88.8267 357.634 88.6113 358.042 88.362C358.45 88.09 358.813 87.784 359.13 87.444L360.524 80.916C360.003 80.0773 359.425 79.5107 358.79 79.216C358.155 78.8987 357.509 78.74 356.852 78.74C355.968 78.74 355.186 78.944 354.506 79.352C353.826 79.7373 353.248 80.2587 352.772 80.916C352.296 81.5507 351.933 82.276 351.684 83.092C351.435 83.8853 351.31 84.7013 351.31 85.54C351.31 86.0613 351.367 86.5713 351.48 87.07C351.593 87.546 351.763 87.9767 351.99 88.362C352.239 88.7247 352.545 89.0193 352.908 89.246C353.293 89.4727 353.747 89.586 354.268 89.586ZM380.42 81.12L374.742 92H370.22L367.874 76.36H371.784L373.314 88.362L379.57 76.36H383.31L384.432 88.362L391.096 76.36H394.938L385.928 92H381.474L380.42 81.12ZM404.944 92L407.154 81.664C407.222 81.324 407.256 81.018 407.256 80.746C407.256 79.4993 406.621 78.876 405.352 78.876C404.967 78.876 404.536 78.944 404.06 79.08C403.607 79.216 403.142 79.42 402.666 79.692C402.213 79.9413 401.771 80.2587 401.34 80.644C400.932 81.0293 400.603 81.4713 400.354 81.97L398.212 92H394.472L397.804 76.36H400.728L400.388 78.672H400.524C401.204 77.72 402.099 77.0173 403.21 76.564C404.321 76.088 405.454 75.85 406.61 75.85C407.245 75.85 407.834 75.918 408.378 76.054C408.945 76.19 409.432 76.4167 409.84 76.734C410.248 77.0287 410.565 77.4253 410.792 77.924C411.041 78.4 411.166 78.9893 411.166 79.692C411.166 80.1907 411.098 80.746 410.962 81.358L408.684 92H404.944ZM425.069 78.638H423.131L423.539 76.598L425.817 76.258L427.415 71.634H430.271L429.285 76.36H432.277L431.801 78.638H428.775L426.871 87.614C426.781 87.9767 426.735 88.3053 426.735 88.6C426.735 88.8947 426.792 89.0987 426.905 89.212C427.041 89.3027 427.245 89.348 427.517 89.348C427.812 89.348 428.118 89.2913 428.435 89.178C428.753 89.0647 429.24 88.8493 429.897 88.532V91.218C429.376 91.5807 428.696 91.864 427.857 92.068C427.041 92.2947 426.248 92.408 425.477 92.408C424.457 92.408 423.743 92.2153 423.335 91.83C422.95 91.4447 422.757 90.8893 422.757 90.164C422.757 89.9147 422.78 89.6427 422.825 89.348C422.871 89.0307 422.927 88.7133 422.995 88.396L425.069 78.638ZM443.161 75.85C444.294 75.85 445.257 76.0313 446.051 76.394C446.867 76.734 447.535 77.21 448.057 77.822C448.578 78.4113 448.952 79.1027 449.179 79.896C449.428 80.6667 449.553 81.494 449.553 82.378C449.553 83.6473 449.337 84.8827 448.907 86.084C448.499 87.2853 447.887 88.362 447.071 89.314C446.255 90.2433 445.235 90.9913 444.011 91.558C442.787 92.1247 441.359 92.408 439.727 92.408C438.593 92.408 437.619 92.238 436.803 91.898C435.987 91.558 435.318 91.0933 434.797 90.504C434.275 89.9147 433.89 89.2347 433.641 88.464C433.391 87.6707 433.267 86.832 433.267 85.948C433.267 84.7013 433.482 83.4773 433.913 82.276C434.343 81.052 434.967 79.964 435.783 79.012C436.621 78.06 437.653 77.3007 438.877 76.734C440.123 76.1447 441.551 75.85 443.161 75.85ZM440.305 89.586C441.143 89.586 441.88 89.382 442.515 88.974C443.172 88.566 443.716 88.0447 444.147 87.41C444.577 86.7527 444.906 86.0273 445.133 85.234C445.359 84.418 445.473 83.602 445.473 82.786C445.473 82.242 445.416 81.732 445.303 81.256C445.189 80.7573 445.008 80.3267 444.759 79.964C444.509 79.6013 444.192 79.318 443.807 79.114C443.444 78.8873 442.991 78.774 442.447 78.774C441.608 78.774 440.871 78.978 440.237 79.386C439.602 79.794 439.069 80.3267 438.639 80.984C438.208 81.6187 437.879 82.344 437.653 83.16C437.449 83.976 437.347 84.792 437.347 85.608C437.347 86.1293 437.403 86.6393 437.517 87.138C437.63 87.614 437.8 88.0333 438.027 88.396C438.276 88.7587 438.582 89.0533 438.945 89.28C439.33 89.484 439.783 89.586 440.305 89.586ZM284.154 125.478L290.852 114.36H294.49L284.664 130.136C284.188 130.929 283.565 131.813 282.794 132.788C282.024 133.785 281.162 134.715 280.21 135.576C279.281 136.46 278.272 137.197 277.184 137.786C276.096 138.398 274.997 138.704 273.886 138.704C273.705 138.704 273.569 138.693 273.478 138.67C273.388 138.67 273.286 138.647 273.172 138.602V135.678C273.24 135.701 273.32 135.723 273.41 135.746C273.478 135.769 273.66 135.78 273.954 135.78C275.45 135.78 276.81 135.225 278.034 134.114C279.258 133.026 280.494 131.485 281.74 129.49L277.15 114.36H281.06L284.154 125.478ZM304.239 113.85C305.372 113.85 306.335 114.031 307.129 114.394C307.945 114.734 308.613 115.21 309.135 115.822C309.656 116.411 310.03 117.103 310.257 117.896C310.506 118.667 310.631 119.494 310.631 120.378C310.631 121.647 310.415 122.883 309.985 124.084C309.577 125.285 308.965 126.362 308.149 127.314C307.333 128.243 306.313 128.991 305.089 129.558C303.865 130.125 302.437 130.408 300.805 130.408C299.671 130.408 298.697 130.238 297.881 129.898C297.065 129.558 296.396 129.093 295.875 128.504C295.353 127.915 294.968 127.235 294.719 126.464C294.469 125.671 294.345 124.832 294.345 123.948C294.345 122.701 294.56 121.477 294.991 120.276C295.421 119.052 296.045 117.964 296.861 117.012C297.699 116.06 298.731 115.301 299.955 114.734C301.201 114.145 302.629 113.85 304.239 113.85ZM301.383 127.586C302.221 127.586 302.958 127.382 303.593 126.974C304.25 126.566 304.794 126.045 305.225 125.41C305.655 124.753 305.984 124.027 306.211 123.234C306.437 122.418 306.551 121.602 306.551 120.786C306.551 120.242 306.494 119.732 306.381 119.256C306.267 118.757 306.086 118.327 305.837 117.964C305.587 117.601 305.27 117.318 304.885 117.114C304.522 116.887 304.069 116.774 303.525 116.774C302.686 116.774 301.949 116.978 301.315 117.386C300.68 117.794 300.147 118.327 299.717 118.984C299.286 119.619 298.957 120.344 298.731 121.16C298.527 121.976 298.425 122.792 298.425 123.608C298.425 124.129 298.481 124.639 298.595 125.138C298.708 125.614 298.878 126.033 299.105 126.396C299.354 126.759 299.66 127.053 300.023 127.28C300.408 127.484 300.861 127.586 301.383 127.586ZM319.463 114.36L317.287 124.526C317.219 124.843 317.185 125.115 317.185 125.342C317.185 125.999 317.366 126.509 317.729 126.872C318.114 127.212 318.635 127.382 319.293 127.382C320.086 127.382 320.868 127.121 321.639 126.6C322.409 126.056 323.055 125.285 323.577 124.288L325.685 114.36H329.459L326.127 130H323.203L323.475 127.824H323.339C322.976 128.345 322.568 128.776 322.115 129.116C321.661 129.433 321.185 129.694 320.687 129.898C320.188 130.079 319.678 130.204 319.157 130.272C318.635 130.363 318.137 130.408 317.661 130.408C317.026 130.408 316.437 130.34 315.893 130.204C315.371 130.091 314.907 129.898 314.499 129.626C314.113 129.331 313.807 128.946 313.581 128.47C313.354 127.994 313.241 127.416 313.241 126.736C313.241 126.237 313.309 125.659 313.445 125.002L315.723 114.36H319.463ZM342.348 117.76C342.167 117.579 341.838 117.431 341.362 117.318C340.909 117.205 340.512 117.148 340.172 117.148C339.719 117.148 339.322 117.261 338.982 117.488C338.642 117.692 338.325 117.975 338.03 118.338C337.736 118.678 337.464 119.075 337.214 119.528C336.965 119.981 336.716 120.446 336.466 120.922L334.528 130H330.788L334.12 114.36H337.044L336.5 117.624H336.636C336.976 117.148 337.316 116.683 337.656 116.23C338.019 115.777 338.393 115.38 338.778 115.04C339.164 114.677 339.583 114.394 340.036 114.19C340.512 113.963 341.034 113.85 341.6 113.85C342.507 113.85 343.289 114.145 343.946 114.734L342.348 117.76ZM364.15 119.12L358.472 130H353.95L351.604 114.36H355.514L357.044 126.362L363.3 114.36H367.04L368.162 126.362L374.826 114.36H378.668L369.658 130H365.204L364.15 119.12ZM388.375 113.85C389.509 113.85 390.472 114.031 391.265 114.394C392.081 114.734 392.75 115.21 393.271 115.822C393.793 116.411 394.167 117.103 394.393 117.896C394.643 118.667 394.767 119.494 394.767 120.378C394.767 121.647 394.552 122.883 394.121 124.084C393.713 125.285 393.101 126.362 392.285 127.314C391.469 128.243 390.449 128.991 389.225 129.558C388.001 130.125 386.573 130.408 384.941 130.408C383.808 130.408 382.833 130.238 382.017 129.898C381.201 129.558 380.533 129.093 380.011 128.504C379.49 127.915 379.105 127.235 378.855 126.464C378.606 125.671 378.481 124.832 378.481 123.948C378.481 122.701 378.697 121.477 379.127 120.276C379.558 119.052 380.181 117.964 380.997 117.012C381.836 116.06 382.867 115.301 384.091 114.734C385.338 114.145 386.766 113.85 388.375 113.85ZM385.519 127.586C386.358 127.586 387.095 127.382 387.729 126.974C388.387 126.566 388.931 126.045 389.361 125.41C389.792 124.753 390.121 124.027 390.347 123.234C390.574 122.418 390.687 121.602 390.687 120.786C390.687 120.242 390.631 119.732 390.517 119.256C390.404 118.757 390.223 118.327 389.973 117.964C389.724 117.601 389.407 117.318 389.021 117.114C388.659 116.887 388.205 116.774 387.661 116.774C386.823 116.774 386.086 116.978 385.451 117.386C384.817 117.794 384.284 118.327 383.853 118.984C383.423 119.619 383.094 120.344 382.867 121.16C382.663 121.976 382.561 122.792 382.561 123.608C382.561 124.129 382.618 124.639 382.731 125.138C382.845 125.614 383.015 126.033 383.241 126.396C383.491 126.759 383.797 127.053 384.159 127.28C384.545 127.484 384.998 127.586 385.519 127.586ZM408.223 117.76C408.042 117.579 407.713 117.431 407.237 117.318C406.784 117.205 406.387 117.148 406.047 117.148C405.594 117.148 405.197 117.261 404.857 117.488C404.517 117.692 404.2 117.975 403.905 118.338C403.611 118.678 403.339 119.075 403.089 119.528C402.84 119.981 402.591 120.446 402.341 120.922L400.403 130H396.663L399.995 114.36H402.919L402.375 117.624H402.511C402.851 117.148 403.191 116.683 403.531 116.23C403.894 115.777 404.268 115.38 404.653 115.04C405.039 114.677 405.458 114.394 405.911 114.19C406.387 113.963 406.909 113.85 407.475 113.85C408.382 113.85 409.164 114.145 409.821 114.734L408.223 117.76ZM419.104 119.902L423.626 130H419.546L416.112 122.316L414.514 123.642L413.154 130H409.414L414.752 104.84H418.492L415.398 119.392L421.688 114.36H425.87L419.104 119.902ZM428.189 123.88L431.011 106.812H435.669L431.147 123.88H428.189ZM426.285 128.402C426.285 128.039 426.365 127.699 426.523 127.382C426.705 127.042 426.931 126.747 427.203 126.498C427.475 126.226 427.781 126.022 428.121 125.886C428.484 125.727 428.858 125.648 429.243 125.648C429.833 125.648 430.32 125.852 430.705 126.26C431.091 126.645 431.283 127.11 431.283 127.654C431.283 128.017 431.181 128.368 430.977 128.708C430.796 129.025 430.558 129.32 430.263 129.592C429.969 129.841 429.64 130.034 429.277 130.17C428.915 130.329 428.552 130.408 428.189 130.408C427.623 130.408 427.158 130.215 426.795 129.83C426.455 129.422 426.285 128.946 426.285 128.402Z" fill="black"/>
</svg>
